<svg viewBox="0 0 388 154" fill="none" xmlns="http://www.w3.org/2000/svg">
<path d="M8.48474 124.067C8.81891 124.75 11.4477 124.801 15.7095 124.092C19.9703 123.382 25.8591 121.881 32.3942 119.386C37.7546 117.338 43.5279 114.614 49.1058 111.259C53.9032 108.373 58.0951 105.302 61.566 102.316C65.0373 99.3299 67.7924 96.432 69.8335 93.8925C71.8744 91.3523 73.2081 89.1724 73.8866 87.5798C74.566 85.987 74.5991 84.9834 73.9895 84.7274C73.3807 84.4714 72.1872 84.9823 70.5088 86.0661C68.8291 87.1494 66.6564 88.8037 64.0063 90.8162C61.3563 92.8289 58.2253 95.1995 54.6384 97.7255C51.0531 100.251 47.0103 102.93 42.5931 105.588C37.4557 108.678 32.3757 111.397 27.7415 113.706C22.0855 116.525 17.1037 118.75 13.6177 120.458C10.1322 122.167 8.1506 123.385 8.48474 124.067Z" fill="#28242D"/>
<path d="M11.0422 124.574C11.0442 125.287 13.3324 125.899 17.1664 126.578C20.9993 127.256 26.3849 128.026 32.6262 129.17C37.7395 130.107 43.427 131.306 49.3278 132.833C54.4009 134.145 59.152 135.573 63.4323 136.977C67.7125 138.382 71.521 139.759 74.7482 140.932C77.9747 142.103 80.6218 143.068 82.5828 143.634C84.5431 144.201 85.8224 144.365 86.251 143.974C86.6792 143.582 86.2118 142.668 84.9144 141.378C83.6171 140.088 81.4849 138.425 78.5677 136.612C75.6504 134.799 71.9447 132.841 67.5654 130.984C63.1853 129.127 58.1319 127.377 52.6217 125.952C46.215 124.295 39.9113 123.269 34.2686 122.758C27.3896 122.137 21.5169 122.265 17.4318 122.702C13.3471 123.141 11.0402 123.861 11.0422 124.574Z" fill="#28242D"/>
<path d="M75.013 89.2582C73.8612 89.0561 71.9963 90.2708 70.0447 92.6593C68.0952 95.047 66.1035 98.6222 65.0159 103.027C64.1259 106.641 63.8675 110.807 64.5979 115.214C65.2251 119.004 66.5192 122.606 68.1879 125.822C69.8577 129.039 71.8976 131.871 73.9396 134.176C75.9834 136.481 78.0221 138.262 79.7137 139.423C81.4042 140.586 82.7403 141.131 83.503 140.978C84.2656 140.825 84.3897 139.992 84.0691 138.626C83.7504 137.261 82.9961 135.361 82.0835 133.047C81.1696 130.732 80.1004 128.001 79.1314 124.973C78.1634 121.946 77.2995 118.621 76.7213 115.131C76.0475 111.072 75.8386 107.236 75.88 103.828C75.9288 99.6666 76.3212 96.1385 76.39 93.59C76.4594 91.0409 76.1643 89.461 75.013 89.2582Z" fill="#28242D"/>
<path d="M95.6282 103.546C76.1544 110.025 43.8491 118.781 182.557 99.9767C321.264 81.1721 327.598 84.6133 363.412 70.3136C399.23 56.0138 384.552 37.81 373.619 27.7748C362.686 17.7395 345.397 -7.17391 336.311 3.27188C327.223 13.7177 411.174 43.8749 350.827 64.1881C290.479 84.5013 259.143 81.7623 223.429 86.1423C187.72 90.5228 115.104 97.0664 95.6212 103.545L95.6282 103.546Z" fill="#28242D"/>
</svg>
