<svg viewBox="0 0 837 830" fill="none" xmlns="http://www.w3.org/2000/svg">
<path d="M797.253 155.97C733.223 47.4389 611.353 20.9049 565.383 10.8979C408.953 -23.1581 177.483 17.7639 65.8028 202.741C-32.2172 365.089 22.3628 538.488 30.2728 562.262C43.5328 602.132 76.7428 697.756 170.903 762.53C317.493 863.369 540.923 840.749 617.383 736.656C653.293 687.768 624.233 665.219 666.053 578.779C722.073 463.007 791.593 465.786 823.983 373.096C860.543 268.459 803.173 166.002 797.253 155.97Z" fill="#CADDFF"/>
<path d="M41.1408 496.792C40.5969 496.672 40.1415 496.252 40.0034 495.675C31.5968 460.457 28.5744 424.466 31.0196 388.7C31.0765 387.874 31.7926 387.249 32.6187 387.306C33.4406 387.354 34.0684 388.079 34.0124 388.905C31.587 424.368 34.5849 460.056 42.9215 494.978C43.1136 495.785 42.617 496.594 41.8108 496.786C41.5838 496.84 41.3547 496.839 41.1408 496.792Z" fill="black"/>
<path d="M33.575 374.965C32.8357 374.802 32.323 374.103 32.4097 373.333C35.8342 342.898 43.2505 312.894 54.4559 284.158C54.757 283.385 55.6255 283.012 56.3978 283.304C57.1694 283.604 57.5511 284.475 57.2511 285.246C46.1419 313.742 38.7866 343.492 35.3904 373.668C35.2972 374.491 34.5552 375.085 33.7318 374.992C33.6792 374.985 33.6268 374.976 33.575 374.965Z" fill="black"/>
<path d="M58.4393 485.786C57.8894 485.665 57.4312 485.24 57.2978 484.655C55.3601 476.162 53.7211 467.507 52.4291 458.931C52.3055 458.111 52.8689 457.348 53.6887 457.224C54.5073 457.101 55.2718 457.666 55.3948 458.484C56.6772 466.986 58.3017 475.568 60.2228 483.988C60.4074 484.795 59.9017 485.599 59.0941 485.784C58.8711 485.834 58.6483 485.832 58.4393 485.786Z" fill="black"/>
<path d="M51.1312 439.754C50.5091 439.617 50.0206 439.091 49.9598 438.424C47.2502 408.364 48.5248 378.164 53.7488 348.662C53.8927 347.846 54.6708 347.303 55.4871 347.446C56.3153 347.577 56.8474 348.369 56.7026 349.185C51.5248 378.425 50.2617 408.359 52.9487 438.154C53.023 438.979 52.4139 439.709 51.5886 439.783C51.4318 439.797 51.2777 439.786 51.1312 439.754Z" fill="black"/>
<path d="M60.484 324.754C60.4655 324.75 60.4479 324.746 60.4295 324.741C59.6274 324.533 59.1462 323.715 59.3535 322.913C61.2946 315.419 63.5233 307.893 65.9792 300.544C66.2424 299.758 67.0969 299.337 67.8773 299.597C68.6633 299.859 69.0874 300.709 68.8244 301.494C66.391 308.778 64.1811 316.238 62.2577 323.665C62.0545 324.448 61.2682 324.926 60.484 324.754Z" fill="black"/>
<path d="M113.529 376.834C106.218 375.224 101.582 367.963 103.193 360.648C104.804 353.332 112.062 348.69 119.373 350.3C120.181 350.478 120.693 351.279 120.515 352.088C120.337 352.896 119.536 353.408 118.727 353.23C113.032 351.976 107.378 355.592 106.122 361.293C104.867 366.993 108.479 372.65 114.174 373.905C119.869 375.159 125.523 371.542 126.779 365.841C126.957 365.033 127.757 364.521 128.566 364.699C129.376 364.877 129.886 365.678 129.708 366.487C128.097 373.802 120.84 378.444 113.529 376.834Z" fill="black"/>
<path d="M333.239 37.3161C333.201 37.553 333.218 37.7888 333.297 38.0345C333.562 38.8167 334.413 39.2378 335.198 38.9797C370.965 26.9366 408.812 21.4185 447.685 22.5793C448.513 22.6118 449.207 21.9438 449.229 21.127C449.254 20.3004 448.603 19.6077 447.775 19.5855C408.545 18.4075 370.346 23.9801 334.241 36.1305C333.695 36.316 333.325 36.783 333.239 37.3161Z" fill="black"/>
<path d="M463.957 21.8339C463.951 21.8733 463.946 21.913 463.942 21.9528C463.877 22.7729 464.49 23.5001 465.317 23.5627C470.477 23.9906 475.717 24.5327 480.891 25.1856C481.713 25.2879 482.488 24.7039 482.567 23.8861C482.671 23.0621 482.09 22.31 481.268 22.2077C476.05 21.5476 470.765 20.9983 465.56 20.5731C464.775 20.5073 464.082 21.0638 463.957 21.8339Z" fill="black"/>
<path d="M361.243 46.6289C361.212 46.8165 361.217 47.0199 361.266 47.2202C361.459 48.0214 362.27 48.5169 363.075 48.3228C407.762 37.5681 454.235 37.464 501.207 47.9853C502.015 48.1665 502.817 47.658 502.998 46.8564C503.2 46.0281 502.671 45.2437 501.863 45.0625C454.442 34.4281 407.509 34.5491 362.373 45.4036C361.767 45.5489 361.337 46.0465 361.243 46.6289Z" fill="black"/>
<path d="M190.54 358.684C190.271 358.684 190.095 358.836 190.028 358.928C189.947 359.019 189.826 359.212 189.88 359.481L213.331 499.073C213.371 499.346 213.654 499.577 213.978 499.577H621.779C622.103 499.577 622.372 499.352 622.439 499.043L646.012 359.589C646.092 359.226 645.971 359.029 645.89 358.935C645.823 358.84 645.648 358.684 645.378 358.684H190.54ZM621.779 503.618H213.978C211.715 503.618 209.775 502.007 209.344 499.785L185.906 360.195C185.65 358.855 186.014 357.438 186.916 356.351C187.805 355.267 189.139 354.643 190.54 354.643H645.378C646.806 354.643 648.14 355.281 649.042 356.397C649.945 357.512 650.282 358.953 649.985 360.353L626.413 499.795C625.941 502.043 624.002 503.618 621.779 503.618Z" fill="black"/>
<path d="M615.152 386.605H220.767C217.965 386.605 215.877 389.068 216.456 391.681L229.387 467.754C229.819 469.693 231.61 471.079 233.684 471.079H602.329C604.403 471.079 606.195 469.693 606.639 467.755L619.463 391.682C620.042 389.069 617.954 386.605 615.152 386.605Z" fill="#99B9FF"/>
<path d="M216.456 391.681C215.877 389.068 217.965 386.605 220.767 386.605H238.493L252.637 471.079H233.684C231.61 471.079 229.819 469.693 229.387 467.754L216.456 391.681Z" fill="white"/>
<path d="M317.428 424.106H264.76C261.783 424.106 259.372 421.693 259.372 418.718C259.372 415.742 261.783 413.33 264.76 413.33H317.428C320.391 413.33 322.816 415.742 322.816 418.718C322.816 421.693 320.391 424.106 317.428 424.106Z" fill="white"/>
<path d="M501.857 447.004H270.148C267.171 447.004 264.76 444.592 264.76 441.616C264.76 438.641 267.171 436.229 270.148 436.229H501.857C504.834 436.229 507.245 438.641 507.245 441.616C507.245 444.592 504.834 447.004 501.857 447.004Z" fill="white"/>
<path d="M157.727 142.041C157.444 142.041 157.283 142.195 157.202 142.285C157.135 142.376 157.013 142.57 157.067 142.84L184.882 307.318C184.923 307.547 185.3 307.86 185.61 307.86H650.335C650.618 307.86 650.928 307.571 650.995 307.229L678.838 142.93C678.838 142.906 678.851 142.879 678.851 142.855C678.905 142.581 678.784 142.383 678.716 142.29C678.636 142.197 678.474 142.041 678.191 142.041H157.727ZM650.335 311.901H185.61C183.401 311.901 181.38 310.257 180.909 308.079L153.08 143.555C152.824 142.212 153.188 140.796 154.09 139.709C154.993 138.624 156.313 138 157.727 138H678.191C679.619 138 680.953 138.636 681.855 139.743C682.744 140.839 683.094 142.255 682.811 143.639L654.969 307.992C654.471 310.292 652.531 311.901 650.335 311.901Z" fill="black"/>
<path d="M645.905 170.665H190.016C186.554 170.665 183.968 173.862 184.682 177.257L201.276 276.048C201.802 278.565 204.038 280.366 206.61 280.366H629.27C631.842 280.366 634.065 278.567 634.604 276.049L651.239 177.258C651.953 173.864 649.367 170.665 645.905 170.665Z" fill="#5479F7"/>
<path d="M184.682 177.257C183.968 173.862 186.554 170.665 190.016 170.665H206.61L226.371 280.366H206.61C204.038 280.366 201.802 278.565 201.276 276.048L184.682 177.257Z" fill="#99B9FF"/>
<path d="M373.744 216.324H231.569C228.592 216.324 226.181 213.911 226.181 210.936C226.181 207.96 228.592 205.548 231.569 205.548H373.744C376.721 205.548 379.132 207.96 379.132 210.936C379.132 213.911 376.721 216.324 373.744 216.324Z" fill="white"/>
<path d="M522.425 243.971H249.902C246.925 243.971 244.514 241.558 244.514 238.583C244.514 235.607 246.925 233.195 249.902 233.195H522.425C525.388 233.195 527.813 235.607 527.813 238.583C527.813 241.558 525.388 243.971 522.425 243.971Z" fill="white"/>
<path d="M575.712 701.943C565.202 683.155 566.512 674.35 569.502 669.782C574.842 661.646 586.782 665.076 592.072 656.241C597.522 647.153 587.652 638.899 591.322 627.251C595.662 613.473 617.182 600.476 631.002 608.282C642.822 614.958 645.932 635.112 638.902 645.521C631.102 657.074 613.922 652.027 609.082 662.794C604.622 672.698 616.872 682.077 612.952 691.223C610.702 696.472 602.852 702.283 575.712 701.943Z" fill="white"/>
<path d="M573.731 711.104C573.571 711.104 573.411 711.078 573.241 711.022C572.461 710.751 572.051 709.896 572.321 709.114C591.611 653.371 616.881 635.333 617.951 634.592C618.631 634.121 619.561 634.288 620.031 634.968C620.511 635.646 620.341 636.581 619.661 637.055C619.411 637.232 594.091 655.391 575.151 710.095C574.941 710.716 574.361 711.104 573.731 711.104Z" fill="#99B9FF"/>
<path d="M559.412 695.459C559.302 677.912 564.322 667.229 568.932 660.715C577.352 648.834 586.672 647.609 589.882 636.131C592.912 625.286 585.812 622.003 588.192 609.79C591.022 595.247 602.182 594.246 605.062 582.27C608.562 567.698 594.162 560.324 586.932 539.863C577.572 513.393 593.082 501.415 589.532 476.696C583.782 436.576 533.092 399.599 511.402 409.678C490.962 419.182 489.472 473.706 505.992 513.317C523.602 555.543 550.882 554.934 554.852 590.227C557.592 614.617 546.142 628.913 552.032 666.397C554.022 679.088 557.182 689.176 559.412 695.459Z" fill="#5479F7"/>
<path d="M564.782 711.906C564.212 711.906 563.672 711.582 563.422 711.031C552.862 687.981 557.142 662.75 562.562 630.807C565.402 614.039 568.622 595.034 569.872 574.117C573.342 515.844 524.652 445.327 524.162 444.622C523.692 443.942 523.852 443.008 524.532 442.533C525.212 442.061 526.152 442.226 526.622 442.905C527.122 443.619 576.402 514.993 572.872 574.295C571.612 595.375 568.372 614.465 565.522 631.308C560.182 662.743 555.972 687.572 566.142 709.781C566.492 710.535 566.162 711.425 565.412 711.769C565.202 711.862 564.992 711.906 564.782 711.906Z" fill="#99B9FF"/>
<path d="M546.471 699.736C544.111 688.573 541.631 672.127 542.461 652.291C543.811 619.957 552.782 606.195 543.762 594.111C533.822 580.791 517.081 589.71 505.221 573.864C497.141 563.061 501.191 553.931 490.091 543.764C487.971 541.826 481.092 535.686 471.372 534.933C462.352 534.235 459.172 538.813 447.662 542.826C426.822 550.098 417.532 541.954 409.872 549.602C403.082 556.373 401.732 571.372 408.202 579.644C420.392 595.225 452.621 577.081 464.721 591.858C475.051 604.477 457.242 624.683 468.552 638.749C478.732 651.422 499.121 642.411 507.481 655.676C513.871 665.818 504.921 675.807 510.841 686.38C517.021 697.407 534.021 699.519 546.471 699.736Z" fill="white"/>
<path d="M554.232 711.426C553.912 711.426 553.582 711.323 553.312 711.112C542.662 702.881 539.002 689.244 533.442 668.602C529.262 653.052 524.062 633.698 514.002 609.997C491.472 556.926 430.032 563.026 429.422 563.093C428.592 563.181 427.852 562.589 427.762 561.766C427.672 560.941 428.272 560.201 429.092 560.11C429.742 560.039 445.312 558.412 464.002 563.543C481.322 568.296 504.532 580.011 516.762 608.825C526.902 632.718 532.142 652.183 536.342 667.823C541.732 687.877 545.302 701.125 555.152 708.739C555.802 709.246 555.922 710.187 555.412 710.844C555.122 711.226 554.682 711.426 554.232 711.426Z" fill="#99B9FF"/>
<path d="M515.382 709.604C517.122 710.383 607.012 709.604 607.012 709.604L595.792 801.336C595.492 803.813 594.952 806.266 594.042 808.591C589.622 819.853 578.692 827.534 566.242 827.534C552.322 827.534 540.252 817.92 537.142 804.355L515.382 709.604Z" fill="#99B9FF"/>
<path d="M652.427 764.105L652.597 801.803L679.057 800.102L676.337 763.995L652.427 764.105Z" fill="white"/>
<path d="M677.447 798.702L654.087 800.204L653.927 765.598L674.947 765.502L677.447 798.702ZM651.107 803.401L680.667 801.501L677.727 762.488L650.917 762.611L651.107 803.401Z" fill="black"/>
<path d="M653.277 791.862L654.877 793.402C657.927 796.332 662.437 797.141 666.307 795.449L676.197 791.137C677.817 791.085 679.317 792.021 679.987 793.516C682.177 798.431 686.707 809.94 686.507 820.999C686.457 824.019 684.047 826.459 681.047 826.559L636.827 827.959H636.737C632.297 828.099 628.157 827.699 623.467 827.239L615.417 826.109C613.647 825.859 611.907 825.339 610.347 824.479C608.017 823.199 607.087 820.709 607.477 818.409C608.097 814.729 610.697 813.209 619.037 809.813C631.857 804.595 645.517 794.959 650.177 792.643C651.147 792.162 652.197 791.897 653.277 791.862Z" fill="white"/>
<path d="M676.497 792.641C677.417 792.704 678.237 793.268 678.617 794.128C680.607 798.572 685.197 810.087 685.007 820.969C684.977 823.189 683.217 824.989 681.007 825.059L636.777 826.459C632.267 826.589 628.067 826.189 623.617 825.749L615.627 824.619C613.917 824.379 612.387 823.889 611.067 823.169C609.467 822.289 608.637 820.519 608.957 818.659C609.427 815.869 611.217 814.619 619.607 811.199C628.527 807.568 637.997 801.738 644.257 797.88C647.157 796.092 649.457 794.68 650.847 793.985C651.447 793.69 652.077 793.497 652.727 793.41L653.837 794.483C657.337 797.845 662.467 798.765 666.907 796.824L676.497 792.641ZM634.917 829.489C635.527 829.489 636.157 829.479 636.777 829.459L681.097 828.059C684.907 827.939 687.947 824.849 688.007 821.029C688.207 809.537 683.427 797.532 681.357 792.903C680.437 790.848 678.417 789.549 676.147 789.638L675.857 789.647L665.717 794.074C662.387 795.528 658.537 794.84 655.917 792.321L653.867 790.343L653.227 790.363C651.927 790.404 650.677 790.72 649.517 791.3C647.997 792.054 645.647 793.498 642.687 795.326C636.137 799.359 627.167 804.884 618.477 808.423C610.027 811.859 606.767 813.589 605.997 818.159C605.467 821.289 606.887 824.289 609.617 825.789C611.257 826.689 613.137 827.299 615.207 827.589L623.257 828.729C627.247 829.119 630.987 829.489 634.917 829.489Z" fill="black"/>
<path d="M645.297 808.72C645.617 808.72 645.937 808.621 646.207 808.416C646.867 807.916 646.997 806.976 646.497 806.315L641.237 799.368C640.737 798.708 639.797 798.578 639.137 799.077C638.477 799.577 638.347 800.518 638.847 801.179L644.107 808.125C644.397 808.515 644.847 808.72 645.297 808.72Z" fill="black"/>
<path d="M636.627 814.269C636.917 814.269 637.208 814.179 637.468 814.009C638.158 813.539 638.327 812.609 637.867 811.919L632.478 804.005C632.018 803.321 631.087 803.143 630.397 803.608C629.717 804.074 629.537 805.007 629.997 805.692L635.387 813.609C635.677 814.039 636.147 814.269 636.627 814.269Z" fill="black"/>
<path d="M639.287 821.479C648.467 821.479 678.317 819.849 679.667 819.769C680.497 819.729 681.127 819.019 681.077 818.189C681.037 817.369 680.317 816.739 679.507 816.779C679.157 816.799 644.447 818.699 637.877 818.459C631.307 818.219 619.117 816.709 618.987 816.699C618.177 816.589 617.417 817.179 617.317 817.999C617.217 818.819 617.797 819.569 618.617 819.669C619.127 819.739 631.067 821.219 637.767 821.459C638.177 821.469 638.687 821.479 639.287 821.479Z" fill="black"/>
<path d="M781.727 764.289L793.207 793.109L813.877 787.162L801.507 755.97L781.727 764.289Z" fill="white"/>
<path d="M811.867 786.178L794.097 791.292L783.667 765.102L800.677 757.946L811.867 786.178ZM792.317 794.927L815.877 788.147L802.337 753.993L779.797 763.477L792.317 794.927Z" fill="black"/>
<path d="M791.298 786.095L811.908 779.566C813.378 779.104 814.968 779.563 815.958 780.739C819.188 784.606 826.208 793.817 828.828 803.832C829.538 806.568 827.968 809.387 825.278 810.24L795.978 819.519C789.538 821.549 782.908 822.889 776.178 823.499C776.178 823.499 754.798 825.759 754.278 818.879C753.418 807.342 768.508 807.008 770.468 805.005C777.958 797.338 785.808 790.181 788.688 787.585C789.438 786.906 790.328 786.401 791.298 786.095Z" fill="white"/>
<path d="M813.057 780.888C813.727 780.888 814.367 781.176 814.807 781.701C817.727 785.191 824.797 794.372 827.367 804.211C827.887 806.174 826.767 808.193 824.817 808.81L795.527 818.088C789.207 820.088 782.647 821.408 776.047 821.998C771.777 822.448 760.007 822.978 756.537 820.078C755.907 819.548 755.797 819.078 755.777 818.758C755.267 811.978 760.917 809.744 767.247 807.882C769.357 807.26 770.757 806.85 771.537 806.053C778.957 798.459 786.707 791.387 789.687 788.698C790.287 788.163 790.977 787.768 791.747 787.523L812.367 780.995C812.597 780.923 812.827 780.888 813.057 780.888ZM768.747 825.368C772.487 825.368 775.617 825.058 776.337 824.988C783.137 824.368 789.907 823.008 796.427 820.948L825.727 811.668C829.197 810.568 831.197 806.961 830.277 803.451C827.547 793.025 820.157 783.421 817.107 779.775C815.727 778.13 813.507 777.486 811.457 778.136L790.837 784.664C789.657 785.037 788.597 785.645 787.687 786.469C784.677 789.177 776.877 796.301 769.387 803.955C769.077 804.217 767.597 804.653 766.397 805.004C761.387 806.478 752.057 809.221 752.787 818.988C752.887 820.288 753.517 821.468 754.617 822.388C757.527 824.808 763.697 825.368 768.747 825.368Z" fill="black"/>
<path d="M788.838 804.197C789.278 804.197 789.717 804.002 790.017 803.63C790.527 802.981 790.427 802.039 789.777 801.523L781.007 794.551C780.357 794.035 779.407 794.144 778.897 794.791C778.377 795.44 778.487 796.383 779.137 796.898L787.907 803.871C788.187 804.091 788.518 804.197 788.838 804.197Z" fill="black"/>
<path d="M780.757 810.053C781.207 810.053 781.647 809.856 781.947 809.478C782.457 808.825 782.337 807.882 781.687 807.372L774.527 801.764C773.867 801.253 772.927 801.367 772.417 802.02C771.907 802.672 772.017 803.615 772.677 804.125L779.837 809.733C780.107 809.948 780.437 810.053 780.757 810.053Z" fill="black"/>
<path d="M764.627 818.329C769.597 818.329 779.057 817.609 783.197 816.859C788.137 815.959 821.007 803.592 822.407 803.065C823.187 802.773 823.577 801.908 823.287 801.134C822.987 800.358 822.127 799.964 821.347 800.259C809.607 804.683 786.397 813.229 782.657 813.909C777.807 814.789 766.217 815.519 762.867 815.279C762.047 815.209 761.327 815.839 761.267 816.669C761.207 817.489 761.827 818.209 762.657 818.269C763.177 818.309 763.847 818.329 764.627 818.329Z" fill="black"/>
<path d="M734.377 451.699C734.377 451.699 748.807 480.576 753.657 510.996C758.297 540.053 799.727 723.082 807.227 755.652C807.717 757.803 806.717 760.012 804.767 761.042C799.837 763.643 790.237 768.174 781.867 768.904C779.637 769.099 777.487 768.039 776.347 766.11C765.407 747.597 704.517 641.81 686.697 550.051C667.087 449.096 671.027 456.962 671.027 456.962L734.377 451.699Z" fill="#5479F7"/>
<path d="M714.257 464.915C714.257 464.915 722.667 519.788 706.757 560.385C691.447 599.422 677.028 724.992 682.728 769.206C683.088 771.987 681.157 774.53 678.387 774.92C671.417 775.898 658.867 777.226 650.277 775.621C648.697 775.325 647.438 774.166 647.038 772.607C641.368 750.175 599.007 574.866 632.158 470.955L714.257 464.915Z" fill="#5479F7"/>
<path d="M696.467 610.466C697.207 610.466 697.847 609.914 697.947 609.157C697.977 608.936 700.907 586.761 710.167 565.097C719.087 544.236 717.497 518.177 717.417 517.078C717.367 516.251 716.657 515.628 715.827 515.679C714.997 515.733 714.377 516.447 714.427 517.273C714.447 517.536 716.037 543.729 707.407 563.917C697.977 585.979 695.007 608.55 694.977 608.775C694.867 609.597 695.447 610.348 696.267 610.453C696.337 610.462 696.397 610.466 696.467 610.466Z" fill="#CADDFF"/>
<path d="M575.387 290.946C575.387 290.946 553.247 287.119 537.787 286.273C522.327 285.426 497.277 233.617 496.757 227.364C496.757 227.364 496.347 226.079 496.827 224.57C498.327 219.901 501.847 210.064 499.387 204.888C495.257 196.22 487.517 197.491 487.517 197.491C487.517 197.491 485.377 189.753 480.347 191.517C476.477 192.871 472.227 196.667 471.447 203.715C470.397 213.322 470.237 222.67 479.297 230.061C481.057 231.496 482.287 233.469 482.747 235.69C485.627 249.444 496.487 296.706 512.147 308.261C530.527 321.826 580.007 338.113 580.007 338.113L575.387 290.946Z" fill="white"/>
<path d="M574.006 292.233L578.286 335.951C568.526 332.628 528.826 318.707 513.036 307.054C497.856 295.854 487.136 249.364 484.216 235.383C483.686 232.862 482.276 230.56 480.236 228.898C471.726 221.951 471.926 213.1 472.946 203.878C473.806 195.986 479.206 193.505 480.836 192.933C481.596 192.665 482.246 192.698 482.886 193.031C484.646 193.951 485.806 196.922 486.066 197.89C486.276 198.629 487.006 199.092 487.756 198.971C488.026 198.926 494.456 198.043 498.026 205.533C500.056 209.795 497.256 218.398 495.756 223.019L495.406 224.113C494.886 225.734 495.156 227.146 495.276 227.646C496.206 235.12 521.286 286.871 537.706 287.771C550.926 288.494 569.306 291.453 574.006 292.233ZM580.006 339.613C580.346 339.613 580.676 339.5 580.946 339.284C581.346 338.967 581.546 338.472 581.496 337.967L576.876 290.799C576.816 290.127 576.306 289.582 575.646 289.467C575.416 289.429 553.236 285.616 537.866 284.774C523.556 283.991 498.786 233.673 498.256 227.239C498.246 227.126 498.226 227.014 498.186 226.905C498.186 226.905 497.936 226.025 498.256 225.028L498.606 223.947C500.356 218.575 503.286 209.585 500.736 204.242C497.536 197.528 491.996 195.861 488.566 195.905C487.946 194.312 486.606 191.595 484.276 190.374C482.906 189.658 481.376 189.565 479.846 190.101C477.796 190.82 471.016 193.916 469.956 203.552C468.896 213.226 468.676 223.33 478.346 231.223C479.846 232.451 480.896 234.147 481.276 235.996C484.256 250.241 495.226 297.637 511.256 309.468C529.616 323.02 577.506 338.87 579.536 339.538C579.696 339.589 579.846 339.613 580.006 339.613Z" fill="black"/>
<path d="M506.957 250.444C500.037 238.114 496.007 226.501 496.757 227.364C496.757 227.364 496.847 216.732 491.337 208.817C487.967 203.965 487.537 185.706 477.957 192.542C475.887 194.013 474.477 194.891 472.957 197.623C472.127 199.118 470.647 202.954 470.437 204.931C469.377 214.548 470.237 222.688 479.317 230.083C481.067 231.507 482.287 233.48 482.747 235.687C483.047 237.102 484.527 243.818 484.987 245.866L506.957 250.444Z" fill="white"/>
<path d="M496.757 227.364C496.757 227.364 494.597 215.668 491.337 208.817C488.807 203.481 487.537 185.706 477.957 192.542C475.887 194.013 474.477 194.891 472.957 197.623C472.127 199.118 470.647 202.954 470.437 204.931C469.377 214.548 470.237 222.688 479.317 230.083C481.067 231.507 482.287 233.48 482.747 235.687C483.017 236.974 496.797 227.787 496.757 227.364Z" fill="white"/>
<path d="M507.326 252.686C507.576 252.686 507.826 252.624 508.056 252.493C508.776 252.088 509.036 251.173 508.636 250.451C502.706 239.904 498.846 229.771 498.246 227.583C498.256 227.515 498.256 227.445 498.256 227.375C498.266 226.922 498.276 216.173 492.576 207.96C491.726 206.742 491.016 204.268 490.266 201.648C488.796 196.482 487.266 191.139 483.476 189.814C481.566 189.149 479.416 189.654 477.076 191.32L476.666 191.612C474.746 192.974 473.236 194.05 471.646 196.894C470.726 198.552 469.186 202.589 468.946 204.768C467.806 215.127 468.976 223.594 478.376 231.246C479.856 232.457 480.896 234.144 481.276 235.994C481.576 237.406 483.326 245.421 483.776 247.429C483.956 248.237 484.756 248.744 485.576 248.564C486.376 248.381 486.886 247.578 486.706 246.771C486.256 244.769 484.506 236.785 484.216 235.38C483.686 232.858 482.286 230.564 480.266 228.92C471.896 222.101 470.866 214.747 471.926 205.094C472.116 203.385 473.496 199.737 474.266 198.353C475.526 196.104 476.606 195.334 478.406 194.06L478.826 193.764C480.316 192.694 481.556 192.319 482.486 192.646C484.806 193.457 486.236 198.456 487.386 202.473C488.206 205.339 488.976 208.046 490.106 209.673C494.526 216.025 495.156 224.395 495.246 226.727C494.956 227.519 495.446 229.333 498.016 235.487C499.366 238.708 502.196 245.126 506.016 251.92C506.296 252.41 506.796 252.686 507.326 252.686Z" fill="black"/>
<path d="M761.847 315.593C770.397 324.711 811.687 367.394 807.837 456.452C807.797 457.562 807.797 458.673 808.297 459.666C810.817 464.658 818.397 481.058 814.507 490.505C810.007 501.433 795.987 524.795 796.077 489.598C796.087 488.763 794.987 488.452 794.547 489.164C792.857 491.932 790.207 495.714 788.767 495.02C785.407 493.395 791.837 475.251 790.477 464.404C779.217 374.888 739.037 356.317 727.957 347.847C727.957 347.847 760.917 314.602 761.847 315.593Z" fill="white"/>
<path d="M760.747 316.62L760.757 316.627C760.757 316.624 760.747 316.622 760.747 316.62ZM761.537 317.461C801.657 360.487 808.057 416.722 806.337 456.387C806.287 457.602 806.287 459.01 806.957 460.341C809.327 465.039 816.777 481.057 813.117 489.934C809.287 499.243 803.477 507.278 800.917 506.752C800.357 506.64 797.537 505.283 797.577 489.602C797.587 488.547 796.907 487.646 795.887 487.357C794.877 487.073 793.827 487.481 793.267 488.38C791.157 491.82 789.927 493.013 789.387 493.415C788.947 491.824 789.807 486.659 790.457 482.802C791.487 476.649 792.647 469.677 791.967 464.216C781.707 382.68 747.417 359.358 732.777 349.4C731.857 348.773 731.007 348.196 730.257 347.665C741.137 336.707 757.517 320.57 761.537 317.461ZM801.117 509.772C808.107 509.772 815.567 491.866 815.887 491.076C819.917 481.297 812.857 465.38 809.637 458.99C809.297 458.304 809.297 457.392 809.337 456.516C811.087 416.131 804.507 358.787 763.287 314.94L762.497 314.103L761.807 314.072C760.997 314.086 759.347 314.054 726.897 346.791L725.697 348.002L727.047 349.038C728.157 349.882 729.517 350.809 731.087 351.881C745.397 361.611 778.907 384.398 788.987 464.591C789.617 469.615 788.487 476.358 787.497 482.308C786.167 490.249 785.367 495.042 788.117 496.371C789.897 497.232 791.887 495.876 794.597 491.867C794.777 503.271 796.617 508.953 800.337 509.694C800.597 509.746 800.857 509.772 801.117 509.772Z" fill="black"/>
<path d="M743.807 369.741C742.617 368.556 741.537 367.624 740.627 366.902C739.187 365.768 737.057 366.616 736.767 368.425C734.847 380.249 730.307 412.825 745.277 470.258C751.247 493.196 632.757 503.174 627.607 476.335C624.827 461.848 629.907 467.022 628.447 434.905C627.487 413.838 623.567 396.98 611.407 372.65C611.367 372.582 611.337 372.517 611.317 372.445C610.777 371.056 604.227 355.146 582.027 346.899C581.527 346.712 581.097 346.37 580.817 345.912C578.187 341.643 564.797 318.454 564.297 288.01C564.277 286.946 564.967 285.996 565.977 285.676C572.627 283.578 597.317 276.175 614.567 276.223C634.657 276.277 626.207 279.546 640.947 276.915C642.997 276.55 649.497 272.964 650.977 272.189C660.097 267.403 676.957 279.101 695.297 274.775C697.447 274.269 699.687 274.542 701.687 275.466C706.607 277.741 716.487 281.794 726.567 282.946C740.147 284.499 768.487 297.689 783.617 329.254C784.217 330.505 754.837 361.53 747.287 369.683C746.357 370.688 744.777 370.706 743.807 369.741Z" fill="black"/>
<path d="M659.877 273.018L662.967 250.015C663.157 248.461 662.337 246.961 660.917 246.294L652.767 242.454C651.027 241.636 650.047 239.758 650.367 237.864L652.207 227.051C652.417 225.853 652.047 224.629 651.217 223.739L649.217 221.585C648.567 220.88 648.597 219.781 649.287 219.111L656.337 212.266C657.707 210.934 663.337 199.587 665.117 200.291C665.117 200.291 697.957 202.674 702.547 218.44C703.747 222.56 702.517 227.011 699.657 230.211L695.947 234.36C692.117 238.646 689.727 244.115 689.597 249.863C689.557 251.914 689.767 253.979 690.237 256.01L695.657 277.737C685.907 279.085 675.987 278.215 666.627 275.195L659.877 273.018Z" fill="white"/>
<path d="M693.797 276.458C684.847 277.455 675.647 276.53 667.087 273.767L661.527 271.975L664.457 250.215C664.727 247.994 663.567 245.88 661.557 244.937L653.397 241.097C652.277 240.567 651.637 239.342 651.847 238.116L653.687 227.303C653.967 225.656 653.457 223.942 652.317 222.718L650.317 220.564C650.217 220.458 650.227 220.289 650.327 220.188L657.377 213.343C657.967 212.778 658.737 211.492 660.177 209.079C661.437 206.956 664.007 202.641 665.107 201.795C667.127 201.963 696.987 204.699 701.107 218.858C702.117 222.343 701.137 226.309 698.537 229.21L694.827 233.36C690.627 238.063 688.237 243.911 688.097 249.829C688.047 252.02 688.277 254.214 688.777 256.352L693.797 276.458ZM686.757 279.847C689.807 279.847 692.857 279.64 695.867 279.224C696.287 279.165 696.667 278.93 696.897 278.577C697.137 278.225 697.217 277.787 697.117 277.374L691.697 255.648C691.257 253.778 691.057 251.836 691.097 249.898C691.217 244.693 693.337 239.53 697.067 235.36L700.777 231.21C704.057 227.544 705.287 222.49 703.987 218.021C699.287 201.885 668.317 199.04 665.397 198.808C663.367 198.275 661.487 201.018 657.597 207.545C656.727 209.017 655.637 210.848 655.287 211.191L648.237 218.035C646.977 219.264 646.917 221.314 648.117 222.606L650.127 224.76C650.627 225.304 650.857 226.066 650.727 226.799L648.887 237.612C648.457 240.161 649.787 242.71 652.127 243.812L660.277 247.651C661.107 248.042 661.597 248.919 661.477 249.832L658.387 272.817C658.287 273.537 658.717 274.223 659.417 274.445L666.157 276.622C672.787 278.761 679.777 279.847 686.757 279.847Z" fill="black"/>
<path d="M646.877 178.411C647.487 177.002 650.267 169.134 658.307 168.03C669.157 166.539 678.387 177.03 687.237 178.144C723.237 182.675 725.357 202.087 717.147 218.018C713.207 225.644 704.187 232.822 697.877 236.84C694.387 239.056 689.887 238.807 686.667 236.22C685.887 235.587 685.297 235.086 685.187 234.969C684.157 233.927 683.257 232.18 682.387 230.031C681.687 228.267 682.387 226.266 684.017 225.295C689.657 221.949 690.477 215.397 688.647 211.735C687.007 208.477 683.537 209.836 680.687 211.776C678.797 213.064 676.247 212.404 675.187 210.377C673.457 207.077 671.387 204.647 668.717 204.115C657.437 201.874 656.277 201.506 654.447 200.128C647.257 194.72 643.777 185.52 646.877 178.411Z" fill="black"/>
<path d="M102.404 785.323C102.404 785.323 81.1141 792.733 68.6841 789.442C68.6841 789.442 53.2241 802.887 53.4341 809.995L107.504 808.947L102.404 785.323Z" fill="white"/>
<path d="M105.653 807.482L55.1333 808.462C56.5433 803.183 65.0133 794.727 69.0933 791.086C79.9533 793.537 96.1332 788.901 101.283 787.269L105.653 807.482ZM51.9734 811.527L109.363 810.412L103.513 783.349L101.903 783.906C101.703 783.978 80.9032 791.126 69.0732 787.992L68.3032 787.789L67.7034 788.31C66.0634 789.734 51.7133 802.439 51.9333 810.038L51.9734 811.527Z" fill="black"/>
<path d="M79.2148 786.998C79.2148 786.998 65.8749 771.054 59.9749 770.777C54.9949 770.544 15.3449 807.082 2.72485 819.268C0.494853 821.418 1.44481 825.267 4.43481 826.027C11.8548 827.907 28.8449 827.868 66.9749 814.698C68.9649 814.008 70.4148 812.247 70.7048 810.141L72.3447 798.448L64.3447 797.44L79.2148 786.998Z" fill="white"/>
<path d="M70.6543 799.745L69.2244 809.933C69.0044 811.487 67.9541 812.767 66.4841 813.277C27.3441 826.797 11.0442 826.157 4.8042 824.567C3.5842 824.257 3.19423 823.257 3.08423 822.837C2.84423 821.927 3.10417 820.987 3.77417 820.347C21.0742 803.632 55.5543 772.686 59.9443 772.275C63.4643 772.442 71.8441 780.756 77.0041 786.717L63.4841 796.212C62.9741 796.567 62.7343 797.199 62.8843 797.801C63.0343 798.402 63.5343 798.85 64.1543 798.928L70.6543 799.745ZM12.8743 828.407C23.0543 828.407 39.8344 825.657 67.4644 816.107C70.0044 815.237 71.8143 813.027 72.1943 810.35L73.8342 798.655C73.8842 798.258 73.7842 797.854 73.5342 797.536C73.2942 797.217 72.9342 797.009 72.5342 796.959L68.3843 796.436L80.0842 788.225C80.4242 787.984 80.6543 787.61 80.7043 787.194C80.7643 786.777 80.6343 786.357 80.3643 786.035C78.9643 784.351 66.4242 769.577 60.0442 769.279C60.0142 769.278 59.9944 769.277 59.9744 769.277C52.7844 769.277 2.19433 817.697 1.68433 818.187C0.244326 819.577 -0.325674 821.657 0.184326 823.607C0.704326 825.547 2.15421 826.987 4.06421 827.477C6.23421 828.027 9.10427 828.407 12.8743 828.407Z" fill="black"/>
<path d="M40.1541 824.297C40.2941 824.297 40.454 824.277 40.604 824.227C41.394 823.977 41.824 823.137 41.584 822.347L38.1841 811.567C37.9341 810.775 37.094 810.336 36.304 810.585C35.514 810.834 35.074 811.677 35.324 812.467L38.7141 823.247C38.9241 823.887 39.5141 824.297 40.1541 824.297Z" fill="black"/>
<path d="M46.8242 821.407C46.9642 821.407 47.1241 821.377 47.2741 821.337C48.0641 821.087 48.5041 820.247 48.2541 819.457L44.8542 808.672C44.6042 807.883 43.7743 807.442 42.9743 807.692C42.1843 807.941 41.7441 808.783 41.9941 809.574L45.3942 820.357C45.5942 820.997 46.1842 821.407 46.8242 821.407Z" fill="black"/>
<path d="M10.9935 821.627C11.3435 821.627 11.6837 821.517 11.9637 821.267L62.6236 777.964C63.2536 777.425 63.3336 776.478 62.7936 775.848C62.2536 775.219 61.3137 775.143 60.6837 775.682L10.0235 818.987C9.39354 819.527 9.31362 820.477 9.85362 821.107C10.1536 821.447 10.5735 821.627 10.9935 821.627Z" fill="black"/>
<path d="M278.974 818.228C279.024 813.158 279.114 805.134 279.264 794.836L294.354 796.983L306.844 785.511C306.844 785.511 342.694 798.623 360.054 815.198C363.294 818.288 361.654 823.778 357.254 824.448C344.014 826.468 313.354 828.378 285.014 825.138C281.554 824.748 278.944 821.758 278.974 818.228Z" fill="white"/>
<path d="M307.184 787.238C312.694 789.342 343.554 801.521 359.014 816.287C360.144 817.357 360.534 818.877 360.064 820.347C359.614 821.767 358.484 822.747 357.024 822.967C343.644 825.007 313.464 826.877 285.184 823.647C282.474 823.337 280.454 821.017 280.474 818.237C280.524 813.457 280.604 806.037 280.734 796.558L294.144 798.468C294.584 798.528 295.034 798.39 295.374 798.087L307.184 787.238ZM318.024 828.387C334.634 828.387 349.214 827.197 357.484 825.927C360.054 825.537 362.144 823.747 362.924 821.247C363.734 818.697 363.024 815.967 361.094 814.117C343.704 797.512 308.834 784.64 307.364 784.1C306.834 783.912 306.244 784.025 305.834 784.405L293.864 795.397L279.474 793.348C279.044 793.289 278.614 793.413 278.284 793.694C277.954 793.973 277.764 794.382 277.764 794.812C277.614 805.114 277.524 813.137 277.474 818.207C277.434 822.527 280.604 826.147 284.844 826.627C295.984 827.907 307.414 828.387 318.024 828.387Z" fill="black"/>
<path d="M321.454 820.837C331.554 820.837 343.194 820.407 354.374 819.027C355.194 818.927 355.784 818.177 355.674 817.357C355.574 816.527 354.824 815.937 354.004 816.047C325.374 819.597 293.564 816.777 293.254 816.747C292.434 816.667 291.694 817.287 291.624 818.107C291.544 818.937 292.154 819.667 292.974 819.737C293.174 819.757 305.364 820.837 321.454 820.837Z" fill="black"/>
<path d="M328.554 811.477C329.244 811.477 329.874 810.987 330.014 810.28L332.874 796.648C333.044 795.838 332.524 795.042 331.714 794.873C330.904 794.7 330.104 795.221 329.934 796.033L327.084 809.665C326.914 810.475 327.434 811.267 328.244 811.437C328.344 811.467 328.444 811.477 328.554 811.477Z" fill="black"/>
<path d="M321.884 808.58C322.574 808.58 323.194 808.095 323.344 807.388L326.204 793.757C326.374 792.946 325.854 792.15 325.044 791.981C324.234 791.808 323.434 792.33 323.264 793.141L320.414 806.772C320.244 807.583 320.764 808.379 321.574 808.548C321.674 808.57 321.774 808.58 321.884 808.58Z" fill="black"/>
<path d="M171.644 655.038C172.374 654.422 240.334 605.291 258.884 610.567C290.594 619.588 284.414 714.962 283.764 740.184C283.124 764.745 167.834 691.016 164.284 684.553C160.774 678.158 158.614 666.083 171.644 655.038Z" fill="black"/>
<path d="M282.714 733.832C282.814 733.926 282.924 734.018 283.024 734.111C302.904 752.068 311.084 769.931 309.664 792.917C308.274 815.387 276.684 831.437 174.404 819.737C152.894 816.627 109.764 814.147 91.1036 813.557C87.2436 813.427 84.1935 810.198 84.2435 806.286L84.5135 788.489C84.5435 785.982 85.8735 783.683 88.0035 782.411C99.2935 775.684 128.414 758.506 176.394 760.358C177.984 760.42 177.724 758.737 176.164 758.391C149.834 752.536 109.184 749.809 97.8135 740.162C75.8035 721.487 79.8836 688.346 84.6536 668.127C98.5636 609.113 185.404 670.722 186.004 670.87C186.014 670.871 186.004 670.868 186.014 670.872C186.184 670.973 197.764 677.773 213.044 687.112L282.714 733.832Z" fill="black"/>
<path d="M235.104 772.971C235.614 772.971 236.104 772.717 236.384 772.255C236.814 771.549 236.594 770.625 235.894 770.192C235.104 769.709 216.034 758.348 169.524 757.25H169.484C168.674 757.25 168.014 757.898 167.994 758.715C167.974 759.543 168.624 760.23 169.454 760.25C215.164 761.329 234.134 772.637 234.324 772.751C234.564 772.9 234.834 772.971 235.104 772.971Z" fill="white"/>
<path d="M277.024 730.661C277.474 730.661 277.914 730.461 278.214 730.079C278.714 729.424 278.594 728.481 277.944 727.974C277.384 727.545 221.924 684.882 183.114 675.193C182.304 674.994 181.494 675.481 181.294 676.285C181.094 677.089 181.584 677.903 182.384 678.103C220.594 687.641 275.554 729.922 276.104 730.347C276.374 730.558 276.704 730.661 277.024 730.661Z" fill="#CADDFF"/>
<path d="M72.1646 540.982C63.9746 548.216 34.6246 586.177 39.4146 650.107C39.4946 651.083 39.2644 652.055 38.7444 652.881C36.1344 657.031 28.1746 670.724 30.7246 679.331C33.6746 689.287 43.7944 710.953 46.7444 680.139C46.8144 679.409 47.7845 679.232 48.1045 679.893C49.3345 682.464 51.2945 686.004 52.6045 685.522C55.6445 684.392 54.5844 668.158 53.7544 658.578C52.9344 648.999 51.6645 645.214 61.1145 622.048C66.9345 607.782 86.1944 584.18 93.4844 576.827C93.4844 576.827 73.0546 540.195 72.1646 540.982Z" fill="white"/>
<path d="M47.4639 677.982C47.3339 677.982 47.2037 677.993 47.0737 678.017C46.0737 678.193 45.3437 678.988 45.2437 679.996C43.9237 693.879 41.3437 694.525 41.0537 694.554C38.9437 694.73 34.6038 687.151 32.1638 678.904C29.7838 670.888 37.5737 657.569 40.0137 653.679C40.7037 652.584 41.0138 651.31 40.9138 649.995C36.5138 591.304 61.5237 553.446 72.0837 543.104C75.1237 547.463 85.1138 564.915 91.6338 576.583C84.3738 584.185 65.6039 607.062 59.7239 621.481C50.8239 643.288 51.2937 648.333 52.0837 656.692C52.1437 657.34 52.2037 658.008 52.2637 658.706C53.9037 677.789 52.8039 682.613 52.2139 683.819C51.6939 683.277 50.7439 681.935 49.4539 679.246C49.0739 678.458 48.3139 677.982 47.4639 677.982ZM41.0037 697.555C41.1137 697.555 41.2338 697.551 41.3438 697.539C44.7137 697.213 46.7839 692.663 47.9539 682.882C49.8839 686.314 51.4738 687.539 53.1238 686.929C55.2638 686.133 57.3837 683.21 55.2537 658.449C55.1937 657.743 55.1237 657.067 55.0637 656.413C54.3037 648.241 53.8837 643.74 62.5037 622.614C68.0637 608.979 86.5937 585.913 94.5537 577.883L95.3438 577.082L94.7937 576.096C74.5737 539.853 73.3039 539.636 72.4639 539.491L71.7537 539.371L71.1638 539.857C61.0638 548.786 33.2738 588.226 37.9238 650.22C37.9738 650.89 37.8139 651.535 37.4739 652.083C34.1239 657.415 26.6237 670.786 29.2837 679.758C29.5037 680.497 34.6437 697.555 41.0037 697.555Z" fill="black"/>
<path d="M257.714 526.993C257.714 526.993 287.704 536.947 300.044 535.692C317.404 533.926 336.604 480.402 337.934 476.721C339.274 473.041 343.884 453.344 348.384 446.712C352.614 440.479 355.654 433.881 357.354 429.797C358.374 427.335 360.304 426.385 361.974 426.935C363.434 427.42 365.994 429.744 364.524 433.425C362.814 437.681 361.224 441.982 359.794 445.629C359.354 446.777 358.694 447.821 359.654 447.115C361.904 445.47 364.744 443.958 366.604 445.013C370.084 446.995 371.954 460.301 366.334 469.643C360.704 478.986 354.524 476.792 352.654 481.322C350.774 485.852 335.214 544.686 328.824 554.862C319.634 569.495 255.404 571.074 245.764 570.791C236.114 570.508 257.714 526.993 257.714 526.993Z" fill="white"/>
<path d="M365.184 446.17C365.464 446.17 365.694 446.223 365.854 446.317C366.354 446.599 367.134 447.717 367.714 449.934C368.994 454.803 368.694 462.805 365.044 468.87C362.044 473.851 359.034 475.221 356.364 476.429C354.274 477.381 352.284 478.28 351.264 480.749C350.694 482.134 349.114 487.62 346.714 495.927C341.204 515.03 331.994 547.005 327.554 554.063C319.404 567.045 260.814 569.724 245.804 569.292C245.424 569.28 245.284 569.162 245.164 568.948C242.734 564.908 251.314 543.469 258.484 528.822C264.374 530.714 288.974 538.318 300.194 537.183C316.954 535.479 334.354 491.001 339.284 477.409L339.344 477.234C339.704 476.242 340.244 474.323 340.984 471.667C343.014 464.421 346.414 452.293 349.624 447.554C353.814 441.386 356.894 434.806 358.734 430.373C359.374 428.833 360.494 428.025 361.504 428.359C361.944 428.505 362.754 429.057 363.184 429.984C363.574 430.829 363.554 431.8 363.134 432.867C362.054 435.546 361.024 438.24 360.054 440.78C359.484 442.281 358.934 443.728 358.404 445.084C358.304 445.332 358.194 445.573 358.104 445.791C357.744 446.597 357.254 447.703 358.244 448.499C358.694 448.859 359.454 449.123 360.544 448.324C362.724 446.732 364.264 446.17 365.184 446.17ZM246.174 572.292C252.444 572.292 320.004 571.732 330.094 555.659C334.754 548.242 343.684 517.26 349.604 496.758C351.794 489.141 353.524 483.126 354.034 481.896C354.584 480.581 355.584 480.08 357.604 479.16C360.364 477.91 364.134 476.198 367.614 470.417C371.734 463.57 372.094 454.815 370.624 449.176C370.114 447.247 369.134 444.732 367.344 443.71C365.944 442.912 364.174 442.99 362.064 443.931C362.324 443.253 362.584 442.558 362.864 441.851C363.824 439.326 364.854 436.645 365.914 433.982C366.844 431.657 366.424 429.837 365.904 428.719C365.064 426.919 363.514 425.866 362.444 425.512C359.894 424.663 357.224 426.192 355.964 429.221C354.174 433.525 351.184 439.909 347.144 445.87C343.654 451.013 340.314 462.956 338.104 470.858C337.404 473.353 336.854 475.323 336.524 476.209L336.464 476.386C327.064 502.296 311.844 532.983 299.894 534.199C288.014 535.402 258.484 525.669 258.184 525.57L256.944 525.16L256.364 526.327C253.324 532.463 238.344 563.428 242.584 570.492C243.264 571.612 244.374 572.251 245.714 572.29C245.744 572.291 245.904 572.292 246.174 572.292Z" fill="black"/>
<path d="M91.1243 586.096C92.4843 585.078 96.0842 582.044 97.0942 581.456C98.6742 580.54 100.644 581.685 100.664 583.527C100.814 595.544 100.654 630.206 94.6243 641.863C92.0943 646.772 89.6742 650.57 87.8242 655.095C84.6142 662.948 84.2742 664.92 85.0942 666.995C85.9242 669.1 92.6443 671.025 95.3843 672.094C120.504 681.87 170.294 692.271 176.864 664.211C180.594 648.277 183.244 637.013 194.794 616.245C197.834 610.784 204.054 612.471 212.924 603.991C218.074 599.074 218.124 594.377 220.184 587.058C221.634 581.894 222.824 580.989 245.934 576.05C246.454 575.937 269.324 525.397 269.324 525.397C269.324 525.397 207.574 499.911 177.614 496.056C113.534 487.812 84.6643 516.629 65.1643 545.797C64.3943 546.951 90.0543 586.899 91.1243 586.096Z" fill="#5479F7"/>
<path d="M110.784 633.144C111.284 633.144 111.784 632.886 112.064 632.418C118.584 621.577 126.374 606.416 128.744 585.225C132.524 551.424 150.674 526.321 150.854 526.072C151.344 525.403 151.205 524.465 150.535 523.975C149.865 523.487 148.924 523.63 148.434 524.299C148.254 524.555 129.634 550.305 125.764 584.891C123.454 605.506 115.854 620.292 109.494 630.871C109.074 631.581 109.294 632.503 110.004 632.93C110.254 633.075 110.514 633.144 110.784 633.144Z" fill="white"/>
<path d="M182.183 408.747C184.843 409.481 187.254 411.131 188.894 413.61C191.664 417.793 191.403 423.084 188.673 426.947C190.773 428.735 192.264 431.25 192.704 434.19C193.444 439.15 190.974 443.838 186.874 446.185C188.014 448.692 188.304 451.602 187.454 454.451C186.034 459.258 181.814 462.466 177.104 462.858C177.084 465.613 176.114 468.372 174.144 470.596C172.484 472.463 170.374 473.677 168.124 474.23C167.794 474.564 167.444 474.886 167.074 475.185C163.144 478.304 157.854 478.513 153.764 476.132C152.164 478.376 149.794 480.08 146.904 480.772C142.024 481.94 137.144 479.893 134.444 476.008C132.044 477.366 129.174 477.907 126.264 477.313C121.344 476.309 117.784 472.39 116.984 467.729C114.234 467.947 111.403 467.223 109.013 465.453C104.983 462.468 103.414 457.41 104.654 452.847C102.074 451.884 99.8136 450.03 98.3936 447.418C96.0036 443.009 96.7235 437.761 99.7735 434.15C97.8435 432.187 96.5736 429.551 96.3936 426.584C96.0936 421.579 98.9534 417.123 103.253 415.142C102.333 412.546 102.294 409.622 103.394 406.858C105.234 402.193 109.703 399.365 114.433 399.385C114.703 396.642 115.903 393.978 118.063 391.934C121.703 388.484 126.954 387.814 131.234 389.831C132.634 387.456 134.854 385.551 137.664 384.61C142.424 383.022 147.474 384.634 150.494 388.27C152.764 386.708 155.584 385.919 158.534 386.257C163.514 386.828 167.404 390.422 168.614 394.996C171.324 394.539 174.214 395.013 176.744 396.568C181.024 399.191 183.023 404.093 182.183 408.747Z" fill="black"/>
<path d="M183.324 436.962C184.694 436.119 186.484 436.759 186.994 438.273C187.284 439.102 187.564 439.93 187.774 440.497C188.304 441.995 189.414 447.007 194.004 451.971C194.444 452.446 194.454 453.177 194.034 453.674C193.094 454.796 191.524 456.675 190.834 457.501C190.614 457.765 190.514 458.104 190.554 458.445C190.834 460.558 191.844 468.315 191.794 469.796C191.744 471.513 190.614 473.183 190.004 473.638C188.394 474.841 180.694 474.938 180.694 474.938C180.694 474.938 178.694 475.416 176.234 486.817C174.504 494.838 186.484 503.174 186.484 503.174C186.484 503.174 159.584 514.026 136.944 504.59C135.544 504.006 135.464 501.998 136.684 501.083C141.484 497.468 151.834 488.667 155.974 477.208C156.224 476.527 156.734 475.969 157.404 475.682C160.144 474.515 167.634 472.388 166.294 459.763C166.254 459.446 166.144 459.143 165.954 458.884C164.374 456.697 157.104 445.823 169.564 447.346C177.774 448.35 180.284 442.334 180.994 439.575C181.224 438.675 181.814 437.901 182.614 437.406L183.324 436.962Z" fill="white"/>
<path d="M183.404 502.674C176.274 505.012 155.374 510.645 137.524 503.206C137.484 503.189 137.364 503.139 137.334 502.909C137.314 502.71 137.374 502.438 137.584 502.282C142.094 498.888 153.054 489.702 157.384 477.72C157.494 477.415 157.714 477.181 157.994 477.061C158.164 476.991 158.344 476.916 158.544 476.836C161.724 475.554 169.154 472.552 167.784 459.604C167.724 459.027 167.504 458.476 167.174 458.008C164.604 454.453 163.364 451.05 164.144 449.73C164.684 448.82 166.584 448.493 169.384 448.835C179.064 450.022 181.834 442.333 182.444 439.949C182.574 439.439 182.924 438.977 183.404 438.681L184.114 438.237C184.474 438.017 184.804 438.085 184.974 438.146C185.144 438.206 185.444 438.365 185.574 438.76C185.864 439.596 186.154 440.43 186.354 441.002C186.424 441.18 186.494 441.413 186.584 441.692C187.254 443.852 188.644 448.323 192.774 452.846L189.684 456.539C189.194 457.122 188.974 457.888 189.074 458.641C189.704 463.432 190.334 468.723 190.304 469.746C190.254 470.984 189.374 472.229 189.104 472.437C188.414 472.921 184.464 473.389 180.674 473.438C180.564 473.44 180.454 473.454 180.344 473.479C178.404 473.942 176.524 478.323 174.764 486.501C173.334 493.148 179.814 499.657 183.404 502.674ZM157.924 509.976C173.374 509.977 186.264 504.877 187.044 504.564C187.554 504.359 187.904 503.889 187.974 503.343C188.034 502.796 187.784 502.259 187.334 501.943C184.234 499.778 176.464 492.897 177.704 487.132C179.374 479.369 180.764 477.04 181.244 476.43C183.944 476.373 189.214 476.099 190.904 474.842C191.824 474.155 193.224 472.093 193.294 469.846C193.344 468.306 192.464 461.406 192.064 458.371L195.194 454.637C196.094 453.56 196.054 451.976 195.104 450.951C191.334 446.878 190.054 442.773 189.444 440.801C189.344 440.474 189.254 440.203 189.184 439.995C188.984 439.431 188.694 438.609 188.414 437.787C188.024 436.631 187.134 435.732 185.984 435.321C184.834 434.909 183.574 435.044 182.534 435.686L181.824 436.131C180.674 436.841 179.864 437.93 179.534 439.2C178.804 442.045 176.564 446.694 169.744 445.856C165.534 445.343 162.784 446.134 161.564 448.204C159.534 451.623 162.684 456.913 164.734 459.762C164.774 459.809 164.794 459.866 164.804 459.924C165.934 470.618 160.394 472.852 157.424 474.054C157.204 474.141 157.004 474.223 156.814 474.302C155.774 474.745 154.954 475.619 154.564 476.699C150.504 487.924 140.074 496.653 135.784 499.886C134.734 500.67 134.194 501.971 134.354 503.283C134.514 504.507 135.264 505.513 136.364 505.974C143.484 508.943 150.964 509.976 157.924 509.976Z" fill="black"/>
<path d="M168.854 461.436C169.174 461.436 169.463 461.409 169.713 461.371C171.543 461.087 173.354 459.844 173.664 458.656C173.874 457.855 173.394 457.036 172.594 456.827C171.884 456.64 171.154 457.002 170.854 457.65C170.624 457.886 169.724 458.485 168.724 458.434C167.804 458.388 166.974 457.787 166.264 456.651C165.824 455.951 164.893 455.739 164.193 456.182C163.493 456.624 163.284 457.551 163.724 458.251C165.384 460.878 167.424 461.436 168.854 461.436Z" fill="black"/>
<path d="M173.074 464.081C172.824 462.958 171.724 462.249 170.614 462.497C169.504 462.746 168.804 463.858 169.054 464.981C169.294 466.104 170.394 466.812 171.504 466.564C172.614 466.315 173.314 465.203 173.074 464.081Z" fill="#5479F7"/>
<path d="M763 115.122C763 110.084 767.08 106 772.12 106C777.16 106 781.24 110.084 781.24 115.122C781.24 120.16 777.16 124.244 772.12 124.244C767.08 124.244 763 120.16 763 115.122Z" fill="white"/>
<path d="M771.62 107C767.42 107 764 110.42 764 114.623C764 118.826 767.42 122.245 771.62 122.245C775.82 122.245 779.24 118.826 779.24 114.623C779.24 110.42 775.82 107 771.62 107ZM771.62 125.245C765.76 125.245 761 120.481 761 114.623C761 108.766 765.76 104 771.62 104C777.48 104 782.24 108.766 782.24 114.623C782.24 120.481 777.48 125.245 771.62 125.245Z" fill="black"/>
<path d="M53.3426 64.8405C52.9526 64.8405 52.5726 64.6935 52.2826 64.4005L48.4425 60.5605C47.8525 59.9745 47.8525 59.0255 48.4425 58.4395C49.0225 57.8535 49.9726 57.8535 50.5626 58.4395L54.4025 62.2795C54.9825 62.8655 54.9825 63.8145 54.4025 64.4005C54.1125 64.6935 53.7226 64.8405 53.3426 64.8405Z" fill="black"/>
<path d="M65.4723 76.9723C65.0923 76.9723 64.7022 76.8263 64.4122 76.5333L60.5724 72.6933C59.9824 72.1073 59.9824 71.1583 60.5724 70.5723C61.1624 69.9863 62.1123 69.9863 62.6923 70.5723L66.5323 74.4123C67.1223 74.9983 67.1223 75.9473 66.5323 76.5333C66.2423 76.8263 65.8523 76.9723 65.4723 76.9723Z" fill="black"/>
<path d="M49.5026 76.9723C49.1126 76.9723 48.7325 76.8263 48.4425 76.5333C47.8525 75.9473 47.8525 74.9983 48.4425 74.4123L52.2826 70.5723C52.8626 69.9863 53.8125 69.9863 54.4025 70.5723C54.9825 71.1583 54.9825 72.1073 54.4025 72.6933L50.5626 76.5333C50.2726 76.8263 49.8826 76.9723 49.5026 76.9723Z" fill="black"/>
<path d="M61.6324 64.8405C61.2524 64.8405 60.8624 64.6935 60.5724 64.4005C59.9824 63.8145 59.9824 62.8655 60.5724 62.2795L64.4122 58.4395C65.0022 57.8535 65.9423 57.8535 66.5323 58.4395C67.1223 59.0255 67.1223 59.9745 66.5323 60.5605L62.6923 64.4005C62.4023 64.6935 62.0124 64.8405 61.6324 64.8405Z" fill="black"/>
<path d="M342.343 720.841C341.953 720.841 341.573 720.693 341.283 720.4L337.442 716.561C336.853 715.975 336.853 715.026 337.442 714.44C338.022 713.854 338.973 713.854 339.563 714.44L343.402 718.279C343.982 718.865 343.982 719.814 343.402 720.4C343.112 720.693 342.723 720.841 342.343 720.841Z" fill="black"/>
<path d="M354.472 732.972C354.092 732.972 353.702 732.826 353.412 732.533L349.572 728.693C348.982 728.107 348.982 727.158 349.572 726.572C350.162 725.986 351.112 725.986 351.692 726.572L355.532 730.412C356.122 730.998 356.122 731.947 355.532 732.533C355.242 732.826 354.852 732.972 354.472 732.972Z" fill="black"/>
<path d="M338.503 732.972C338.113 732.972 337.732 732.826 337.442 732.533C336.853 731.947 336.853 730.998 337.442 730.412L341.283 726.572C341.863 725.986 342.812 725.986 343.402 726.572C343.982 727.158 343.982 728.107 343.402 728.693L339.563 732.533C339.273 732.826 338.883 732.972 338.503 732.972Z" fill="black"/>
<path d="M350.632 720.841C350.252 720.841 349.862 720.693 349.572 720.4C348.982 719.814 348.982 718.865 349.572 718.279L353.412 714.44C354.002 713.854 354.942 713.854 355.532 714.44C356.122 715.026 356.122 715.975 355.532 716.561L351.692 720.4C351.402 720.693 351.012 720.841 350.632 720.841Z" fill="black"/>
</svg>
