<svg width="868" height="764" viewBox="0 0 868 764" fill="none" xmlns="http://www.w3.org/2000/svg">
<path d="M217.945 71.6296C212.19 74.6164 207.221 78.6321 201.759 82.0119C155.654 110.519 -19.1316 213.516 1.71938 442.569C24.5 806 183.351 762.211 410.374 762.211C637.408 762.211 806.323 790.391 853.654 623.058C901.762 452.994 814.709 444.417 799.572 250.417C784.434 56.417 660.943 -15.8077 479.563 2.83649C365.883 14.5216 298.739 29.6826 217.945 71.6296Z" fill="#CADDFF"/>
<path d="M507.719 196.969C507.329 196.969 506.939 196.821 506.649 196.525L501.739 191.579C501.149 190.991 501.159 190.042 501.749 189.458C502.329 188.875 503.279 188.877 503.869 189.466L508.779 194.412C509.359 195 509.359 195.949 508.769 196.533C508.479 196.823 508.099 196.969 507.719 196.969Z" fill="black"/>
<path d="M524.909 214.281C524.519 214.281 524.129 214.134 523.839 213.838L518.929 208.89C518.349 208.302 518.349 207.353 518.939 206.769C519.519 206.186 520.479 206.188 521.059 206.777L525.969 211.724C526.549 212.312 526.549 213.261 525.959 213.845C525.669 214.135 525.289 214.281 524.909 214.281Z" fill="black"/>
<path d="M502.799 214.281C502.419 214.281 502.039 214.135 501.749 213.845C501.159 213.261 501.149 212.312 501.739 211.724L506.649 206.777C507.229 206.188 508.179 206.186 508.769 206.769C509.359 207.353 509.359 208.302 508.779 208.89L503.869 213.838C503.569 214.134 503.189 214.281 502.799 214.281Z" fill="black"/>
<path d="M519.989 196.969C519.609 196.969 519.229 196.823 518.939 196.533C518.349 195.949 518.349 195 518.929 194.412L523.839 189.466C524.419 188.877 525.379 188.875 525.959 189.458C526.549 190.042 526.549 190.991 525.969 191.579L521.059 196.525C520.769 196.821 520.379 196.969 519.989 196.969Z" fill="black"/>
<path d="M556.259 259.059C552.169 259.059 548.839 262.418 548.839 266.547C548.839 270.676 552.169 274.034 556.259 274.034C560.349 274.034 563.679 270.676 563.679 266.547C563.679 262.418 560.349 259.059 556.259 259.059ZM556.259 277.034C550.509 277.034 545.839 272.33 545.839 266.547C545.839 260.763 550.509 256.059 556.259 256.059C562.009 256.059 566.679 260.763 566.679 266.547C566.679 272.33 562.009 277.034 556.259 277.034Z" fill="black"/>
<path d="M721.689 722.386C721.059 722.386 720.469 721.987 720.259 721.357C719.999 720.571 720.43 719.722 721.22 719.463C752.72 709.051 780.569 689.868 801.779 663.985C802.299 663.343 803.25 663.25 803.89 663.775C804.53 664.299 804.62 665.245 804.1 665.885C782.53 692.21 754.199 711.721 722.159 722.31C721.999 722.362 721.839 722.386 721.689 722.386Z" fill="black"/>
<path d="M156.389 170.445C155.969 170.445 155.549 170.269 155.249 169.927C154.709 169.301 154.779 168.353 155.399 167.811C163.519 160.783 172.029 154.105 180.689 147.962C181.359 147.483 182.299 147.642 182.779 148.317C183.259 148.993 183.099 149.929 182.419 150.409C173.839 156.496 165.409 163.114 157.369 170.079C157.079 170.325 156.729 170.445 156.389 170.445Z" fill="black"/>
<path d="M57.96 315.409C57.2448 315.124 56.8534 314.324 57.0894 313.57C63.2499 293.841 72.5667 274.457 84.7905 255.964C85.2489 255.274 86.1773 255.079 86.8751 255.543C87.5652 255.999 87.7538 256.929 87.2954 257.62C75.2296 275.878 66.027 295.003 59.9517 314.465C59.7013 315.254 58.8675 315.698 58.0733 315.449C58.0346 315.438 57.9971 315.424 57.96 315.409Z" fill="black"/>
<path d="M692.049 683.936C691.449 683.936 690.879 683.568 690.649 682.968C690.359 682.194 690.749 681.328 691.519 681.034C696.729 679.055 701.959 676.952 707.069 674.779C707.839 674.457 708.719 674.81 709.039 675.573C709.359 676.336 709.009 677.216 708.249 677.541C703.099 679.727 697.829 681.846 692.589 683.839C692.409 683.905 692.229 683.936 692.049 683.936Z" fill="black"/>
<path d="M603.969 708.986C603.279 708.986 602.659 708.51 602.509 707.811C602.329 707.002 602.839 706.201 603.639 706.021C621.619 702.037 642.919 697.051 664.639 690.294C665.429 690.048 666.269 690.49 666.509 691.281C666.759 692.072 666.319 692.913 665.529 693.159C643.699 699.949 622.329 704.952 604.299 708.951C604.189 708.974 604.079 708.986 603.969 708.986Z" fill="black"/>
<path d="M142.449 675.797H498.339C508.569 675.797 516.859 667.507 516.859 657.281V656.229H123.929V657.281C123.929 667.507 132.219 675.797 142.449 675.797Z" fill="black"/>
<path d="M123.929 656.618H352.989L280.209 441.042C275.859 434.297 268.269 430.207 260.109 430.207H66.4788C57.6888 430.207 52.0287 438.786 54.8987 446.36C56.0387 449.371 57.2687 452.347 58.2687 455.409L123.929 656.618Z" fill="black"/>
<path d="M209.529 540.323C212.369 549.816 208.019 559.531 199.819 562.021C191.619 564.511 182.669 558.835 179.819 549.342C176.979 539.849 181.329 530.134 189.529 527.644C197.729 525.154 206.679 530.831 209.529 540.323Z" fill="#CADDFF"/>
<path d="M318.179 656.213H157.939C157.109 656.213 156.439 655.541 156.439 654.713C156.439 653.884 157.109 653.213 157.939 653.213H318.179C318.999 653.213 319.679 653.884 319.679 654.713C319.679 655.541 318.999 656.213 318.179 656.213Z" fill="#CADDFF"/>
<path d="M140.439 656.213H121.809C120.979 656.213 120.309 655.541 120.309 654.713C120.309 653.884 120.979 653.213 121.809 653.213H140.439C141.269 653.213 141.939 653.884 141.939 654.713C141.939 655.541 141.269 656.213 140.439 656.213Z" fill="#CADDFF"/>
<path d="M273.738 741.809C236.018 741.809 204.688 739.799 180.008 735.789C142.478 729.672 120.228 718.893 113.878 703.748C105.498 683.738 127.658 664.107 128.598 663.281C129.228 662.738 130.178 662.801 130.718 663.425C131.258 664.049 131.198 664.998 130.578 665.542C130.358 665.73 109.088 684.588 116.648 702.597C124.128 720.429 159.448 738.849 273.278 738.849C307.308 738.849 348.348 737.199 397.768 733.402C432.508 730.731 496.028 724.545 528.658 718.443C529.468 718.287 530.258 718.827 530.408 719.642C530.558 720.457 530.028 721.24 529.208 721.392C496.468 727.515 432.798 733.717 397.998 736.389C350.998 740.009 309.498 741.809 273.738 741.809Z" fill="black"/>
<path d="M780.809 340.859C780.809 340.859 834.949 344.22 856.859 373.702C871.389 393.259 870.039 433.346 862.329 491.851C857.249 530.447 847.89 549.659 838.87 573.375C816.17 633.058 781.349 649.39 744.889 652.728C699.409 656.892 538.769 654.611 500.759 653.988C496.389 653.916 492.429 651.421 490.449 647.502L487.999 642.654C485.409 637.532 484.699 621.647 485.829 613.176C486.529 607.873 489.579 603.075 494.269 600.551C495.329 599.98 496.409 599.572 497.379 599.499L573.459 590.781C573.459 590.781 647.159 496.233 613.689 450.671C601.639 434.273 545.969 469.215 497.339 462.218C456.149 456.294 411.65 384.307 398.98 362.396C396.43 357.981 395.549 352.785 396.549 347.777C398.099 340.022 401.769 328.972 410.369 324.249C417.549 320.304 430.96 313.596 443.6 326.854C443.6 326.854 475.339 374.765 513.549 375.931C551.749 377.097 593.809 325.175 717.249 334.092L780.809 340.859Z" fill="#5479F7"/>
<path d="M572.429 590.838C571.659 590.838 570.999 590.249 570.929 589.468C570.859 588.642 571.469 587.916 572.299 587.843C646.469 581.369 772.589 553.325 783.889 438.249C783.969 437.424 784.699 436.823 785.529 436.902C786.349 436.983 786.959 437.717 786.869 438.542C781.449 493.771 749.399 535.265 691.619 561.874C658.599 577.075 618.549 586.818 572.559 590.832C572.509 590.836 572.469 590.838 572.429 590.838Z" fill="#CADDFF"/>
<path d="M421.299 367.27C410.029 367.27 402.739 355.253 402.429 354.737C402.009 354.026 402.239 353.107 402.949 352.682C403.659 352.26 404.579 352.491 405.009 353.201C405.069 353.312 411.739 364.27 421.309 364.27C421.379 364.27 421.439 364.269 421.509 364.268C428.939 364.15 436.329 357.573 443.479 344.721C443.879 343.999 444.799 343.737 445.519 344.14C446.249 344.543 446.509 345.456 446.099 346.18C438.389 360.045 430.129 367.139 421.539 367.267C421.459 367.269 421.379 367.27 421.299 367.27Z" fill="black"/>
<path d="M524.689 633.527C524.519 633.527 524.349 633.499 524.179 633.438C523.399 633.157 522.999 632.297 523.279 631.517C524.959 626.857 524.809 622.689 522.829 619.128C518.369 611.108 506.109 608.423 505.989 608.396C505.179 608.224 504.659 607.428 504.829 606.618C504.999 605.808 505.789 605.291 506.609 605.461C507.159 605.578 520.309 608.443 525.449 617.659C527.869 622.014 528.089 627.019 526.099 632.537C525.879 633.147 525.299 633.527 524.689 633.527Z" fill="black"/>
<path d="M503.979 621.657C502.009 619.088 499.179 617.293 495.999 616.774C493.719 616.402 491.429 615.775 489.229 615.082L458.729 605.467C453.059 603.88 447.239 604.54 442.169 607.333C426.859 615.76 395.459 634.744 400.439 646.127C405.799 658.407 433.679 646.906 443.489 642.39C445.729 641.359 448.249 641.253 450.659 642.103C456.659 644.223 468.449 648.192 475.249 649.159C480.869 649.958 485.929 647.267 490.039 644.013C491.909 642.53 494.129 641.604 496.629 641.119C500.459 640.376 503.809 638.076 505.659 634.615L505.699 634.534C507.729 630.718 507.349 626.056 504.729 622.628L503.979 621.657Z" fill="white"/>
<path d="M452.689 606.126C449.279 606.126 445.929 606.975 442.889 608.646C414.019 624.545 398.669 638.332 401.809 645.526C402.579 647.279 403.909 648.498 405.889 649.25C415.589 652.945 436.639 643.889 442.859 641.028C445.459 639.837 448.399 639.716 451.159 640.689C457.399 642.895 468.859 646.735 475.459 647.674C479.759 648.285 484.219 646.704 489.099 642.838C491.089 641.267 493.519 640.193 496.349 639.646C499.839 638.967 502.749 636.877 504.329 633.91C504.329 633.906 504.379 633.822 504.379 633.819C506.129 630.536 505.799 626.497 503.539 623.54L502.789 622.569C500.999 620.235 498.509 618.703 495.759 618.255C493.699 617.92 491.489 617.366 488.779 616.512L458.279 606.898C456.439 606.382 454.549 606.126 452.689 606.126ZM411.459 653.1C408.999 653.1 406.739 652.787 404.819 652.053C402.089 651.014 400.149 649.222 399.059 646.727C394.009 635.157 419.319 618.204 441.439 606.019C446.839 603.047 453.119 602.339 459.139 604.023L489.679 613.651C492.249 614.461 494.329 614.982 496.239 615.294C499.749 615.866 502.919 617.801 505.169 620.745L505.919 621.716C508.889 625.603 509.329 630.912 507.019 635.239C507.019 635.242 506.979 635.327 506.969 635.33C504.969 639.09 501.299 641.74 496.919 642.591C494.539 643.052 492.589 643.902 490.969 645.189C485.409 649.593 480.199 651.379 475.039 650.644C468.179 649.669 456.509 645.76 450.159 643.517C448.109 642.795 446.019 642.876 444.119 643.754C437.319 646.879 422.419 653.099 411.459 653.1Z" fill="black"/>
<path d="M328.299 253.648C329.239 250.903 332.059 249.292 334.879 249.891C342.759 251.567 383.339 260.2 390.899 261.861C398.469 263.521 398.769 271.66 403.079 279.113C406.829 285.592 419.729 309.338 433.789 325.884C438.029 330.868 438.619 338.018 435.319 343.678C433.429 346.927 431.029 350.121 428.179 352.002C420.599 356.998 414.969 362.987 399.139 325.143C399.139 325.143 391.919 321.697 384.979 313.743C384.979 313.743 360.299 342.842 353.989 283.757C353.429 278.503 355.859 273.389 360.429 270.805C360.799 270.599 361.179 270.393 361.579 270.188L332.019 261.031C328.929 260.074 327.239 256.727 328.299 253.648Z" fill="white"/>
<path d="M384.979 312.244C385.409 312.244 385.819 312.431 386.109 312.758C392.739 320.358 399.719 323.757 399.789 323.791C400.119 323.949 400.379 324.225 400.519 324.564C408.329 343.216 414.179 352.568 418.949 353.996C421.299 354.699 423.299 353.471 426.359 351.409C426.689 351.19 427.019 350.968 427.349 350.75C429.639 349.241 431.879 346.608 434.029 342.924C437.009 337.796 436.459 331.338 432.649 326.854C420.039 312.015 408.329 291.385 403.329 282.575C402.709 281.486 402.199 280.571 401.789 279.863C400.429 277.518 399.489 275.182 398.569 272.924C396.629 268.114 395.089 264.314 390.579 263.325C382.369 261.523 335.049 251.46 334.569 251.358C332.499 250.917 330.409 252.111 329.719 254.134C329.339 255.242 329.419 256.427 329.949 257.47C330.479 258.503 331.369 259.259 332.469 259.599L362.029 268.755C362.609 268.935 363.029 269.45 363.079 270.057C363.129 270.666 362.809 271.244 362.269 271.522C361.879 271.718 361.519 271.915 361.169 272.111C357.209 274.346 354.979 278.855 355.489 283.597C358.319 310.175 364.759 317.552 369.669 319.061C376.589 321.19 383.759 312.858 383.829 312.774C384.109 312.44 384.529 312.247 384.969 312.244H384.979ZM420.269 357.196C419.569 357.196 418.839 357.095 418.089 356.87C412.289 355.133 406.259 345.959 397.969 326.23C396.249 325.325 390.659 322.109 384.949 315.958C382.339 318.551 375.749 324.07 368.789 321.928C360.399 319.347 354.919 306.558 352.499 283.916C351.949 278.699 354.059 273.694 357.979 270.641L331.579 262.465C329.699 261.883 328.169 260.592 327.279 258.83C326.379 257.056 326.239 255.043 326.879 253.161C328.069 249.705 331.639 247.668 335.189 248.425C335.669 248.525 382.999 258.592 391.229 260.395C397.279 261.723 399.259 266.618 401.349 271.799C402.229 273.962 403.129 276.199 404.379 278.361C404.799 279.074 405.319 279.996 405.939 281.094C410.899 289.831 422.509 310.289 434.929 324.912C439.559 330.363 440.239 338.208 436.619 344.432C434.239 348.52 431.679 351.488 428.999 353.254C428.679 353.468 428.359 353.684 428.039 353.898C425.619 355.525 423.139 357.196 420.269 357.196Z" fill="black"/>
<path d="M390.629 301.907C390.379 301.907 390.119 301.844 389.889 301.714C387.949 300.618 384.329 298.144 382.869 297.132C374.809 291.551 370.319 286.013 368.359 283.208C366.949 281.189 366.239 278.921 366.299 276.648C366.419 272.257 369.389 271.257 370.659 270.83C375.539 269.183 383.279 273.669 384.139 274.185C384.849 274.61 385.089 275.53 384.659 276.241C384.239 276.952 383.319 277.185 382.609 276.761C380.579 275.555 374.659 272.644 371.619 273.674C370.409 274.081 369.359 274.432 369.299 276.73C369.249 278.355 369.779 280.001 370.819 281.489C372.669 284.131 376.899 289.351 384.549 294.645C386.009 295.653 389.529 298.066 391.359 299.1C392.089 299.508 392.339 300.422 391.929 301.143C391.659 301.633 391.149 301.907 390.629 301.907Z" fill="black"/>
<path d="M385.309 315.584C384.919 315.584 384.529 315.432 384.229 315.131C377.569 308.293 377.969 300.976 377.989 300.668C378.039 299.842 378.759 299.217 379.589 299.268C380.409 299.322 381.029 300.033 380.979 300.857C380.969 301.117 380.699 307.201 386.379 313.037C386.959 313.631 386.949 314.581 386.349 315.158C386.059 315.442 385.679 315.584 385.309 315.584Z" fill="black"/>
<path d="M772.658 338.092L780.638 274.248L725.068 291.42L719.458 328.813C718.108 338.863 725.568 345.907 725.568 345.907C734.668 355.458 749.528 356.614 761.448 351.035L764.208 349.743C768.828 347.581 772.018 343.18 772.658 338.092Z" fill="white"/>
<path d="M726.409 292.575L720.939 329.036C719.709 338.194 726.529 344.751 726.599 344.816C734.719 353.339 748.769 355.314 760.819 349.677L763.579 348.385C767.759 346.429 770.589 342.512 771.169 337.905L778.859 276.368L726.409 292.575ZM746.479 355.94C738.059 355.94 730.109 352.852 724.479 346.942C724.209 346.688 716.529 339.302 717.969 328.614L723.589 291.197C723.669 290.627 724.079 290.157 724.629 289.986L780.199 272.815C780.679 272.664 781.209 272.771 781.599 273.099C781.989 273.427 782.189 273.929 782.129 274.435L774.149 338.278C773.439 343.914 769.969 348.707 764.849 351.101L762.089 352.393C756.989 354.778 751.649 355.94 746.479 355.94Z" fill="black"/>
<path d="M722.299 180.877C736.069 182.472 716.508 193.524 769.458 187.598C790.548 185.239 776.349 206.929 781.819 206.332C802.029 204.125 801.339 204.179 810.299 208.294C816.239 211.018 818.309 223.211 815.659 231.587C812.159 242.644 802.318 243.939 789.928 266.427C781.228 282.22 780.888 292.682 773.738 293.958C766.508 295.248 763.059 285.23 755.059 286.041C744.709 287.092 743.699 304.558 732.859 309.982C726.029 313.401 711.559 313.013 690.849 298.043C687.499 295.617 686.329 291.12 688.099 287.359C690.359 282.539 693.248 276.466 696.488 270.896C711.958 244.35 723.159 239.694 720.769 231.7C717.109 219.452 694.709 222.194 692.779 212.321C690.779 202.067 703.449 178.694 722.299 180.877Z" fill="black"/>
<path d="M761.439 238.087L756.279 244.697C753.849 247.811 751.639 251.085 749.659 254.506C745.949 260.922 739.479 271.907 735.389 277.781C729.379 286.41 701.439 269.701 701.439 269.701L700.639 263.584L697.399 261.556C696.779 261.163 696.229 260.639 695.879 259.985C695.009 258.35 695.339 256.44 696.529 255.199C703.049 248.416 716.879 233.04 723.449 218.218C723.449 218.218 746.649 216.357 761.439 238.087Z" fill="white"/>
<path d="M759.939 238.037C759.369 237.486 758.839 236.973 758.359 236.437C757.849 235.893 757.559 235.366 756.859 234.667C755.629 233.354 754.459 231.973 753.059 230.832C750.449 228.355 747.429 226.343 744.269 224.652C741.099 222.947 737.689 221.695 734.189 220.862C733.309 220.637 732.419 220.496 731.539 220.308C730.649 220.162 729.759 220.033 728.869 219.924C727.099 219.728 725.239 219.638 723.569 219.704L724.819 218.822C720.729 227.688 715.019 235.516 708.949 242.918C705.879 246.598 702.709 250.19 699.439 253.681L698.199 254.984L697.579 255.631L697.279 255.949C697.199 256.032 697.119 256.111 697.059 256.201C696.519 256.897 696.289 257.85 696.529 258.708C696.789 259.619 697.339 260.138 698.299 260.593C699.359 261.146 700.419 261.695 701.429 262.322C701.819 262.561 702.049 262.951 702.109 263.368V263.39L702.939 269.504L702.219 268.399C708.199 271.824 714.529 274.937 721.029 277.067C722.659 277.581 724.299 278.019 725.939 278.31C727.569 278.597 729.219 278.739 730.699 278.557C732.229 278.392 733.379 277.796 734.089 276.823C735.079 275.407 736.029 273.945 736.969 272.476C740.729 266.583 744.299 260.526 747.839 254.466C749.609 251.391 751.579 248.363 753.729 245.502C754.239 244.805 754.849 244.031 755.329 243.422C755.819 242.809 756.309 242.206 756.809 241.608C757.809 240.413 758.859 239.239 759.939 238.037ZM762.939 238.135C761.859 239.706 760.739 241.305 759.579 242.883L756.209 247.343C754.159 250.134 752.309 253.025 750.599 256.064C747.069 262.168 743.479 268.231 739.679 274.21C738.729 275.703 737.759 277.19 736.739 278.663C736.059 279.558 735.169 280.426 734.149 280.873C733.659 281.162 733.139 281.275 732.629 281.467C732.119 281.564 731.609 281.71 731.109 281.75C729.099 281.98 727.199 281.773 725.379 281.447C723.549 281.111 721.789 280.626 720.069 280.072C716.629 278.94 713.329 277.545 710.109 276.013C706.889 274.472 703.759 272.827 700.659 271.002C700.249 270.76 699.989 270.338 699.929 269.897L699.159 263.777L699.849 264.845C698.839 264.207 697.879 263.49 696.929 262.779C696.419 262.427 695.769 261.889 695.349 261.267C694.899 260.616 694.599 259.913 694.459 259.181C694.139 257.717 694.469 256.123 695.379 254.927C695.489 254.774 695.609 254.636 695.739 254.496L696.049 254.166L696.659 253.52L697.869 252.22C701.089 248.751 704.179 245.149 707.109 241.432C710.029 237.717 712.809 233.883 715.349 229.919C717.879 225.958 720.219 221.874 722.089 217.612L722.099 217.589C722.319 217.076 722.809 216.76 723.329 216.73C725.389 216.612 727.259 216.733 729.199 216.927C730.149 217.041 731.109 217.175 732.059 217.329C732.999 217.525 733.949 217.675 734.889 217.911C738.629 218.789 742.279 220.117 745.689 221.932C749.089 223.734 752.339 225.889 755.149 228.532C756.629 229.776 757.869 231.256 759.169 232.674C759.799 233.294 760.519 234.347 761.149 235.268C761.799 236.221 762.389 237.196 762.939 238.135Z" fill="black"/>
<path d="M751.539 262.578C751.539 262.578 763.919 246.668 769.919 253.873C775.919 261.078 761.849 278.248 751.539 262.578Z" fill="white"/>
<path d="M123.557 349.498L180.953 349.597C188.026 349.609 194.445 353.742 197.391 360.178L212.348 392.884L231.031 359.062C234.223 353.283 240.306 349.7 246.906 349.711L299.692 349.803C309.693 349.82 317.813 341.72 317.827 331.711L317.998 219.583C318.012 209.574 309.918 201.447 299.917 201.428L123.782 201.123C113.781 201.106 105.661 209.206 105.647 219.215L105.476 331.343C105.462 341.352 113.558 349.479 123.557 349.498Z" fill="white"/>
<path d="M248.829 266.3C248.138 266.141 247.508 265.784 247.012 265.272C246.517 264.76 246.178 264.115 246.036 263.414C244.266 254.869 240.401 247.538 234.701 241.982C228.067 235.536 219.211 231.954 210.009 231.997C201.827 231.997 194.282 234.721 188.188 239.871C184.027 243.424 180.717 247.884 178.508 252.917C178.27 253.457 177.908 253.931 177.453 254.302C176.997 254.673 176.461 254.928 175.888 255.048C169.665 256.357 164.118 259.088 159.944 262.938C154.095 268.31 151.009 275.658 151.009 284.179C151.009 292.565 154.323 300.225 160.34 305.748C166.137 311.069 173.954 313.997 182.353 313.997H242.274C249.735 313.997 256.156 312.001 260.848 308.227C266.188 303.929 269.009 297.548 269.009 289.77C269.009 276.359 259.329 268.669 248.829 266.3ZM226.888 264.217L202.044 294.035C201.704 294.444 201.281 294.773 200.803 295.002C200.326 295.23 199.806 295.353 199.278 295.361H199.216C198.7 295.361 198.189 295.251 197.718 295.04C197.246 294.828 196.824 294.518 196.478 294.131L185.899 282.28C184.57 280.792 184.558 278.476 185.969 277.062C186.323 276.707 186.745 276.427 187.209 276.241C187.673 276.055 188.169 275.966 188.669 275.98C189.168 275.994 189.659 276.11 190.112 276.321C190.566 276.532 190.972 276.834 191.306 277.209L199.119 285.963L221.244 259.407C221.556 259.032 221.938 258.724 222.368 258.498C222.798 258.273 223.268 258.136 223.751 258.094C224.233 258.052 224.719 258.107 225.181 258.255C225.642 258.403 226.071 258.642 226.441 258.957C226.812 259.273 227.117 259.659 227.34 260.093C227.563 260.528 227.699 261.003 227.74 261.491C227.781 261.978 227.727 262.47 227.581 262.936C227.434 263.403 227.198 263.836 226.886 264.21L226.888 264.217Z" fill="#5479F7"/>
<path d="M317.5 140.056C317.5 118.21 335.19 100.499 357.02 100.499C378.85 100.499 396.55 118.21 396.55 140.056C396.55 161.904 378.85 179.614 357.02 179.614C335.19 179.614 317.5 161.904 317.5 140.056Z" fill="white"/>
<path d="M357.02 181.113C334.4 181.113 316 162.695 316 140.056C316 135.216 316.83 130.476 318.48 125.97C318.76 125.191 319.62 124.794 320.4 125.075C321.18 125.359 321.58 126.22 321.3 126.999C319.77 131.175 319 135.568 319 140.056C319 161.041 336.06 178.113 357.02 178.113C377.99 178.113 395.05 161.041 395.05 140.056C395.05 119.072 377.99 102 357.02 102C345.61 102 334.9 107.064 327.64 115.893C327.12 116.534 326.17 116.627 325.53 116.1C324.89 115.574 324.8 114.629 325.33 113.989C333.16 104.463 344.71 99 357.02 99C379.64 99 398.05 117.418 398.05 140.056C398.05 162.695 379.64 181.113 357.02 181.113Z" fill="black"/>
<path d="M311.158 430.497C311.158 412.434 325.789 397.791 343.838 397.791C361.886 397.791 376.516 412.434 376.516 430.497C376.516 448.561 361.886 463.203 343.838 463.203C325.789 463.203 311.158 448.561 311.158 430.497Z" fill="white"/>
<path d="M341.878 419.356L330.537 436.093C329.147 438.144 330.617 440.915 333.095 440.915L355.777 440.915C358.255 440.915 359.725 438.144 358.335 436.092L346.994 419.356C345.768 417.548 343.104 417.548 341.878 419.356Z" fill="#99B9FF"/>
<path d="M360.012 155.402L373.368 135.682C375.005 133.265 373.273 130 370.355 130L343.645 130C340.727 130 338.995 133.265 340.632 135.683L353.988 155.402C355.431 157.533 358.569 157.533 360.012 155.402Z" fill="#99B9FF"/>
<path d="M343.373 464.704C334.492 464.704 325.617 461.294 318.902 454.487C312.455 447.951 308.938 439.295 309.001 430.115C309.063 420.934 312.697 412.328 319.233 405.879C332.085 393.202 352.71 392.657 366.188 404.643C366.807 405.194 366.863 406.142 366.312 406.761C365.762 407.379 364.814 407.434 364.194 406.885C351.895 395.946 333.071 396.443 321.34 408.015C315.374 413.9 312.057 421.755 312.001 430.135C311.944 438.514 315.153 446.415 321.038 452.379C333.185 464.693 353.088 464.831 365.402 452.681C371.857 446.314 375.24 437.465 374.681 428.406C374.629 427.58 375.259 426.868 376.086 426.817C376.91 426.762 377.625 427.395 377.676 428.222C378.287 438.146 374.582 447.84 367.509 454.817C360.824 461.412 352.095 464.703 343.373 464.704Z" fill="black"/>
</svg>
