<svg viewBox="0 0 362 326" fill="none" xmlns="http://www.w3.org/2000/svg">
<path d="M90.8934 29.873C88.4932 31.1186 86.4209 32.7933 84.1431 34.2029C64.9152 46.0916 -7.9788 89.0462 0.717064 184.572C10.2177 336.14 76.466 317.878 171.145 317.878C265.829 317.878 336.275 329.63 356.014 259.845C376.077 188.92 339.773 185.343 333.459 104.436C327.146 23.5286 275.644 -6.59255 200 1.18295C152.591 6.0562 124.588 12.379 90.8934 29.873Z" fill="url(#paint0_linear_802_1279)"/>
<path d="M148.53 125.453C148.369 125.783 148.234 126.125 148.126 126.476L116.567 135.974L110.724 130.507L101.309 138.234L110.711 148.916C111.471 149.779 112.49 150.373 113.616 150.608C114.743 150.843 115.915 150.707 116.957 150.221L150.926 134.359C152.107 135.14 153.499 135.544 154.915 135.516C156.332 135.489 157.706 135.031 158.856 134.205C160.006 133.378 160.876 132.221 161.351 130.889C161.827 129.556 161.884 128.11 161.517 126.744C161.149 125.378 160.374 124.156 159.294 123.24C158.214 122.325 156.88 121.759 155.47 121.619C154.061 121.479 152.641 121.771 151.402 122.456C150.162 123.14 149.16 124.186 148.53 125.453Z" fill="#FFB6B6"/>
<path d="M115.519 136.358L103.908 146.007C103.578 146.281 103.192 146.481 102.778 146.594C102.363 146.706 101.929 146.727 101.505 146.657C101.081 146.587 100.677 146.426 100.321 146.185C99.9646 145.945 99.6645 145.631 99.441 145.265L91.608 132.421C90.2122 130.725 89.5465 128.546 89.7569 126.361C89.9673 124.176 91.0366 122.164 92.7305 120.764C94.4243 119.365 96.6046 118.694 98.7935 118.897C100.982 119.1 103.001 120.161 104.408 121.848L115.6 131.837C115.92 132.123 116.175 132.475 116.347 132.868C116.519 133.261 116.604 133.687 116.596 134.116C116.589 134.545 116.489 134.968 116.303 135.354C116.117 135.741 115.85 136.084 115.519 136.358Z" fill="#6D55F7"/>
<path d="M146.698 297L151.752 293.786C151.984 290.963 152.057 288.13 151.969 285.3L149.348 285.969L151.935 284.323C151.792 280.824 151.476 278.516 151.476 278.516C151.476 278.516 141.258 285.143 134.741 294.126L135.852 301.723L133.202 296.41C132.524 297.494 131.915 298.619 131.379 299.779C126.01 311.491 125.488 322.737 130.214 324.897C134.939 327.057 143.123 319.313 148.492 307.601C150.112 303.834 151.144 299.841 151.552 295.762L146.698 297Z" fill="#F2F2F2"/>
<path d="M157.079 308.306L163.069 308.162C164.729 305.866 166.258 303.478 167.648 301.01L165.058 300.229L168.125 300.156C169.814 297.087 170.738 294.948 170.738 294.948C170.738 294.948 158.56 295.347 148.331 299.674L145.349 306.751L145.831 300.835C144.69 301.413 143.586 302.061 142.527 302.777C131.867 310.032 125.599 319.39 128.526 323.678C131.453 327.966 142.468 325.561 153.127 318.306C156.464 315.917 159.414 313.032 161.874 309.751L157.079 308.306Z" fill="#F2F2F2"/>
<path d="M121.675 318.868L128.215 318.868L130.668 293.468L121.674 293.68L121.675 318.868Z" fill="#FFB6B6"/>
<path d="M120.008 316.736L132.887 316.736C135.064 316.736 137.152 317.599 138.691 319.136C140.231 320.673 141.095 322.758 141.096 324.931V325.197L120.008 325.198L120.008 316.736Z" fill="#2F2E41"/>
<path d="M44.5195 300.018L48.8089 304.947L69.8916 290.773L63.5607 283.497L44.5195 300.018Z" fill="#FFB6B6"/>
<path d="M45.0377 297.362L53.4852 307.07C54.9128 308.71 55.6295 310.851 55.4771 313.019C55.3247 315.187 54.316 317.206 52.6729 318.632L52.4715 318.806L38.6406 302.912L45.0377 297.362Z" fill="#2F2E41"/>
<path d="M107.306 259.079L121.066 309.98H131.735L129.392 254.311L123.206 200.073L100.74 198.881L107.306 259.079Z" fill="#2F2E41"/>
<path d="M83.4316 200.073C83.4316 200.073 82.2378 207.821 87.013 216.165C91.7882 224.51 88.8037 252.522 88.8037 252.522L48.5195 292.935C48.5195 292.935 54.7802 303.78 57.7647 303.184C60.7492 302.588 107.905 264.443 107.905 264.443L123.208 202.457L83.4316 200.073Z" fill="#2F2E41"/>
<path d="M105.643 109.846C113.225 109.846 119.372 103.709 119.372 96.1377C119.372 88.5667 113.225 82.4292 105.643 82.4292C98.0607 82.4292 91.9141 88.5667 91.9141 96.1377C91.9141 103.709 98.0607 109.846 105.643 109.846Z" fill="#FFB6B6"/>
<path d="M105.064 117.693C105.064 117.693 89.0604 111.644 89.0604 113.432C89.0604 115.22 73.2835 130.338 76.8649 150.007C80.4463 169.676 84.6247 179.212 82.8339 189.94C81.0432 200.669 82.237 203.053 82.237 203.053C82.237 203.053 123.804 206.629 124.401 202.457C124.998 198.285 122.667 191.922 122.667 190.133C122.667 188.345 106.174 122.294 105.064 117.693Z" fill="#6D55F7"/>
<path d="M99.4292 104.375C100.541 103.788 101.832 103.667 103.035 103.302C107.339 101.998 110.222 97.1394 109.301 92.7431C109.131 92.1793 109.055 91.5914 109.075 91.0028C109.236 89.7008 110.57 88.8607 111.85 88.5623C113.129 88.264 114.491 88.3073 115.713 87.8276C117.602 87.0869 118.856 85.1494 119.128 83.142C119.323 81.1098 118.87 79.0679 117.833 77.3084L117.371 78.6363C116.666 78.0406 116.143 77.2592 115.861 76.3812C115.336 76.4694 114.842 76.6906 114.427 77.0239C114.012 77.3572 113.689 77.7912 113.49 78.2845C112.749 78.7213 112.642 76.9276 111.822 76.663C111.462 76.6181 111.098 76.7078 110.8 76.9149C109.148 77.6838 107.23 77.0264 105.459 76.6001C102.392 75.8655 99.1949 75.8618 96.1262 76.5892C94.0875 77.0747 92.0695 77.9202 90.6107 79.4229C89.4697 80.7164 88.5932 82.2203 88.0305 83.8499C86.4658 87.7819 85.4322 92.0365 85.9487 96.2359C86.3788 99.6724 87.8187 102.905 90.0865 105.525C91.2679 106.884 95.1224 111.626 97.2358 110.817C99.8914 109.802 96.3002 106.027 99.4292 104.375Z" fill="#2F2E41"/>
<path opacity="0.2" d="M122.719 223.285L107.012 264.407L107.805 264.71L123.513 223.587L122.719 223.285Z" fill="black"/>
<path d="M156.626 119.291C155.627 119.292 154.669 119.689 153.963 120.395C153.256 121.1 152.859 122.057 152.857 123.055V164.89C152.859 165.888 153.256 166.844 153.963 167.55C154.669 168.255 155.627 168.652 156.626 168.653H357.231C358.23 168.652 359.188 168.255 359.894 167.55C360.601 166.844 360.998 165.888 361 164.89V123.055C360.998 122.057 360.601 121.1 359.894 120.395C359.188 119.689 358.23 119.292 357.231 119.291L156.626 119.291Z" fill="#E6E6E6"/>
<path d="M157.982 122.226C157.403 122.226 156.848 122.456 156.438 122.866C156.028 123.275 155.798 123.829 155.797 124.408V163.537C155.798 164.115 156.028 164.67 156.438 165.079C156.848 165.488 157.403 165.718 157.982 165.719H355.876C356.456 165.718 357.011 165.488 357.421 165.079C357.83 164.67 358.061 164.115 358.061 163.537V124.408C358.061 123.829 357.83 123.275 357.421 122.866C357.011 122.457 356.456 122.226 355.876 122.226H157.982Z" fill="white"/>
<path d="M343.451 154.989C344.39 154.987 345.29 154.613 345.954 153.949C346.618 153.286 346.991 152.386 346.992 151.449C346.994 150.511 346.623 149.61 345.961 148.945C345.299 148.28 344.4 147.903 343.46 147.898C343.457 147.898 343.454 147.898 343.451 147.898H176.067C175.128 147.902 174.229 148.277 173.566 148.942C172.903 149.606 172.531 150.506 172.531 151.444C172.531 152.382 172.903 153.281 173.566 153.946C174.229 154.61 175.128 154.985 176.067 154.989H343.451Z" fill="#E6E6E6"/>
<path d="M248.092 139.587C248.559 139.587 249.021 139.496 249.452 139.318C249.883 139.14 250.275 138.879 250.606 138.55C250.936 138.221 251.198 137.83 251.376 137.399C251.555 136.969 251.647 136.507 251.647 136.041C251.647 135.575 251.555 135.114 251.376 134.684C251.198 134.253 250.936 133.862 250.606 133.533C250.275 133.204 249.883 132.943 249.452 132.765C249.021 132.587 248.559 132.496 248.092 132.496H176.067C175.6 132.496 175.138 132.587 174.707 132.765C174.275 132.943 173.883 133.204 173.553 133.533C173.223 133.862 172.961 134.253 172.782 134.684C172.604 135.114 172.512 135.575 172.512 136.041C172.512 136.507 172.604 136.969 172.782 137.399C172.961 137.83 173.223 138.221 173.553 138.55C173.883 138.879 174.275 139.14 174.707 139.318C175.138 139.496 175.6 139.587 176.067 139.587H248.092Z" fill="#6D55F7"/>
<path d="M185.947 200.012C185.239 200.013 184.561 200.294 184.061 200.793C183.561 201.292 183.28 201.969 183.279 202.675V232.282C183.28 232.988 183.561 233.665 184.061 234.164C184.561 234.663 185.239 234.944 185.947 234.945H327.911C328.618 234.944 329.296 234.663 329.796 234.164C330.296 233.665 330.578 232.988 330.579 232.282V202.675C330.578 201.969 330.296 201.292 329.796 200.793C329.296 200.294 328.618 200.013 327.911 200.012H185.947Z" fill="#E6E6E6"/>
<path d="M186.906 202.089C186.496 202.089 186.103 202.252 185.813 202.541C185.523 202.831 185.36 203.223 185.359 203.633V231.324C185.36 231.733 185.523 232.126 185.813 232.415C186.103 232.705 186.496 232.868 186.906 232.868H326.953C327.363 232.868 327.756 232.705 328.046 232.415C328.336 232.126 328.499 231.733 328.499 231.324V203.633C328.499 203.223 328.336 202.831 328.046 202.541C327.756 202.252 327.363 202.089 326.953 202.089H186.906Z" fill="white"/>
<path d="M318.159 225.275C318.825 225.275 319.464 225.012 319.936 224.542C320.408 224.072 320.673 223.434 320.674 222.769C320.675 222.104 320.411 221.466 319.941 220.995C319.47 220.523 318.832 220.258 318.166 220.257C318.164 220.257 318.161 220.257 318.159 220.257H199.704C199.039 220.258 198.4 220.523 197.93 220.993C197.46 221.463 197.195 222.101 197.195 222.766C197.195 223.431 197.46 224.068 197.93 224.539C198.4 225.009 199.039 225.274 199.704 225.275H318.159Z" fill="#E6E6E6"/>
<path d="M250.675 214.375C251.006 214.375 251.333 214.311 251.638 214.185C251.943 214.059 252.221 213.874 252.454 213.641C252.688 213.408 252.873 213.131 253 212.827C253.126 212.522 253.192 212.195 253.192 211.866C253.192 211.536 253.126 211.209 253 210.905C252.873 210.6 252.688 210.323 252.454 210.09C252.221 209.857 251.943 209.673 251.638 209.547C251.333 209.421 251.006 209.356 250.675 209.357H199.704C199.374 209.356 199.046 209.421 198.741 209.547C198.436 209.673 198.158 209.857 197.925 210.09C197.691 210.323 197.506 210.6 197.379 210.905C197.253 211.209 197.188 211.536 197.188 211.866C197.188 212.195 197.253 212.522 197.379 212.827C197.506 213.131 197.691 213.408 197.925 213.641C198.158 213.874 198.436 214.059 198.741 214.185C199.046 214.311 199.374 214.375 199.704 214.375H250.675Z" fill="#E4E4E4"/>
<path d="M185.947 53C185.239 53.0008 184.561 53.2817 184.061 53.781C183.561 54.2802 183.28 54.9572 183.279 55.6633V85.2696C183.28 85.9757 183.561 86.6526 184.061 87.1519C184.561 87.6512 185.239 87.9321 185.947 87.9329H327.911C328.618 87.9321 329.296 87.6512 329.796 87.1519C330.296 86.6526 330.578 85.9757 330.579 85.2696V55.6633C330.578 54.9572 330.296 54.2802 329.796 53.781C329.296 53.2817 328.618 53.0008 327.911 53H185.947Z" fill="#E6E6E6"/>
<path d="M186.906 55.0767C186.496 55.0771 186.103 55.2399 185.813 55.5294C185.523 55.8188 185.36 56.2114 185.359 56.6208V84.3119C185.36 84.7213 185.523 85.1138 185.813 85.4033C186.103 85.6928 186.496 85.8556 186.906 85.856H326.953C327.363 85.8556 327.756 85.6927 328.046 85.4032C328.336 85.1138 328.499 84.7213 328.499 84.3119V56.6208C328.499 56.2114 328.336 55.8189 328.046 55.5294C327.756 55.2399 327.363 55.0771 326.953 55.0767H186.906Z" fill="white"/>
<path d="M318.159 78.2628C318.825 78.2633 319.464 77.9997 319.936 77.5299C320.408 77.06 320.673 76.4224 320.674 75.7572C320.675 75.092 320.411 74.4537 319.941 73.9826C319.47 73.5115 318.832 73.2461 318.166 73.2449C318.164 73.2449 318.161 73.2449 318.159 73.2449H199.704C199.039 73.2458 198.4 73.5106 197.93 73.981C197.46 74.4514 197.195 75.089 197.195 75.7538C197.195 76.4186 197.46 77.0562 197.93 77.5266C198.4 77.9971 199.039 78.2618 199.704 78.2628H318.159Z" fill="#E6E6E6"/>
<path d="M250.675 67.3626C251.006 67.3631 251.333 67.2986 251.638 67.1727C251.943 67.0468 252.221 66.8621 252.454 66.6291C252.688 66.3961 252.873 66.1193 253 65.8147C253.126 65.51 253.192 65.1835 253.192 64.8537C253.192 64.5239 253.126 64.1973 253 63.8927C252.873 63.5881 252.688 63.3113 252.454 63.0783C252.221 62.8453 251.943 62.6605 251.638 62.5347C251.333 62.4088 251.006 62.3442 250.675 62.3447H199.704C199.374 62.3442 199.046 62.4088 198.741 62.5347C198.436 62.6605 198.158 62.8453 197.925 63.0783C197.691 63.3113 197.506 63.5881 197.379 63.8927C197.253 64.1973 197.188 64.5239 197.188 64.8537C197.188 65.1835 197.253 65.51 197.379 65.8147C197.506 66.1193 197.691 66.3961 197.925 66.6291C198.158 66.8621 198.436 67.0468 198.741 67.1727C199.046 67.2986 199.374 67.3631 199.704 67.3626H250.675Z" fill="#E4E4E4"/>
<path d="M144.138 149.471C143.872 149.725 143.627 149.999 143.405 150.292L110.502 148.326L106.909 141.181L95.4004 145.188L100.532 158.454C100.946 159.526 101.698 160.434 102.673 161.043C103.649 161.652 104.796 161.929 105.943 161.831L143.307 158.655C144.146 159.795 145.312 160.654 146.651 161.116C147.99 161.579 149.438 161.623 150.803 161.244C152.168 160.864 153.384 160.079 154.291 158.992C155.198 157.905 155.752 156.568 155.88 155.159C156.007 153.75 155.702 152.336 155.005 151.104C154.307 149.873 153.251 148.882 151.977 148.265C150.702 147.647 149.269 147.432 147.869 147.647C146.469 147.863 145.167 148.499 144.138 149.471Z" fill="#FFB6B6"/>
<path d="M109.386 148.326L95.1534 153.378C94.7485 153.522 94.3172 153.577 93.8891 153.539C93.461 153.502 93.046 153.372 92.6724 153.16C92.2989 152.948 91.9755 152.658 91.7244 152.309C91.4733 151.961 91.3003 151.563 91.2172 151.142L88.3064 136.388C87.583 134.315 87.712 132.041 88.6649 130.063C89.6179 128.085 91.3172 126.565 93.3905 125.836C95.4638 125.107 97.7421 125.228 99.7261 126.173C101.71 127.118 103.238 128.809 103.975 130.877L111.025 144.11C111.227 144.489 111.344 144.907 111.37 145.335C111.395 145.764 111.328 146.193 111.172 146.593C111.017 146.993 110.777 147.355 110.469 147.654C110.16 147.953 109.791 148.182 109.386 148.326Z" fill="#6D55F7"/>
<path d="M158.291 132.694C163.3 132.694 167.36 128.64 167.36 123.639C167.36 118.638 163.3 114.584 158.291 114.584C153.283 114.584 149.223 118.638 149.223 123.639C149.223 128.64 153.283 132.694 158.291 132.694Z" fill="url(#paint1_linear_802_1279)"/>
<defs>
<linearGradient id="paint0_linear_802_1279" x1="180.999" y1="0" x2="180.999" y2="318.624" gradientUnits="userSpaceOnUse">
<stop stop-color="#D2DBE8"/>
<stop offset="1" stop-color="#6D55F7"/>
</linearGradient>
<linearGradient id="paint1_linear_802_1279" x1="152.091" y1="116.802" x2="163.733" y2="128.831" gradientUnits="userSpaceOnUse">
<stop stop-color="#4FA53E"/>
<stop offset="1" stop-color="#77DF81"/>
</linearGradient>
</defs>
</svg>
