<svg width="115" height="37" viewBox="0 0 115 37" fill="none" xmlns="http://www.w3.org/2000/svg">
<path d="M96.2281 28.064L86.1981 28.132C86.1981 29.5827 86.6061 30.75 87.4221 31.634C88.2381 32.4953 89.1561 32.926 90.1761 32.926C91.1961 32.926 92.0688 32.7673 92.7941 32.45C93.5421 32.11 94.0748 31.7813 94.3921 31.464L94.8341 30.954L96.2281 32.79C94.9134 34.3767 92.8734 35.17 90.1081 35.17C87.8868 35.17 86.1981 34.5013 85.0421 33.164C83.8861 31.8267 83.3081 29.9906 83.3081 27.656C83.3081 25.2986 84.0334 23.236 85.4841 21.468C86.9574 19.6773 88.8388 18.782 91.1281 18.782C92.9641 18.782 94.3014 19.4166 95.1401 20.686C96.0014 21.9326 96.4321 23.5647 96.4321 25.582C96.4321 26.4207 96.3641 27.248 96.2281 28.064ZM93.7801 26.126C93.7801 24.494 93.5308 23.2586 93.0321 22.42C92.5561 21.5813 91.6948 21.162 90.4481 21.162C89.2241 21.162 88.2041 21.706 87.3881 22.794C86.5948 23.8593 86.1868 24.9927 86.1641 26.194L93.7801 26.126Z" fill="#373043"/>
<path d="M81.8255 34.898L79.1735 35.17L78.5615 20.176L73.9035 34.932L71.6255 35L66.2195 19.938L66.0495 35.34L62.8535 35.17L63.9755 12.662L66.3895 12.764L72.7135 30.954L78.0855 12.73L81.0435 12.798L81.8255 34.898Z" fill="#373043"/>
<path d="M56.0837 18.34L55.4037 20.958L51.3917 21.094C51.2104 23.7006 51.1197 25.5253 51.1197 26.568C51.1197 27.6106 51.131 28.3473 51.1537 28.778C51.1764 29.2086 51.2444 29.696 51.3577 30.24C51.4937 30.7613 51.6637 31.192 51.8677 31.532C52.3437 32.3026 53.103 32.688 54.1457 32.688C55.483 32.688 56.4464 32.0193 57.0357 30.682L59.2117 31.736C58.6904 32.8466 58.0104 33.708 57.1717 34.32C56.333 34.932 55.1657 35.238 53.6697 35.238C50.1337 35.238 48.3657 32.6993 48.3657 27.622L48.5697 21.332L45.6797 21.4L45.9177 20.04L48.7397 18.85L49.6917 14.192H52.0037L51.4937 18.748L56.0837 18.34Z" fill="#373043"/>
<path d="M33.4077 30.478C34.0424 31.1353 34.8811 31.6907 35.9237 32.144C36.9891 32.5747 37.9751 32.79 38.8817 32.79C39.7884 32.79 40.4797 32.5633 40.9557 32.11C41.4544 31.6567 41.7038 31.158 41.7038 30.614C41.7038 30.0473 41.3864 29.628 40.7518 29.356C40.1171 29.0613 39.3464 28.8347 38.4398 28.676C37.5558 28.4947 36.6604 28.268 35.7537 27.996C34.8697 27.724 34.1104 27.2593 33.4757 26.602C32.8411 25.9447 32.5238 25.0833 32.5238 24.018C32.5238 22.386 33.0791 21.0827 34.1898 20.108C35.3231 19.1333 36.6717 18.646 38.2357 18.646C40.6157 18.646 42.6331 19.3147 44.2878 20.652L43.0298 22.93C42.4858 22.454 41.7151 22.0233 40.7178 21.638C39.7204 21.2527 38.7797 21.06 37.8957 21.06C37.0117 21.06 36.2977 21.298 35.7537 21.774C35.2097 22.2273 34.9377 22.8847 34.9377 23.746C34.9377 24.2673 35.2551 24.6867 35.8897 25.004C36.5471 25.2987 37.3404 25.548 38.2697 25.752C39.1991 25.9333 40.1284 26.16 41.0578 26.432C42.0098 26.704 42.8031 27.1573 43.4378 27.792C44.0951 28.4267 44.4238 29.2427 44.4238 30.24C44.4238 31.668 43.8798 32.8353 42.7918 33.742C41.7264 34.626 40.4571 35.068 38.9837 35.068C37.5331 35.068 36.1731 34.8413 34.9038 34.388C33.6571 33.912 32.6371 33.3 31.8438 32.552C32.1157 32.2347 32.6371 31.5433 33.4077 30.478Z" fill="#373043"/>
<path d="M16.6813 29.526L16.7493 23.644L16.6133 18.85L19.7753 18.646C19.6846 22.998 19.6393 26.2167 19.6393 28.302C19.6393 30.9993 20.5346 32.348 22.3253 32.348C23.2546 32.348 24.1613 31.974 25.0453 31.226C25.9519 30.4553 26.5073 29.4127 26.7113 28.098C27.0059 26.1487 27.1533 24.188 27.1533 22.216L26.9833 18.85L29.9413 18.646C30.0319 24.1993 30.0773 27.4067 30.0773 28.268C30.0773 29.5147 30.2246 31.3733 30.5193 33.844L30.6893 35.102L27.9693 35.272L27.4253 31.94L27.2213 31.872C26.1786 33.2773 24.8753 34.252 23.3113 34.796C22.6539 35.0453 21.9966 35.17 21.3393 35.17C19.8886 35.17 18.7439 34.626 17.9053 33.538C17.0893 32.4273 16.6813 31.09 16.6813 29.526Z" fill="#373043"/>
<path d="M11.5938 24.902L11.2538 12.968L14.3138 12.73C14.3592 18.2606 14.3818 21.672 14.3818 22.964C14.3818 24.256 14.3252 25.4346 14.2118 26.5C14.1212 27.5426 13.9172 28.6193 13.5998 29.73C13.3052 30.8406 12.8972 31.77 12.3758 32.518C11.8772 33.2433 11.1858 33.844 10.3018 34.32C9.44051 34.796 8.38651 35.034 7.13984 35.034C5.91584 35.034 4.79384 34.7506 3.77384 34.184C2.75384 33.6173 1.60918 32.756 0.339844 31.6L2.00584 29.05C2.79918 29.798 3.71718 30.478 4.75984 31.09C5.82518 31.6793 6.79984 31.974 7.68384 31.974C8.56784 31.974 9.28184 31.7586 9.82584 31.328C10.3698 30.8973 10.7665 30.2966 11.0158 29.526C11.4012 28.234 11.5938 26.6926 11.5938 24.902Z" fill="#373043"/>
<path d="M44.4991 4.22001L44.0591 5.91401L41.4631 6.00201C41.3458 7.68868 41.2871 8.86935 41.2871 9.54401C41.2871 10.2187 41.2944 10.6953 41.3091 10.974C41.3238 11.2527 41.3678 11.568 41.4411 11.92C41.5291 12.2573 41.6391 12.536 41.7711 12.756C42.0791 13.2547 42.5704 13.504 43.2451 13.504C44.1104 13.504 44.7338 13.0713 45.1151 12.206L46.5231 12.888C46.1858 13.6067 45.7458 14.164 45.2031 14.56C44.6604 14.956 43.9051 15.154 42.9371 15.154C40.6491 15.154 39.5051 13.5113 39.5051 10.226L39.6371 6.15601L37.7671 6.20001L37.9211 5.32001L39.7471 4.55001L40.3631 1.53601H41.8591L41.5291 4.48401L44.4991 4.22001Z" fill="#373043"/>
<path d="M34.2471 0.766006L36.4031 0.656006L36.1611 14.934L34.3791 15L34.2471 0.766006Z" fill="#373043"/>
<path d="M23.0501 12.074C23.4608 12.4994 24.0034 12.8587 24.6781 13.152C25.3674 13.4307 26.0054 13.57 26.5921 13.57C27.1788 13.57 27.6261 13.4234 27.9341 13.13C28.2568 12.8367 28.4181 12.514 28.4181 12.162C28.4181 11.7954 28.2128 11.524 27.8021 11.348C27.3914 11.1574 26.8928 11.0107 26.3061 10.908C25.7341 10.7907 25.1548 10.644 24.5681 10.468C23.9961 10.292 23.5048 9.99136 23.0941 9.56603C22.6834 9.1407 22.4781 8.58336 22.4781 7.89403C22.4781 6.83803 22.8374 5.9947 23.5561 5.36403C24.2894 4.73336 25.1621 4.41803 26.1741 4.41803C27.7141 4.41803 29.0194 4.8507 30.0901 5.71603L29.2761 7.19003C28.9241 6.88203 28.4254 6.60336 27.7801 6.35403C27.1348 6.1047 26.5261 5.98003 25.9541 5.98003C25.3821 5.98003 24.9201 6.13403 24.5681 6.44203C24.2161 6.73536 24.0401 7.1607 24.0401 7.71803C24.0401 8.05536 24.2454 8.3267 24.6561 8.53203C25.0814 8.7227 25.5948 8.88403 26.1961 9.01603C26.7974 9.13336 27.3988 9.28003 28.0001 9.45603C28.6161 9.63203 29.1294 9.92536 29.5401 10.336C29.9654 10.7467 30.1781 11.2747 30.1781 11.92C30.1781 12.844 29.8261 13.5994 29.1221 14.186C28.4328 14.758 27.6114 15.044 26.6581 15.044C25.7194 15.044 24.8394 14.8974 24.0181 14.604C23.2114 14.296 22.5514 13.9 22.0381 13.416C22.2141 13.2107 22.5514 12.7634 23.0501 12.074Z" fill="#373043"/>
<path d="M18.2539 0.766006L20.4099 0.656006L20.1679 14.934L18.3859 15L18.2539 0.766006Z" fill="#373043"/>
<path d="M105.829 34.3187C105.777 35.0398 105.151 35.5825 104.43 35.5308C103.709 35.4792 103.166 34.8527 103.217 34.1315C103.269 33.4104 103.896 32.8677 104.617 32.9194C105.338 32.971 105.881 33.5975 105.829 34.3187Z" fill="#F3693D"/>
<path fill-rule="evenodd" clip-rule="evenodd" d="M107.672 20.7808C107.675 20.6948 107.723 20.6157 107.8 20.5787L109.9 19.5778C110.025 19.5182 110.173 19.5886 110.199 19.7246C110.333 20.4321 110.321 21.1608 110.16 21.8651C109.976 22.6728 109.603 23.4253 109.071 24.0608C108.54 24.6962 107.865 25.1965 107.102 25.5204C106.34 25.8444 105.512 25.9829 104.685 25.9245C103.859 25.866 103.058 25.6124 102.349 25.1843C101.64 24.7562 101.042 24.166 100.605 23.4621C100.168 22.7582 99.9049 21.9607 99.8362 21.1351C99.7767 20.4195 99.8651 19.7005 100.095 19.0226C100.139 18.8911 100.296 18.8421 100.412 18.9191L102.352 20.2121C102.423 20.2594 102.459 20.3436 102.45 20.4284C102.433 20.5906 102.431 20.7546 102.445 20.9182C102.479 21.331 102.611 21.7299 102.829 22.0819C103.048 22.434 103.347 22.7292 103.701 22.9432C104.056 23.1573 104.457 23.2842 104.87 23.3134C105.283 23.3426 105.697 23.2734 106.079 23.1114C106.46 22.9493 106.798 22.6991 107.063 22.3813C107.329 22.0635 107.516 21.6872 107.608 21.2833C107.646 21.1177 107.667 20.9494 107.672 20.7808Z" fill="#77DF81"/>
<path d="M106.361 20.7948C106.309 21.5159 105.683 22.0587 104.961 22.007C104.24 21.9553 103.698 21.3288 103.749 20.6077C103.801 19.8865 104.427 19.3438 105.149 19.3955C105.87 19.4472 106.412 20.0737 106.361 20.7948Z" fill="#544B63"/>
<path fill-rule="evenodd" clip-rule="evenodd" d="M107.979 16.3575C108.679 16.8285 109.253 17.4609 109.655 18.1999C109.713 18.3058 109.668 18.4368 109.559 18.4899L107.601 19.4511C107.493 19.5042 107.363 19.4589 107.301 19.3556C107.104 19.0266 106.837 18.744 106.517 18.5289C106.137 18.273 105.697 18.1213 105.24 18.089C104.783 18.0566 104.325 18.1448 103.913 18.3446C103.579 18.5063 103.285 18.7364 103.048 19.0189C102.972 19.1094 102.84 19.1346 102.742 19.0691L100.924 17.8575C100.823 17.7899 100.796 17.6523 100.869 17.555C101.369 16.8901 102.02 16.3529 102.771 15.9891C103.596 15.5895 104.51 15.4133 105.424 15.4779C106.338 15.5426 107.219 15.8459 107.979 16.3575Z" fill="#544B63"/>
<path fill-rule="evenodd" clip-rule="evenodd" d="M113.086 16.7662C113.195 16.714 113.241 16.5822 113.185 16.4745C112.488 15.1343 111.47 13.9856 110.22 13.1324C108.888 12.2228 107.338 11.6813 105.729 11.5625C104.12 11.4437 102.508 11.7519 101.056 12.4558C99.676 13.1251 98.487 14.1296 97.597 15.3759C97.5266 15.4746 97.5535 15.6113 97.6544 15.6785L99.453 16.8772C99.5524 16.9435 99.6864 16.9172 99.757 16.8208C100.389 15.9574 101.224 15.2606 102.189 14.7926C103.23 14.2881 104.385 14.0672 105.538 14.1524C106.691 14.2375 107.801 14.6256 108.756 15.2774C109.629 15.8729 110.344 16.6693 110.842 17.5977C110.898 17.7028 111.027 17.7477 111.134 17.6963L113.086 16.7662Z" fill="#544B63"/>
<path fill-rule="evenodd" clip-rule="evenodd" d="M111.413 19.0588C111.386 18.9554 111.435 18.8466 111.531 18.8006L113.509 17.8576C113.627 17.8014 113.768 17.8606 113.807 17.9854C114.225 19.3345 114.327 20.7636 114.101 22.1608C113.86 23.6585 113.25 25.0728 112.327 26.2767C111.404 27.4807 110.197 28.4366 108.813 29.0588C108.021 29.4151 107.185 29.6555 106.331 29.7756C106.228 29.7902 106.147 29.8742 106.14 29.9784L106.032 31.4896C106.023 31.6098 105.919 31.7003 105.798 31.6917L103.622 31.5358C103.502 31.5271 103.412 31.4227 103.42 31.3025L103.701 27.3853C103.709 27.2651 103.814 27.1747 103.934 27.1833L105.113 27.2678C106.02 27.2597 106.917 27.0638 107.748 26.6903C108.739 26.2445 109.605 25.5594 110.266 24.6967C110.928 23.8339 111.364 22.8205 111.538 21.7472C111.682 20.8502 111.639 19.9348 111.413 19.0588Z" fill="#544B63"/>
</svg>
