<svg viewBox="0 0 831 830" fill="none" xmlns="http://www.w3.org/2000/svg">
<path d="M200.02 796.111C239.96 814.056 372.53 837.616 467.64 826.936C589.67 813.236 685.87 745.415 739.93 679.439C919.33 460.508 803.43 59.7325 634.451 6.66046C603.791 -2.96754 574.231 -0.260531 537.841 3.06947C422.131 13.6645 387.73 69.4705 264.87 107.002C153.05 141.157 140.47 107.482 90.7604 139.421C-17.0696 208.704 -12.0495 402.338 20.5205 545.624C33.6705 603.488 53.8504 730.433 200.02 796.111Z" fill="#CADDFF"/>
<path d="M172.521 255.101C171.711 255.101 171.041 254.457 171.021 253.642C170.991 252.814 171.65 252.125 172.48 252.103L177.781 251.962C178.581 251.918 179.301 252.591 179.321 253.42C179.351 254.249 178.69 254.939 177.86 254.961L172.561 255.1C172.541 255.101 172.531 255.101 172.521 255.101Z" fill="black"/>
<path d="M192.571 254.572C191.761 254.572 191.091 253.926 191.071 253.112C191.051 252.284 191.701 251.594 192.531 251.573L197.841 251.432C197.851 251.431 197.871 251.431 197.881 251.431C198.691 251.431 199.361 252.077 199.381 252.891C199.401 253.719 198.751 254.409 197.921 254.43L192.611 254.571C192.601 254.572 192.581 254.572 192.571 254.572Z" fill="black"/>
<path d="M185.53 267.446C184.72 267.446 184.05 266.8 184.03 265.986L183.89 260.678C183.87 259.85 184.52 259.161 185.35 259.139C186.14 259.095 186.87 259.769 186.89 260.598L187.03 265.906C187.05 266.734 186.4 267.423 185.57 267.445C185.56 267.446 185.54 267.446 185.53 267.446Z" fill="black"/>
<path d="M185.001 247.393C184.191 247.393 183.521 246.749 183.501 245.934L183.361 240.625C183.341 239.796 183.991 239.107 184.821 239.086C185.621 239.032 186.341 239.717 186.361 240.546L186.501 245.853C186.521 246.681 185.871 247.371 185.041 247.392C185.031 247.393 185.011 247.393 185.001 247.393Z" fill="black"/>
<path d="M508.841 548.311L354.781 549.276C353.791 549.276 353.461 550.204 353.461 551.095V682.163C353.461 694.711 265.931 727.316 265.081 725.658L264.971 739.529C264.961 742.111 267.231 744.403 270.131 744.403H401.261C407.251 744.403 413.171 743.061 418.601 740.791L489.611 710.885C502.401 705.503 510.461 693.942 510.461 681.331V550.129C510.461 549.238 509.841 548.311 508.841 548.311Z" fill="#99B9FF"/>
<path d="M337.86 541.642V672.739C337.86 685.662 329.541 697.437 316.471 703.015L268.571 723.462C265.441 724.798 266.501 728.992 269.971 728.992H401.601C407.521 728.992 413.361 727.823 418.721 725.569L471.8 703.221C484.96 697.678 493.36 685.857 493.36 672.869V541.642C493.36 541.106 492.87 540.67 492.27 540.67H338.951C338.351 540.67 337.86 541.106 337.86 541.642Z" fill="white"/>
<path d="M50.8906 615.926L684.331 617.308L695.331 617.333L715.781 617.376C721.591 617.376 726.371 612.837 727.111 607.061L780.071 193.153C781.361 183.083 774.021 173.572 763.881 173.572L107.591 174.169L50.8906 615.926Z" fill="#5479F7"/>
<path d="M739.26 173.478C750.69 173.478 759.98 184.982 758.52 196.341L705.17 607.081C704.43 612.856 699.52 617.18 693.71 617.18L688.71 617.371L42.1003 617.18C35.1403 617.18 29.7602 611.044 30.6502 604.116L85.0703 185.02C85.8103 179.244 90.2502 173.478 96.0602 173.478H739.26Z" fill="#99B9FF"/>
<path d="M70.2805 300.383C70.2205 300.383 70.1506 300.379 70.0906 300.371C69.2706 300.264 68.6905 299.511 68.7905 298.69L80.0605 211.928C80.1705 211.107 80.9205 210.525 81.7405 210.634C82.5605 210.741 83.1405 211.494 83.0305 212.315L71.7705 299.077C71.6705 299.833 71.0305 300.383 70.2805 300.383Z" fill="black"/>
<path d="M84.4607 618.693L42.1008 618.68C38.3608 618.68 34.7907 617.065 32.3107 614.25C29.8307 611.423 28.6807 607.661 29.1607 603.924L41.6107 508.044C41.7207 507.222 42.4707 506.636 43.2907 506.75C44.1107 506.856 44.6907 507.609 44.5807 508.43L32.1307 604.309C31.7607 607.188 32.6507 610.089 34.5707 612.268C36.4707 614.436 39.2208 615.68 42.1008 615.68L84.4607 615.693C85.2907 615.693 85.9607 616.365 85.9607 617.193C85.9607 618.022 85.2807 618.693 84.4607 618.693Z" fill="black"/>
<path d="M557.121 618.833L342.461 618.769C341.631 618.769 340.961 618.097 340.961 617.269C340.961 616.44 341.631 615.769 342.461 615.769L557.121 615.833C557.951 615.833 558.621 616.504 558.621 617.333C558.621 618.162 557.951 618.833 557.121 618.833Z" fill="black"/>
<path d="M710.68 566.175C710.62 566.175 710.55 566.171 710.49 566.163C709.66 566.056 709.08 565.303 709.19 564.482L757.03 196.148C757.69 190.969 755.89 185.37 752.19 181.171C748.73 177.235 744.02 174.977 739.26 174.977H673.12C672.29 174.977 671.62 174.305 671.62 173.477C671.62 172.649 672.29 171.977 673.12 171.977H739.26C744.88 171.977 750.42 174.606 754.45 179.189C758.76 184.098 760.79 190.42 760 196.533L712.17 564.869C712.07 565.625 711.42 566.175 710.68 566.175Z" fill="black"/>
<path d="M674.36 675.51C663.85 656.722 665.16 647.917 668.15 643.349C673.49 635.213 685.43 638.643 690.72 629.808C696.17 620.72 686.3 612.466 689.97 600.818C694.31 587.04 715.83 574.043 729.65 581.849C741.47 588.525 744.58 608.679 737.55 619.088C729.75 630.641 712.57 625.594 707.73 636.361C703.27 646.265 715.52 655.644 711.6 664.79C709.35 670.039 701.5 675.85 674.36 675.51Z" fill="white"/>
<path d="M672.381 684.672C672.221 684.672 672.061 684.646 671.891 684.59C671.111 684.319 670.701 683.464 670.971 682.682C690.261 626.939 715.531 608.901 716.601 608.16C717.281 607.689 718.211 607.856 718.681 608.536C719.161 609.214 718.991 610.149 718.311 610.623C718.061 610.8 692.741 628.959 673.801 683.663C673.591 684.284 673.011 684.672 672.381 684.672Z" fill="#99B9FF"/>
<path d="M658.06 669.027C657.95 651.48 662.97 640.797 667.58 634.283C676 622.402 685.32 621.177 688.53 609.699C691.56 598.854 684.46 595.571 686.84 583.358C689.67 568.815 700.83 567.814 703.71 555.838C707.21 541.266 692.81 533.892 685.58 513.431C676.22 486.961 691.73 474.983 688.18 450.264C682.43 410.144 631.74 373.167 610.05 383.246C589.61 392.75 588.12 447.274 604.64 486.885C622.25 529.111 649.53 528.502 653.5 563.795C656.24 588.185 644.79 602.481 650.68 639.965C652.67 652.656 655.83 662.744 658.06 669.027Z" fill="#5479F7"/>
<path d="M663.43 685.474C662.86 685.474 662.32 685.15 662.07 684.599C651.51 661.549 655.79 636.318 661.21 604.375C664.05 587.607 667.27 568.602 668.52 547.685C671.99 489.412 623.3 418.895 622.81 418.19C622.34 417.51 622.5 416.576 623.18 416.101C623.86 415.629 624.8 415.794 625.27 416.473C625.77 417.187 675.05 488.561 671.52 547.863C670.26 568.943 667.02 588.033 664.17 604.876C658.83 636.311 654.62 661.14 664.79 683.349C665.14 684.103 664.81 684.993 664.06 685.337C663.85 685.43 663.64 685.474 663.43 685.474Z" fill="#99B9FF"/>
<path d="M645.121 673.304C642.761 662.141 640.281 645.695 641.111 625.859C642.461 593.525 651.431 579.763 642.411 567.679C632.471 554.359 615.731 563.278 603.871 547.432C595.791 536.629 599.841 527.499 588.741 517.332C586.621 515.394 579.741 509.254 570.021 508.501C561.001 507.803 557.821 512.381 546.311 516.394C525.471 523.666 516.181 515.522 508.521 523.17C501.731 529.941 500.381 544.94 506.851 553.212C519.041 568.793 551.271 550.649 563.371 565.426C573.701 578.045 555.891 598.251 567.201 612.317C577.381 624.99 597.771 615.979 606.131 629.244C612.521 639.386 603.571 649.375 609.491 659.948C615.671 670.975 632.671 673.087 645.121 673.304Z" fill="white"/>
<path d="M652.88 684.993C652.56 684.993 652.23 684.89 651.96 684.679C641.31 676.448 637.65 662.811 632.09 642.169C627.91 626.619 622.71 607.265 612.65 583.564C590.12 530.493 528.68 536.593 528.07 536.66C527.24 536.748 526.5 536.156 526.41 535.333C526.32 534.508 526.92 533.768 527.74 533.677C528.39 533.606 543.96 531.979 562.65 537.11C579.97 541.863 603.18 553.578 615.41 582.392C625.55 606.285 630.79 625.75 634.99 641.39C640.38 661.444 643.95 674.692 653.8 682.306C654.45 682.813 654.57 683.754 654.06 684.411C653.77 684.793 653.33 684.993 652.88 684.993Z" fill="#99B9FF"/>
<path d="M614.03 683.172C615.77 683.951 705.66 683.172 705.66 683.172L694.44 774.904C694.14 777.381 693.6 779.834 692.69 782.159C688.27 793.421 677.34 801.103 664.89 801.103C650.97 801.103 638.9 791.489 635.79 777.924L614.03 683.172Z" fill="#5479F7"/>
<path d="M630.611 59.0552C630.231 59.0552 629.841 58.9092 629.551 58.6162C628.961 58.0312 628.961 57.0812 629.551 56.4952L633.041 53.0052C633.621 52.4202 634.571 52.4202 635.161 53.0052C635.751 53.5902 635.751 54.5412 635.161 55.1272L631.671 58.6162C631.381 58.9092 630.991 59.0552 630.611 59.0552Z" fill="black"/>
<path d="M643.791 45.8752C643.411 45.8752 643.021 45.7282 642.731 45.4352C642.141 44.8492 642.141 43.8992 642.731 43.3142L646.221 39.8262C646.801 39.2402 647.751 39.2402 648.341 39.8262C648.931 40.4122 648.931 41.3622 648.341 41.9472L644.851 45.4352C644.561 45.7282 644.171 45.8752 643.791 45.8752Z" fill="black"/>
<path d="M647.281 59.0552C646.901 59.0552 646.511 58.9092 646.221 58.6162L642.731 55.1272C642.141 54.5412 642.141 53.5912 642.731 53.0052C643.321 52.4202 644.261 52.4202 644.851 53.0052L648.341 56.4952C648.931 57.0812 648.931 58.0302 648.341 58.6162C648.051 58.9092 647.661 59.0552 647.281 59.0552Z" fill="black"/>
<path d="M634.101 45.8752C633.711 45.8752 633.331 45.7282 633.041 45.4352L629.551 41.9472C628.961 41.3612 628.961 40.4122 629.551 39.8262C630.141 39.2402 631.081 39.2402 631.671 39.8262L635.161 43.3142C635.751 43.9002 635.751 44.8492 635.161 45.4352C634.871 45.7282 634.481 45.8752 634.101 45.8752Z" fill="black"/>
<path d="M13.2203 321.125C12.8403 321.125 12.4503 320.978 12.1603 320.685C11.5703 320.099 11.5703 319.15 12.1603 318.564L15.6503 315.075C16.2303 314.489 17.1803 314.489 17.7703 315.075C18.3503 315.661 18.3503 316.61 17.7703 317.196L14.2803 320.685C13.9903 320.978 13.6003 321.125 13.2203 321.125Z" fill="black"/>
<path d="M26.4009 307.945C26.0209 307.945 25.6309 307.798 25.3409 307.505C24.7509 306.92 24.7509 305.97 25.3409 305.384L28.8309 301.896C29.4109 301.31 30.3609 301.31 30.9509 301.896C31.5409 302.482 31.5409 303.431 30.9509 304.017L27.4609 307.505C27.1709 307.798 26.7809 307.945 26.4009 307.945Z" fill="black"/>
<path d="M29.8909 321.125C29.5009 321.125 29.1209 320.978 28.8309 320.685L25.3409 317.196C24.7509 316.61 24.7509 315.661 25.3409 315.075C25.9309 314.489 26.8809 314.489 27.4609 315.075L30.9509 318.564C31.5409 319.15 31.5409 320.099 30.9509 320.685C30.6609 320.978 30.2709 321.125 29.8909 321.125Z" fill="black"/>
<path d="M16.7103 307.945C16.3203 307.945 15.9403 307.798 15.6503 307.505L12.1603 304.017C11.5703 303.431 11.5703 302.482 12.1603 301.896C12.7403 301.31 13.6903 301.31 14.2803 301.896L17.7703 305.384C18.3503 305.97 18.3503 306.92 17.7703 307.505C17.4803 307.798 17.0903 307.945 16.7103 307.945Z" fill="black"/>
<path d="M599.371 19.1504C596.781 19.1504 594.681 21.2564 594.681 23.8454C594.681 26.4344 596.781 28.5414 599.371 28.5414C601.961 28.5414 604.071 26.4344 604.071 23.8454C604.071 21.2564 601.961 19.1504 599.371 19.1504ZM599.371 31.5414C595.131 31.5414 591.681 28.0884 591.681 23.8454C591.681 19.6024 595.131 16.1504 599.371 16.1504C603.611 16.1504 607.071 19.6024 607.071 23.8454C607.071 28.0884 603.611 31.5414 599.371 31.5414Z" fill="black"/>
<path d="M13.0702 384.104C10.4802 384.104 8.37012 386.21 8.37012 388.798C8.37012 391.387 10.4802 393.494 13.0702 393.494C15.6602 393.494 17.7601 391.387 17.7601 388.798C17.7601 386.21 15.6602 384.104 13.0702 384.104ZM13.0702 396.494C8.82019 396.494 5.37012 393.042 5.37012 388.798C5.37012 384.556 8.82019 381.104 13.0702 381.104C17.3102 381.104 20.7601 384.556 20.7601 388.798C20.7601 393.042 17.3102 396.494 13.0702 396.494Z" fill="black"/>
<path d="M795.24 384.884C795.16 384.884 795.08 384.886 795 384.89C793.75 384.954 792.59 385.501 791.75 386.43C790.91 387.361 790.48 388.563 790.55 389.815C790.61 391.068 791.16 392.221 792.09 393.062C793.02 393.903 794.21 394.329 795.47 394.268C796.72 394.205 797.88 393.658 798.72 392.728C799.56 391.797 799.99 390.595 799.92 389.343C799.8 386.837 797.72 384.884 795.24 384.884ZM795.23 397.274C793.32 397.274 791.5 396.577 790.08 395.288C788.55 393.91 787.65 392.02 787.55 389.967C787.45 387.914 788.15 385.944 789.53 384.418C790.91 382.894 792.79 381.998 794.85 381.894C799.08 381.664 802.71 384.953 802.92 389.191C803.02 391.245 802.32 393.214 800.94 394.74C799.57 396.264 797.68 397.161 795.62 397.264C795.49 397.271 795.36 397.274 795.23 397.274Z" fill="black"/>
<path d="M781.331 589.502C781.091 589.502 780.861 589.447 780.631 589.33C779.901 588.944 779.621 588.037 780.001 587.303C797.591 553.913 809.071 517.429 814.121 478.868C814.221 478.045 814.991 477.466 815.801 477.574C816.621 477.681 817.201 478.435 817.091 479.256C812.001 518.172 800.411 554.995 782.661 588.702C782.391 589.211 781.871 589.502 781.331 589.502Z" fill="black"/>
<path d="M817.45 462.922C817.41 462.922 817.371 462.92 817.331 462.918C816.511 462.852 815.89 462.13 815.96 461.304C816.36 456.142 816.661 450.882 816.841 445.671C816.871 444.843 817.571 444.171 818.391 444.223C819.221 444.252 819.871 444.945 819.841 445.773C819.661 451.029 819.36 456.334 818.95 461.541C818.89 462.326 818.23 462.922 817.45 462.922Z" fill="black"/>
<path d="M776.601 560.372C776.411 560.372 776.21 560.335 776.02 560.255C775.26 559.936 774.9 559.057 775.22 558.293C792.96 515.891 800.47 470.029 797.57 421.981C797.52 421.154 798.15 420.443 798.97 420.393C799.82 420.325 800.51 420.972 800.56 421.799C803.5 470.309 795.9 516.622 777.99 559.451C777.75 560.026 777.191 560.372 776.601 560.372Z" fill="black"/>
<path d="M402.061 151.931C402.061 123.06 388.841 80.0696 325.181 82.6816C328.771 46.1186 293.931 -4.12737 218.031 0.465628C181.391 2.68263 173.881 28.3916 169.911 27.1056C118.811 10.5706 51.1205 47.7576 65.0105 106.549C36.6205 109.351 18.4306 132.134 19.0906 160.611C19.5206 179.111 31.2806 193.339 50.3306 193.339H359.221C382.251 193.339 401.461 175.674 402.041 153.318C402.061 152.858 402.061 152.395 402.061 151.931Z" fill="#99B9FF"/>
<path d="M411.031 156.957C411.031 128.827 392.391 73.6343 330.051 76.1793C316.521 20.7163 287.91 4.4943 236.99 4.0823C187.27 3.6803 178.121 36.2623 174.291 34.8533C120.791 15.1633 64.2406 59.0053 75.1006 110.704C47.3106 113.433 32.5605 136.827 32.5605 164.404V164.776C32.6905 182.806 47.9805 197.303 66.6405 197.303H369.071C391.631 197.303 410.43 180.09 411.01 158.309C411.02 157.859 411.031 157.409 411.031 156.957Z" fill="#CADDFF"/>
<path d="M147.49 31.5721C129.64 31.5721 112.081 37.8711 98.2106 49.8611C80.0006 65.5941 71.9106 88.2241 76.5706 110.395C76.6606 110.812 76.5705 111.247 76.3105 111.59C76.0605 111.934 75.6705 112.155 75.2505 112.197C50.2305 114.654 34.0605 135.146 34.0605 164.404V164.771C34.1805 181.879 48.8005 195.802 66.6405 195.802H369.071C390.821 195.802 408.96 178.965 409.51 158.269C409.52 157.834 409.531 157.396 409.531 156.957C409.531 140.172 402.97 114.278 384.49 96.5391C370.51 83.1211 352.22 76.7711 330.11 77.6771C329.41 77.7041 328.771 77.2271 328.601 76.5341C316.081 25.2511 291.25 6.0211 236.98 5.5831C236.69 5.5801 236.391 5.5791 236.101 5.5791C199.631 5.5791 185.62 23.9861 179.61 31.8821C177.1 35.1681 175.731 36.9831 173.771 36.2601C165.211 33.1111 156.31 31.5721 147.49 31.5721ZM369.071 198.802H66.6405C47.1605 198.802 31.1905 183.544 31.0605 164.788V164.404C31.0605 134.131 47.5906 112.727 73.3206 109.397C69.1406 86.6641 77.6405 63.6681 96.2405 47.5901C117.72 29.0371 147.67 23.5871 174.49 33.3311C175.06 32.8941 176.201 31.3991 177.221 30.0641C183.501 21.8141 198.151 2.5791 236.091 2.5791C236.401 2.5791 236.7 2.5801 237.01 2.5831C264.47 2.8041 283.981 7.79009 298.421 18.2721C313.991 29.5701 324.421 47.4991 331.221 74.6361C353.621 73.9831 372.241 80.6191 386.571 94.3741C405.731 112.768 412.531 139.583 412.531 156.957C412.531 157.421 412.52 157.886 412.51 158.348C411.92 180.655 392.431 198.802 369.071 198.802Z" fill="#5479F7"/>
<path d="M319.151 110.214L367.211 86.6231C406.331 67.4261 442.821 43.3051 475.811 14.8471L478.171 0.237137C478.171 0.237137 494.471 0.415126 497.951 0.216126C502.411 -0.0378744 506.941 1.52313 510.351 4.86113C546.161 39.9031 586.921 69.4871 631.341 92.6641L662.771 109.062C670.071 112.872 672.761 119.588 670.561 129.241L629.491 302.739C611.611 351.277 539.611 416.229 499.081 450.039C491.711 456.19 482.701 459.193 473.741 459.138C469.761 459.113 453.291 459.636 453.291 459.636C453.291 459.636 449.801 452.695 445.191 448.009C408.771 411.005 344.871 339.772 331.911 283.679L310.411 128.601C308.701 121.186 312.321 113.567 319.151 110.214Z" fill="#5479F7"/>
<path d="M300.951 111.146L348.641 87.7392C387.441 68.6912 423.661 44.7582 456.391 16.5222L468.681 5.9232C475.071 0.409197 484.621 0.709206 490.661 6.61421C526.191 41.3822 566.641 70.7362 610.711 93.7322L641.891 110.003C649.131 113.783 652.451 122.356 649.621 130.024L608.871 302.173C591.131 350.333 518.931 415.385 478.711 448.932C463.141 461.921 440.221 460.763 426.001 446.312C389.871 409.596 326.461 338.918 313.611 283.261L292.271 129.39C290.571 122.032 294.171 114.474 300.951 111.146Z" fill="white"/>
<path d="M330.24 131.588L369.73 112.207C401.86 96.4365 431.84 76.6205 458.95 53.2415L469.12 44.4665C474.41 39.9005 482.32 40.1495 487.32 45.0385C516.73 73.8255 550.22 98.1295 586.71 117.17L612.53 130.642C618.53 133.772 621.27 140.87 618.93 147.219L585.19 289.753C570.51 329.628 510.72 383.488 477.43 411.264C464.54 422.019 445.56 421.061 433.78 409.095C403.86 378.695 351.37 320.176 340.73 274.094L323.06 146.693C321.65 140.602 324.63 134.343 330.24 131.588Z" fill="#CADDFF"/>
<path d="M453.83 459.377C443.29 459.378 432.77 455.33 424.93 447.364C388.35 410.196 325.06 339.496 312.15 283.598C312.14 283.554 312.13 283.51 312.12 283.466L306.61 243.691C306.49 242.871 307.07 242.113 307.89 242C308.7 241.882 309.46 242.458 309.58 243.279L315.08 282.988C327.86 338.159 390.72 408.331 427.07 445.26C440.65 459.055 462.91 460.161 477.75 447.781C518.64 413.67 589.83 349.357 607.43 301.738L648.16 129.679C648.18 129.621 648.19 129.563 648.21 129.506C650.77 122.567 647.75 114.753 641.2 111.333L610.01 95.0623C565.78 71.9813 525.27 42.5843 489.61 7.68632C484.08 2.28131 475.51 2.01132 469.66 7.05932L457.37 17.6583C424.56 45.9613 388.2 69.9933 349.3 89.0863L301.61 112.493C295.42 115.529 292.18 122.338 293.73 129.052C293.75 129.096 293.75 129.14 293.76 129.184L302.91 195.212C303.03 196.033 302.45 196.791 301.63 196.904C300.81 197.021 300.06 196.446 299.94 195.625L290.8 129.661C288.97 121.603 292.86 113.443 300.29 109.799L347.98 86.3923C386.65 67.4123 422.79 43.5223 455.41 15.3863L467.7 4.78832C474.74 -1.28468 485.06 -0.962682 491.7 5.54232C527.16 40.2333 567.43 69.4583 611.4 92.4023L642.58 108.672C650.45 112.775 654.08 122.127 651.06 130.457L610.33 302.518C610.31 302.577 610.3 302.634 610.28 302.691C592.49 350.973 520.82 415.761 479.67 450.084C472.21 456.308 463.01 459.377 453.83 459.377Z" fill="black"/>
<path d="M493.801 127.499L494.521 173.156L511.721 173.855L511.141 127.746C510.591 103.887 490.211 84.2935 467.941 83.3875V83.3645C440.981 82.2685 420.071 103.709 420.681 129.828L420.881 169.279L438.001 168.959L437.681 128.793C437.301 112.534 450.781 99.2494 467.031 99.9954C481.771 100.672 493.461 112.748 493.801 127.499Z" fill="white"/>
<path d="M510.201 172.292L496.001 171.714L495.301 127.464C494.941 111.931 482.561 99.2083 467.101 98.4973C458.861 98.1193 451.051 101.1 445.121 106.894C439.251 112.636 435.991 120.63 436.181 128.828L436.501 169.994H439.502L439.501 169.925L439.181 128.758C439.001 121.39 441.941 114.203 447.221 109.039C452.541 103.833 459.561 101.166 466.961 101.493C480.851 102.131 491.981 113.57 492.301 127.522L493.021 173.179C493.041 173.975 493.671 174.623 494.461 174.655L511.661 175.354C511.681 175.355 511.701 175.355 511.721 175.355C512.111 175.355 512.491 175.204 512.771 174.93C513.061 174.643 513.231 174.248 513.221 173.837L512.641 127.712C512.091 103.924 491.801 83.0084 468.271 81.9004C468.181 81.8804 468.091 81.8694 468.001 81.8654C454.781 81.3374 442.371 86.0303 433.131 95.1093C423.831 104.256 418.871 116.599 419.181 129.849L419.381 169.3H422.381L422.381 169.257L422.181 129.793C421.891 117.367 426.531 105.809 435.241 97.2494C443.821 88.8174 455.301 84.4213 467.621 84.8533C467.701 84.8723 467.791 84.8823 467.881 84.8863C490.001 85.7853 509.121 105.429 509.641 127.765L510.201 172.292Z" fill="black"/>
<path d="M479.441 298.688L460.181 299.448C433.511 298.782 409.941 266.909 412.471 229.447L416.511 169.52L529.871 168.61C539.931 168.571 548.351 177.542 547.661 187.577L544.161 238.189C541.861 272.241 513.571 298.688 479.441 298.688Z" fill="#5479F7"/>
<path d="M460.87 297.75C423.32 297.75 393.62 265.968 396.15 228.505L399.639 176.937C399.887 173.263 402.94 170.409 406.623 170.409H519.92C525.44 170.409 529.8 175.075 529.42 180.575L525.591 237.254C523.291 271.305 495 297.75 460.87 297.75Z" fill="white"/>
<path d="M460.871 299.25C428.131 299.25 399.901 274.863 395.191 242.524C395.071 241.705 395.641 240.943 396.461 240.824C397.281 240.704 398.041 241.272 398.161 242.092C402.651 272.967 429.611 296.25 460.871 296.25C494.081 296.25 521.861 270.292 524.101 237.153L527.951 180.175C528.091 178.012 527.361 175.949 525.881 174.365C524.401 172.781 522.391 171.909 520.221 171.909H409.461C404.981 171.909 401.241 175.407 400.941 179.874L400.401 187.813C400.351 188.639 399.621 189.253 398.811 189.209C397.981 189.152 397.351 188.437 397.411 187.61L397.951 179.67C398.351 173.636 403.411 168.909 409.461 168.909H520.221C523.191 168.909 526.051 170.151 528.071 172.316C530.091 174.482 531.141 177.42 530.941 180.378L527.091 237.356C524.741 272.062 495.661 299.25 460.871 299.25Z" fill="black"/>
<path d="M459.38 260.999C456.32 260.999 453.901 258.416 454.091 255.362L456.971 210.198C457.151 207.409 459.46 205.237 462.26 205.237C465.32 205.237 467.741 207.82 467.551 210.873L464.671 256.037C464.491 258.827 462.17 260.999 459.38 260.999Z" fill="black"/>
<path d="M480.75 214.306C480.75 225.08 472.01 233.815 461.24 233.815C450.46 233.815 441.73 225.08 441.73 214.306C441.73 203.531 450.46 194.796 461.24 194.796C472.01 194.796 480.75 203.531 480.75 214.306Z" fill="black"/>
<path d="M170.581 641.83C152.661 666.668 140.401 703.619 130.181 753.461C170.241 798.043 271.771 820.006 350.311 826.486C344.731 760.168 333.211 676.001 333.211 676.001L170.581 641.83Z" fill="black"/>
<path d="M355.68 462.235C355.68 462.235 395.73 489.195 414.45 484.118C440.8 476.973 452.39 409.862 453.53 403.904C454.66 397.946 459.74 367.739 465 356.467C469.95 345.874 472.96 335.03 474.55 328.364C475.51 324.345 478.24 322.402 480.96 322.815C483.34 323.177 484.92 325.046 483.58 331.038C482.03 337.969 480.65 344.94 479.38 350.867C478.99 352.733 478.23 354.496 479.54 353.17C482.6 350.084 486.6 347.051 489.72 348.185C495.6 350.315 501.87 370.133 495.55 385.828C489.24 401.522 479.15 399.76 477.4 407.15C475.65 414.542 466.55 508.285 459.27 525.446C448.79 550.125 348.33 532.114 348.33 532.114L355.68 462.235Z" fill="white"/>
<path d="M349.97 530.879C378.57 535.858 449.81 543.885 457.89 524.86C462.99 512.848 469.12 461.637 472.78 431.041C474.31 418.257 475.42 409.022 475.94 406.806C476.82 403.095 479.39 401.387 482.37 399.409C486.08 396.944 490.7 393.876 494.16 385.268C498.33 374.904 496.74 362.386 493.51 355.141C492.17 352.16 490.57 350.086 489.21 349.594C487.33 348.908 484.2 350.602 480.61 354.226C480.24 354.596 479.27 355.579 478.12 354.923C476.96 354.261 477.29 353.039 477.62 351.744C477.72 351.376 477.83 350.967 477.92 350.553C478.39 348.354 478.87 346.011 479.38 343.581C480.25 339.401 481.14 335.079 482.12 330.711C482.95 327.014 482.45 325.562 482.09 325.026C481.9 324.754 481.58 324.426 480.73 324.298C478.62 323.975 476.71 325.75 476.01 328.711C474.29 335.912 471.23 346.682 466.36 357.102C461.77 366.927 457.24 391.895 455.53 401.294C455.31 402.526 455.13 403.509 455 404.184L454.86 404.965C450.76 427.048 438.66 479.108 414.85 485.565C397.95 490.15 365.5 470.354 356.91 464.837L349.97 530.879ZM414.13 539.944C384.09 539.945 350.47 534.02 348.07 533.59L346.7 533.344L354.45 459.599L356.52 460.992C356.88 461.235 389.86 483.263 409.12 483.265C410.9 483.265 412.55 483.079 414.06 482.67C436.85 476.489 448.79 421.212 451.91 404.418L452.05 403.624C452.18 402.955 452.36 401.979 452.58 400.758C454.31 391.254 458.89 366.009 463.64 355.833C468.4 345.642 471.41 335.081 473.09 328.016C474.16 323.519 477.49 320.784 481.18 321.332C482.67 321.558 483.81 322.231 484.56 323.333C485.72 325.023 485.88 327.651 485.05 331.366C484.07 335.71 483.18 340.021 482.32 344.19C481.93 346.071 481.55 347.899 481.18 349.649C484.67 346.825 487.71 345.856 490.23 346.774C493.01 347.782 495.04 351.215 496.25 353.918C499.85 361.984 501.46 375.152 496.94 386.387C493.13 395.86 487.87 399.355 484.03 401.908C481.28 403.733 479.46 404.939 478.86 407.496C478.38 409.546 477.22 419.189 475.76 431.397C472.08 462.153 465.91 513.628 460.65 526.032C456.08 536.787 436.06 539.944 414.13 539.944Z" fill="black"/>
<path d="M118.941 494.113L90.3509 560.778C89.9309 561.752 89.4608 562.698 88.9808 563.646C79.8408 582.041 89.5508 604.474 109.541 610.201L195.771 634.896L198.051 598.325L151.871 583.881C142.931 581.087 138.921 570.71 143.651 562.636L151.661 548.978L118.941 494.113Z" fill="white"/>
<path d="M119.16 497.409L91.7301 561.37C91.3401 562.291 90.8902 563.183 90.4602 564.045L90.3302 564.314C86.1402 572.723 85.9301 582.495 89.7301 591.121C93.5301 599.737 100.9 606.166 109.96 608.758L194.39 632.94L196.48 599.405L151.42 585.313C146.72 583.844 143.01 580.369 141.24 575.779C139.46 571.19 139.87 566.123 142.36 561.877L149.91 548.985L119.16 497.409ZM197.15 636.852L109.13 611.643C99.2201 608.803 91.1401 601.764 86.9901 592.332C82.8201 582.886 83.0601 572.188 87.6401 562.978L87.7802 562.708C88.2102 561.845 88.6102 561.03 88.9702 560.188L118.72 490.817L153.4 548.971L144.95 563.395C142.93 566.846 142.59 570.966 144.03 574.698C145.48 578.43 148.49 581.255 152.31 582.45L199.62 597.245L197.15 636.852Z" fill="black"/>
<path d="M187.1 425.758C235.39 404.215 328.7 408.683 394.16 478.936C401.86 487.196 379.62 549.505 359.8 545.219C345.11 542.042 332.69 538.446 328.28 543.35C327.06 544.697 326.8 546.291 326.66 547.192C321.12 582.446 331.92 626.582 331.92 626.582C338.38 652.981 345.36 681.532 335.4 703.227C308.49 761.834 170.87 743.446 138.68 725.751C125.43 718.468 139.35 698.422 149.08 633.032C156.34 584.322 160.57 543.962 151.58 559.532C147.18 567.173 101.04 521.222 105.86 507.497C116.42 477.4 135 449.006 187.1 425.758Z" fill="#5479F7"/>
<path d="M154.731 554.634C154.991 554.634 155.241 554.677 155.511 554.769C157.751 555.551 161.931 557.007 150.571 633.253C146.851 658.205 142.511 676.658 139.341 690.132C134.291 711.593 132.201 720.476 139.401 724.438C163.471 737.671 243.521 750.363 294.221 733.627C314.221 727.023 327.621 716.585 334.041 702.602C343.781 681.383 337.011 653.706 330.461 626.94C330.351 626.495 319.651 582.105 325.171 546.961C325.321 546.015 325.631 544.045 327.161 542.347C331.621 537.388 341.891 539.685 354.881 542.593C356.581 542.975 358.331 543.368 360.121 543.753C366.231 545.078 373.861 538.605 381.021 526C391.551 507.482 396.811 483.983 393.061 479.959C355.911 440.088 313.201 425.019 283.911 419.398C249.381 412.77 213.421 415.662 187.711 427.128C133.321 451.399 116.521 481.627 107.271 507.995C103.741 518.068 134.411 552.171 147.471 558.169C149.381 559.044 150.201 558.926 150.291 558.783C151.431 556.8 152.931 554.634 154.731 554.634ZM235.581 744.576C194.901 744.577 154.091 735.935 137.961 727.067C128.751 722.007 131.161 711.802 136.421 689.445C139.581 676.022 143.901 657.638 147.601 632.812C156.481 573.172 155.661 560.425 154.561 557.894C154.241 558.214 153.691 558.888 152.881 560.283C152.121 561.605 150.351 562.786 146.221 560.895C134.161 555.358 99.781 520.296 104.441 507.001C113.911 480.03 131.051 449.123 186.491 424.388C212.731 412.68 249.361 409.711 284.471 416.452C314.201 422.157 357.561 437.452 395.261 477.914C400.791 483.853 393.491 510.133 383.631 527.482C375.661 541.508 367.081 548.329 359.481 546.685C357.691 546.298 355.931 545.905 354.221 545.521C342.661 542.933 332.681 540.697 329.391 544.355C328.461 545.39 328.261 546.665 328.141 547.426C322.711 581.983 333.271 625.788 333.381 626.226C339.741 652.222 346.941 681.685 336.771 703.854C329.981 718.625 315.991 729.6 295.161 736.475C277.631 742.263 256.621 744.575 235.581 744.576Z" fill="black"/>
<path d="M306.61 314.716C311.02 315.683 313.96 324.2 315.13 328.558C318.97 342.909 315.18 378.003 304.85 381.424C294.67 384.794 295.03 379.988 287.58 385.289C281.63 389.52 281.51 396.061 280.19 410.31C280.1 411.214 298.92 414.317 299.33 415.13C300.28 416.969 291.64 441.858 256.04 441.36C222.31 440.888 215.17 418.867 214.86 417.302C214.68 416.363 239.67 411.805 240.01 410.844C244.5 398.254 246.5 376.985 246.5 376.985C246.5 376.985 260.28 304.54 306.61 314.716Z" fill="white"/>
<path d="M216.701 418.104C218.371 422.594 226.661 439.449 256.061 439.86C274.941 440.135 285.611 433.092 291.231 427.147C295.741 422.369 297.481 417.852 297.831 416.123C296.311 415.691 292.801 414.958 290.111 414.398C279.511 412.188 278.531 411.934 278.691 410.171L278.991 406.949C280.101 394.576 280.671 388.365 286.711 384.066C291.201 380.869 293.361 381.007 295.871 381.171C297.811 381.295 300.021 381.441 304.371 380C313.441 377 317.381 342.777 313.681 328.946C312.221 323.485 309.401 316.865 306.291 316.18C296.391 314.008 287.251 315.622 279.131 320.983C256.451 335.951 248.361 375.348 247.991 377.201C247.841 378.818 245.841 398.976 241.421 411.348C241.041 412.433 240.981 412.599 228.041 415.443C224.071 416.314 218.881 417.454 216.701 418.104ZM257.081 442.867C256.731 442.867 256.381 442.865 256.021 442.86C219.811 442.353 213.441 417.835 213.391 417.587C213.061 415.866 214.761 415.448 218.491 414.532C220.931 413.933 224.211 413.21 227.391 412.512C231.581 411.593 237.171 410.364 238.791 409.802C243.031 397.465 244.991 377.052 245.011 376.844L245.031 376.705C245.361 374.986 253.311 334.423 277.471 318.479C286.301 312.654 296.211 310.893 306.931 313.251C312.161 314.398 315.221 323.09 316.581 328.17C320.421 342.497 316.921 379.007 305.321 382.847C300.411 384.472 297.781 384.301 295.671 384.165C293.431 384.019 292.071 383.929 288.451 386.51C283.531 390.008 283.041 395.402 281.981 407.218L281.771 409.433C283.511 409.959 287.761 410.844 290.731 411.462C299.801 413.353 300.201 413.542 300.671 414.446C301.531 416.117 299.761 420.356 297.751 423.588C294.131 429.427 282.971 442.867 257.081 442.867Z" fill="black"/>
<path d="M291.471 353.114H291.441C284.891 352.955 280.491 346.378 279.021 339.931C277.701 334.13 278.821 329.375 281.881 327.815C288.851 324.258 295.041 334.598 295.301 335.04C295.721 335.753 295.481 336.671 294.771 337.092C294.051 337.515 293.131 337.277 292.711 336.564C292.661 336.48 287.63 328.25 283.24 330.487C281.56 331.346 281.001 335.12 281.941 339.265C283.151 344.58 286.581 349.995 291.511 350.114C292.341 350.134 292.991 350.822 292.971 351.65C292.951 352.466 292.291 353.114 291.471 353.114Z" fill="black"/>
<path d="M321.28 298.848C324.31 308.879 314.2 312.377 306.69 319.679C298.92 327.221 298.83 336.844 294.16 337.089C293.58 337.12 291.37 334.822 290.17 331.918C288.15 327.053 275.04 326.863 282.82 344.543C295.05 372.353 326.97 439.675 313.81 490.546C303.26 531.302 285.16 551.584 199.16 553.316C127.18 554.765 93.8701 471.073 100.22 437.521C114.36 362.806 192.34 442.133 197.11 338.794C200.45 266.35 264.04 227.143 311.53 280.332C316.32 285.704 319.36 292.478 321.28 298.848Z" fill="black"/>
<path d="M170.661 139.668C157.401 138.536 147.561 126.963 148.681 113.82C149.801 100.677 161.461 90.9406 174.731 92.0716C187.991 93.2036 197.831 104.776 196.711 117.92C195.591 131.063 183.931 140.799 170.661 139.668ZM222.781 127.617L216.851 123.897C215.891 123.296 215.361 122.206 215.491 121.093C215.641 119.918 215.741 118.744 215.791 117.573C215.831 116.457 216.541 115.471 217.571 115.034L224.011 112.316C225.281 111.781 226.001 110.446 225.751 109.102L224.741 103.629C224.491 102.285 223.331 101.29 221.961 101.233L214.941 100.945C213.811 100.899 212.801 100.212 212.351 99.1766C211.891 98.1056 211.391 97.0536 210.841 96.0226C210.311 95.0256 210.411 93.8176 211.091 92.9186L215.301 87.3586C216.131 86.2666 216.081 84.7516 215.191 83.7096L211.551 79.4686C210.661 78.4276 209.151 78.1376 207.931 78.7716L201.731 81.9896C200.731 82.5116 199.511 82.4176 198.601 81.7426C197.671 81.0456 196.701 80.3846 195.691 79.7596C194.731 79.1586 194.211 78.0586 194.341 76.9396L195.181 70.0406C195.341 68.6846 194.541 67.3946 193.241 66.9346L187.951 65.0626C186.651 64.6026 185.211 65.0956 184.471 66.2506L180.731 72.1186C180.121 73.0656 179.021 73.5966 177.901 73.4576C176.711 73.3106 175.531 73.2116 174.351 73.1636C173.221 73.1166 172.221 72.4176 171.781 71.3886L169.031 65.0026C168.491 63.7446 167.141 63.0256 165.781 63.2716L160.261 64.2696C158.911 64.5146 157.911 65.6586 157.851 67.0246L157.571 73.9736C157.531 75.0916 156.851 76.0956 155.811 76.5326C154.721 76.9916 153.641 77.4946 152.591 78.0406C151.601 78.5606 150.381 78.4476 149.481 77.7746L143.861 73.5936C142.761 72.7726 141.231 72.8176 140.181 73.7026L135.911 77.3026C134.861 78.1876 134.571 79.6756 135.211 80.8866L138.471 87.0366C138.991 88.0326 138.901 89.2396 138.221 90.1386C137.521 91.0656 136.851 92.0266 136.221 93.0196C135.621 93.9736 134.511 94.4906 133.381 94.3546L126.421 93.5136C125.051 93.3476 123.751 94.1446 123.291 95.4316L121.411 100.67C120.951 101.957 121.451 103.391 122.611 104.123L128.541 107.843C129.491 108.443 130.031 109.534 129.891 110.646C129.751 111.821 129.651 112.996 129.601 114.167C129.561 115.283 128.851 116.268 127.811 116.706L121.381 119.423C120.111 119.958 119.381 121.293 119.631 122.638L120.651 128.11C120.901 129.455 122.061 130.45 123.431 130.506L130.451 130.795C131.571 130.841 132.591 131.517 133.031 132.547C133.491 133.629 134.001 134.692 134.561 135.733C135.081 136.723 134.971 137.928 134.291 138.822L130.081 144.38C129.261 145.473 129.301 146.988 130.201 148.03L133.841 152.27C134.731 153.312 136.231 153.602 137.451 152.968L143.651 149.749C144.661 149.228 145.881 149.321 146.791 149.997C147.721 150.694 148.691 151.355 149.691 151.98C150.661 152.58 151.181 153.681 151.051 154.8L150.211 161.698C150.041 163.055 150.851 164.345 152.151 164.805L157.441 166.677C158.741 167.136 160.181 166.643 160.921 165.489L164.661 159.621C165.271 158.674 166.371 158.142 167.491 158.282C168.681 158.429 169.861 158.527 171.041 158.576C172.171 158.622 173.161 159.322 173.611 160.351L176.361 166.737C176.901 167.994 178.251 168.713 179.601 168.468L185.121 167.47C186.481 167.225 187.481 166.081 187.541 164.715L187.821 157.764C187.861 156.64 188.551 155.64 189.601 155.2C190.681 154.745 191.741 154.247 192.781 153.707C193.781 153.184 195.001 153.287 195.911 153.963L201.531 158.145C202.631 158.966 204.161 158.922 205.211 158.037L209.481 154.437C210.531 153.552 210.821 152.064 210.181 150.853L206.921 144.703C206.391 143.707 206.491 142.499 207.171 141.601C207.871 140.673 208.531 139.713 209.161 138.72C209.771 137.766 210.881 137.249 212.011 137.385L218.971 138.226C220.341 138.391 221.641 137.595 222.101 136.308L223.981 131.069C224.441 129.782 223.941 128.349 222.781 127.617Z" fill="white"/>
<path d="M249.301 93.3966C240.511 90.5346 235.681 81.1486 238.511 72.4326C241.351 63.7166 250.781 58.9706 259.571 61.8336C268.371 64.6956 273.201 74.0816 270.361 82.7966C267.531 91.5126 258.101 96.2586 249.301 93.3966ZM286.471 93.4796L283.051 90.0246C282.491 89.4676 282.301 88.6446 282.571 87.9146C282.861 87.1426 283.111 86.3626 283.331 85.5786C283.531 84.8296 284.171 84.2736 284.941 84.1426L289.721 83.3206C290.671 83.1596 291.371 82.3706 291.411 81.4216L291.591 77.5586C291.631 76.6086 291.011 75.7526 290.081 75.4966L285.381 74.1936C284.621 73.9826 284.051 73.3586 283.911 72.5876C283.771 71.7896 283.591 70.9986 283.391 70.2146C283.191 69.4566 283.441 68.6546 284.051 68.1536L287.781 65.0576C288.511 64.4496 288.721 63.4166 288.271 62.5706L286.481 59.1256C286.041 58.2796 285.071 57.8466 284.141 58.0826L279.441 59.2796C278.681 59.4746 277.871 59.2176 277.361 58.6176C276.841 57.9986 276.291 57.3976 275.711 56.8156C275.151 56.2576 274.971 55.4306 275.241 54.6946L276.891 50.1586C277.221 49.2666 276.881 48.2666 276.071 47.7506L272.791 45.6486C271.981 45.1316 270.931 45.2366 270.251 45.9006L266.791 49.2796C266.231 49.8256 265.401 50.0116 264.661 49.7396C263.881 49.4526 263.101 49.1986 262.311 48.9786C261.551 48.7696 260.991 48.1386 260.851 47.3726L260.001 42.6166C259.831 41.6796 259.031 40.9806 258.071 40.9326L254.181 40.7356C253.231 40.6866 252.371 41.3026 252.111 42.2176L250.831 46.8766C250.621 47.6256 250.001 48.1966 249.231 48.3286C248.421 48.4666 247.611 48.6376 246.821 48.8416C246.061 49.0356 245.251 48.7666 244.751 48.1696L241.611 44.4526C240.991 43.7216 239.951 43.5106 239.101 43.9436L235.641 45.7046C234.791 46.1366 234.361 47.0986 234.601 48.0196L235.831 52.6956C236.031 53.4526 235.781 54.2546 235.181 54.7556C234.561 55.2726 233.951 55.8166 233.371 56.3896C232.811 56.9396 231.981 57.1136 231.241 56.8426L226.661 55.1736C225.761 54.8456 224.751 55.1786 224.241 55.9766L222.141 59.2236C221.621 60.0216 221.731 61.0706 222.411 61.7506L225.831 65.2046C226.381 65.7616 226.571 66.5846 226.301 67.3156C226.021 68.0876 225.771 68.8666 225.551 69.6506C225.341 70.3996 224.711 70.9546 223.941 71.0866L219.151 71.9086C218.211 72.0696 217.511 72.8586 217.461 73.8076L217.291 77.6716C217.241 78.6206 217.871 79.4766 218.791 79.7326L223.491 81.0356C224.251 81.2456 224.831 81.8636 224.961 82.6296C225.111 83.4356 225.281 84.2356 225.491 85.0266C225.691 85.7806 225.431 86.5786 224.831 87.0766L221.101 90.1716C220.371 90.7796 220.161 91.8136 220.601 92.6596L222.391 96.1036C222.831 96.9496 223.801 97.3836 224.731 97.1476L229.431 95.9496C230.191 95.7546 231.001 96.0116 231.511 96.6116C232.041 97.2316 232.591 97.8326 233.171 98.4136C233.721 98.9716 233.901 99.7996 233.641 100.536L231.981 105.071C231.651 105.963 231.991 106.963 232.801 107.48L236.081 109.582C236.891 110.099 237.951 109.993 238.631 109.329L242.091 105.95C242.651 105.404 243.471 105.219 244.211 105.491C244.991 105.778 245.781 106.031 246.571 106.251C247.321 106.461 247.891 107.091 248.021 107.857L248.881 112.613C249.041 113.55 249.841 114.249 250.801 114.298L254.691 114.495C255.651 114.543 256.511 113.927 256.761 113.012L258.051 108.353C258.261 107.6 258.881 107.032 259.661 106.9C260.461 106.762 261.261 106.593 262.051 106.392C262.811 106.197 263.621 106.459 264.131 107.06L267.261 110.778C267.881 111.508 268.921 111.719 269.771 111.287L273.231 109.525C274.081 109.093 274.511 108.131 274.271 107.211L273.041 102.535C272.841 101.777 273.091 100.975 273.701 100.475C274.321 99.9576 274.921 99.4126 275.501 98.8406C276.061 98.2906 276.891 98.1156 277.641 98.3866L282.221 100.056C283.121 100.384 284.121 100.051 284.641 99.2526L286.741 96.0056C287.251 95.2076 287.141 94.1586 286.471 93.4796Z" fill="white"/>
</svg>
