<svg viewBox="0 0 438 433" fill="none" xmlns="http://www.w3.org/2000/svg">
<path d="M32.5144 288.444C48.6989 340.548 97.4136 363.853 115.789 372.643C178.319 402.555 279.928 408.339 345.391 341.502C402.846 282.842 397.097 204.344 396.129 193.539C394.507 175.42 390.026 131.821 356.792 95.1588C305.053 38.0835 208.652 25.3878 166.077 61.6448C146.082 78.6731 156.084 91.0659 129.862 123.33C94.7391 166.542 65.7207 158.455 42.851 194.291C17.0355 234.747 31.0178 283.628 32.5144 288.444Z" fill="#D2DBE8"/>
<path d="M105.192 215.089C86.2031 196.388 78.183 176.879 82.6087 160.155C88.2881 138.693 113.519 123.854 151.832 119.442L151.974 120.673C114.194 125.023 89.3479 139.529 83.806 160.472C79.4989 176.747 87.4025 195.831 106.061 214.206L105.192 215.089Z" fill="white"/>
<path d="M288.402 281.471C264.703 281.471 238.949 277.948 213.369 271.173C181.735 262.795 152.73 250.149 129.49 234.602L130.178 233.573C153.307 249.044 182.183 261.632 213.686 269.975C242.154 277.515 270.837 281.009 296.621 280.087L296.666 281.325C293.943 281.423 291.188 281.472 288.402 281.471Z" fill="white"/>
<path d="M342.773 273.68L342.376 272.506C363.572 265.337 376.829 253.788 380.714 239.107C385.653 220.443 374.924 198.786 350.502 178.124C325.956 157.356 290.561 140.125 250.834 129.604L251.151 128.406C291.051 138.973 326.619 156.294 351.302 177.178C376.109 198.166 386.98 220.272 381.912 239.424C377.915 254.526 364.381 266.371 342.773 273.68Z" fill="white"/>
<path d="M148.145 281.989C101.577 261.327 65.693 234.521 47.1035 206.508L48.1352 205.823C66.5961 233.642 102.292 260.289 148.647 280.856L148.145 281.989Z" fill="white"/>
<path d="M311.873 317.784C307.069 317.784 302.184 317.677 297.217 317.462L297.27 316.224C334.34 317.83 367.047 313.392 391.862 303.388L392.325 304.537C370.678 313.263 343.087 317.784 311.873 317.784Z" fill="white"/>
<path d="M284.855 120.553C277.158 118.046 269.241 115.712 261.325 113.615C215.766 101.55 170.981 97.2655 131.81 101.229L131.686 99.996C171.003 96.0196 215.941 100.314 261.642 112.418C269.581 114.52 277.52 116.861 285.239 119.376L284.855 120.553Z" fill="white"/>
<path d="M76.0885 216.947C57.0996 198.247 49.0795 178.737 53.5051 162.013C59.1846 140.551 84.4157 125.712 122.729 121.301L122.87 122.532C85.0905 126.882 60.2444 141.388 54.7025 162.33C50.3954 178.606 58.299 197.689 76.9574 216.065L76.0885 216.947Z" fill="white"/>
<path d="M259.299 283.33C235.599 283.33 209.846 279.806 184.265 273.031C152.632 264.653 123.627 252.008 100.387 236.461L101.075 235.431C124.203 250.903 153.079 263.491 184.582 271.834C213.051 279.374 241.733 282.867 267.517 281.945L267.562 283.183C264.839 283.281 262.085 283.33 259.299 283.33Z" fill="white"/>
<path d="M313.669 275.538L313.273 274.365C334.468 267.195 347.726 255.646 351.611 240.965C356.55 222.302 345.82 200.644 321.399 179.982C296.853 159.215 261.457 141.983 221.73 131.462L222.047 130.264C261.948 140.832 297.516 158.152 322.198 179.036C347.005 200.025 357.876 222.131 352.808 241.282C348.812 256.384 335.278 268.23 313.669 275.538Z" fill="white"/>
<path d="M119.041 283.847C72.4735 263.185 36.5895 236.379 18 208.367L19.0316 207.681C37.4926 235.5 73.1883 262.147 119.543 282.715L119.041 283.847Z" fill="white"/>
<path d="M282.769 319.642C277.966 319.642 273.081 319.535 268.113 319.32L268.166 318.083C305.236 319.688 337.943 315.25 362.758 305.246L363.221 306.396C341.574 315.121 313.984 319.642 282.769 319.642Z" fill="white"/>
<path d="M255.75 122.412C248.053 119.905 240.136 117.571 232.219 115.474C186.66 103.408 141.876 99.1239 102.705 103.087L102.58 101.854C141.897 97.878 186.835 102.172 232.536 114.276C240.475 116.379 248.415 118.72 256.133 121.234L255.75 122.412Z" fill="white"/>
<path d="M39.1082 183.763C48.0079 173.781 62.2044 167.697 75.0696 171.339C63.2009 179.741 54.6856 192.073 51.0304 206.152C49.6404 211.586 48.6601 217.776 44.1421 221.099C41.331 223.166 37.6061 223.66 34.149 223.189C30.6917 222.718 27.4227 221.373 24.1979 220.041L23.3301 220.116C25.825 206.975 30.2085 193.745 39.1082 183.763Z" fill="#F2F2F2"/>
<path d="M75.0301 171.616C64.2739 174.222 54.6117 180.151 47.416 188.563C45.8348 190.347 44.5444 192.368 43.5925 194.553C42.7339 196.712 42.4688 199.062 42.8248 201.357C43.1138 203.505 43.6579 205.668 43.42 207.848C43.2817 208.962 42.9095 210.035 42.3278 210.995C41.7462 211.955 40.9682 212.781 40.0449 213.42C37.7857 215.07 35.0685 215.81 32.3861 216.441C29.4079 217.142 26.3033 217.823 23.8756 219.803C23.5814 220.043 23.2265 219.572 23.5202 219.332C27.7441 215.887 33.6143 216.33 38.2876 213.827C40.4683 212.66 42.3104 210.828 42.7583 208.314C43.1499 206.115 42.5907 203.884 42.2794 201.713C41.8993 199.478 42.0719 197.184 42.7822 195.032C43.6199 192.805 44.8302 190.737 46.3614 188.917C49.7432 184.763 53.7569 181.167 58.2552 178.261C63.3708 174.916 69.0207 172.47 74.9605 171.031C75.3282 170.942 75.3954 171.528 75.0301 171.616Z" fill="white"/>
<path d="M49.5749 185.718C48.3281 184.319 47.6191 182.522 47.5745 180.648C47.5299 178.774 48.1527 176.945 49.3316 175.488C49.5711 175.194 50.0391 175.552 49.7992 175.847C48.6989 177.201 48.119 178.905 48.164 180.65C48.2091 182.395 48.8763 184.067 50.045 185.363C50.2987 185.645 49.8271 185.999 49.5749 185.718Z" fill="white"/>
<path d="M42.5364 200.288C46.3584 200.542 50.1358 199.345 53.1152 196.937C53.4101 196.698 53.7652 197.169 53.4705 197.407C50.3654 199.908 46.432 201.145 42.4552 200.872C42.0762 200.846 42.1594 200.262 42.5364 200.288Z" fill="white"/>
<path d="M63.5044 175.686C63.8741 176.328 64.3974 176.868 65.0272 177.258C65.6571 177.648 66.3739 177.875 67.1132 177.919C67.4923 177.94 67.4087 178.524 67.032 178.503C66.2155 178.45 65.4242 178.198 64.7273 177.769C64.0304 177.34 63.4492 176.747 63.0344 176.042C62.9897 175.978 62.9708 175.9 62.9814 175.824C62.9921 175.747 63.0315 175.677 63.0917 175.629C63.1542 175.582 63.2326 175.562 63.3099 175.572C63.3872 175.583 63.4571 175.624 63.5044 175.686Z" fill="white"/>
<path d="M93.3327 212.778C93.0955 212.771 92.8584 212.765 92.6183 212.762C89.4296 212.689 86.2403 212.875 83.0818 213.319C82.837 213.349 82.5894 213.384 82.3461 213.421C74.7479 214.571 67.4291 217.122 60.7618 220.945C58.1101 222.468 55.5782 224.191 53.1878 226.099C49.8868 228.734 46.5173 231.854 42.6527 233.205C42.251 233.35 41.8408 233.47 41.4243 233.565L23.4898 221.169C23.4631 221.12 23.4335 221.076 23.4067 221.027L22.668 220.565C22.7844 220.458 22.9074 220.349 23.0238 220.242C23.0911 220.18 23.1624 220.12 23.2296 220.058C23.2757 220.017 23.3221 219.977 23.3614 219.937C23.3766 219.924 23.3921 219.91 23.4046 219.901C23.4439 219.861 23.4846 219.829 23.521 219.794C24.2071 219.185 24.8986 218.581 25.5956 217.98C25.5985 217.976 25.5985 217.976 25.6053 217.975C30.9277 213.411 36.6778 209.251 42.8761 206.097C43.0626 206.002 43.2518 205.903 43.4465 205.814C46.2483 204.407 49.1603 203.232 52.1535 202.301C53.7941 201.796 55.4591 201.374 57.1423 201.038C61.4931 200.177 65.9522 200.006 70.3561 200.531C79.135 201.58 87.481 205.425 92.9221 212.252C93.0612 212.427 93.1965 212.599 93.3327 212.778Z" fill="#F2F2F2"/>
<path d="M93.1342 212.978C82.9779 208.58 71.6946 207.495 60.8868 209.877C58.5511 210.348 56.3042 211.185 54.2289 212.357C52.2442 213.563 50.6186 215.279 49.5212 217.327C48.4595 219.216 47.5922 221.27 46.0901 222.868C45.3091 223.674 44.3666 224.306 43.3243 224.723C42.282 225.139 41.1635 225.33 40.0421 225.284C37.245 225.241 34.6302 224.195 32.1087 223.083C29.309 221.849 26.4205 220.522 23.2904 220.641C22.9112 220.655 22.9111 220.066 23.2897 220.052C28.7355 219.845 33.1564 223.734 38.3937 224.551C40.8375 224.932 43.4109 224.579 45.2815 222.841C46.9173 221.322 47.8135 219.204 48.8719 217.282C49.9132 215.269 51.4315 213.542 53.2941 212.251C55.303 210.977 57.5139 210.055 59.8321 209.524C65.032 208.244 70.4007 207.791 75.7415 208.18C81.8393 208.59 87.8221 210.04 93.431 212.469C93.7781 212.619 93.479 213.128 93.1342 212.978Z" fill="white"/>
<path d="M64.3234 208.905C64.17 207.036 64.6855 205.174 65.7778 203.651C66.87 202.128 68.468 201.043 70.2862 200.589C70.6544 200.499 70.8122 201.067 70.4435 201.158C68.7496 201.577 67.2612 202.588 66.247 204.008C65.2328 205.429 64.7596 207.165 64.9127 208.904C64.9455 209.282 64.356 209.28 64.3234 208.905Z" fill="white"/>
<path d="M49.9344 216.298C52.8333 218.803 56.5694 220.123 60.3977 219.994C60.777 219.981 60.7772 220.571 60.3984 220.584C56.4143 220.71 52.5291 219.329 49.5182 216.716C49.2314 216.466 49.6492 216.05 49.9344 216.298Z" fill="white"/>
<path d="M81.4814 209.285C81.3902 210.02 81.4829 210.766 81.7513 211.457C82.0197 212.147 82.4553 212.76 83.0191 213.241C83.3089 213.486 82.8908 213.902 82.6029 213.658C81.9825 213.125 81.5022 212.447 81.204 211.685C80.9058 210.922 80.7987 210.099 80.8921 209.285C80.8945 209.208 80.9263 209.134 80.9809 209.08C81.0356 209.025 81.1091 208.993 81.1864 208.99C81.2644 208.991 81.3392 209.022 81.3944 209.077C81.4497 209.132 81.481 209.207 81.4814 209.285Z" fill="white"/>
<path d="M387.83 265.593C382.802 253.199 371.475 242.696 358.135 241.8C366.49 253.705 370.367 268.182 369.08 282.671C368.563 288.257 367.407 294.416 370.545 299.065C372.498 301.957 375.841 303.675 379.255 304.394C382.669 305.113 386.2 304.945 389.685 304.774L390.477 305.137C392.542 291.921 392.858 277.987 387.83 265.593Z" fill="#F2F2F2"/>
<path d="M358.08 242.075C367.335 248.146 374.443 256.979 378.394 267.321C379.284 269.532 379.82 271.87 379.983 274.248C380.066 276.57 379.526 278.872 378.42 280.915C377.426 282.84 376.187 284.694 375.678 286.828C375.434 287.924 375.425 289.059 375.65 290.159C375.875 291.259 376.33 292.299 376.985 293.21C378.559 295.524 380.869 297.135 383.183 298.631C385.753 300.292 388.448 301.977 390.07 304.658C390.266 304.983 390.758 304.659 390.562 304.335C387.742 299.67 382.064 298.113 378.503 294.185C376.842 292.352 375.722 290.007 376.145 287.489C376.515 285.287 377.791 283.373 378.814 281.433C379.923 279.456 380.531 277.238 380.585 274.971C380.544 272.593 380.099 270.238 379.268 268.009C377.479 262.96 374.907 258.223 371.646 253.974C367.952 249.103 363.453 244.9 358.342 241.547C358.026 241.34 357.765 241.869 358.08 242.075Z" fill="white"/>
<path d="M377.317 263.916C378.961 263.017 380.233 261.563 380.904 259.813C381.576 258.063 381.604 256.131 380.983 254.362C380.856 254.005 380.295 254.185 380.422 254.543C381.003 256.189 380.977 257.989 380.348 259.617C379.72 261.245 378.53 262.595 376.994 263.423C376.66 263.603 376.985 264.095 377.317 263.916Z" fill="white"/>
<path d="M379.052 280.005C375.367 278.959 372.211 276.562 370.214 273.292C370.017 272.967 369.524 273.291 369.722 273.615C371.806 277.014 375.095 279.502 378.932 280.582C379.298 280.685 379.416 280.107 379.052 280.005Z" fill="white"/>
<path d="M367.568 249.784C367.005 250.264 366.33 250.597 365.606 250.752C364.882 250.908 364.131 250.881 363.419 250.674C363.055 250.566 362.938 251.144 363.3 251.251C364.086 251.476 364.916 251.505 365.717 251.335C366.517 251.165 367.264 250.802 367.892 250.277C367.955 250.232 367.999 250.165 368.015 250.09C368.03 250.014 368.017 249.935 367.976 249.869C367.933 249.804 367.866 249.758 367.79 249.743C367.713 249.727 367.634 249.742 367.568 249.784Z" fill="white"/>
<path d="M327.014 274.688C327.239 274.762 327.465 274.835 327.692 274.914C330.72 275.917 333.661 277.165 336.487 278.644C336.707 278.755 336.929 278.871 337.145 278.988C343.915 282.626 349.951 287.489 354.946 293.331C356.932 295.658 358.737 298.132 360.348 300.733C362.571 304.325 364.697 308.396 367.883 310.967C368.212 311.239 368.558 311.491 368.919 311.72L389.975 306.075C390.016 306.038 390.059 306.006 390.101 305.969L390.952 305.782C390.878 305.642 390.798 305.499 390.725 305.359C390.682 305.277 390.635 305.197 390.593 305.116C390.563 305.062 390.533 305.008 390.509 304.958C390.499 304.94 390.489 304.922 390.481 304.909C390.457 304.859 390.43 304.815 390.407 304.769C389.965 303.965 389.517 303.164 389.063 302.363C389.061 302.359 389.061 302.359 389.055 302.355C385.576 296.267 381.558 290.416 376.78 285.361C376.636 285.209 376.491 285.052 376.338 284.903C374.171 282.636 371.823 280.551 369.317 278.667C367.942 277.64 366.515 276.683 365.043 275.8C361.235 273.526 357.092 271.866 352.768 270.88C344.148 268.916 334.995 269.731 327.577 274.331C327.387 274.449 327.202 274.566 327.014 274.688Z" fill="#F2F2F2"/>
<path d="M327.131 274.943C338.174 274.216 349.166 276.987 358.545 282.865C360.586 284.094 362.421 285.638 363.982 287.439C365.446 289.243 366.4 291.406 366.746 293.703C367.112 295.839 367.238 298.066 368.116 300.076C368.581 301.098 369.256 302.01 370.098 302.752C370.94 303.495 371.929 304.051 373.001 304.384C375.649 305.284 378.463 305.178 381.212 304.979C384.263 304.758 387.429 304.48 390.338 305.644C390.69 305.785 390.888 305.23 390.536 305.089C385.477 303.064 380.006 305.24 374.799 304.248C372.37 303.786 370.065 302.588 368.887 300.322C367.856 298.341 367.724 296.045 367.373 293.879C367.068 291.633 366.219 289.496 364.898 287.654C363.434 285.779 361.661 284.167 359.657 282.887C355.189 279.934 350.285 277.701 345.124 276.272C339.243 274.608 333.121 273.962 327.023 274.364C326.645 274.389 326.756 274.968 327.131 274.943Z" fill="white"/>
<path d="M355.636 280.795C356.408 279.087 356.548 277.16 356.031 275.358C355.514 273.556 354.374 271.997 352.813 270.959C352.497 270.75 352.158 271.232 352.474 271.441C353.929 272.405 354.991 273.858 355.469 275.537C355.947 277.215 355.809 279.01 355.081 280.596C354.923 280.941 355.479 281.138 355.636 280.795Z" fill="white"/>
<path d="M366.705 292.596C363.133 293.98 359.171 293.967 355.608 292.559C355.256 292.419 355.057 292.974 355.41 293.114C359.12 294.573 363.243 294.578 366.957 293.129C367.31 292.991 367.057 292.458 366.705 292.596Z" fill="white"/>
<path d="M339.347 275.383C339.186 276.106 338.848 276.778 338.363 277.338C337.878 277.898 337.262 278.329 336.57 278.592C336.214 278.726 336.468 279.258 336.821 279.125C337.585 278.831 338.265 278.354 338.802 277.737C339.339 277.119 339.717 276.379 339.902 275.582C339.926 275.508 339.92 275.428 339.887 275.358C339.854 275.288 339.796 275.233 339.724 275.205C339.65 275.179 339.569 275.183 339.499 275.216C339.428 275.25 339.374 275.31 339.347 275.383Z" fill="white"/>
<path d="M290.278 307.797C293.014 307.797 295.232 305.578 295.232 302.841C295.232 300.104 293.014 297.885 290.278 297.885C287.542 297.885 285.324 300.104 285.324 302.841C285.324 305.578 287.542 307.797 290.278 307.797Z" fill="url(#paint0_linear_802_1280)"/>
<path d="M307.827 223.388C310.563 223.388 312.781 221.169 312.781 218.432C312.781 215.695 310.563 213.477 307.827 213.477C305.091 213.477 302.873 215.695 302.873 218.432C302.873 221.169 305.091 223.388 307.827 223.388Z" fill="url(#paint1_linear_802_1280)"/>
<path d="M215.647 85.9234C218.383 85.9234 220.601 83.7046 220.601 80.9675C220.601 78.2305 218.383 76.0117 215.647 76.0117C212.911 76.0117 210.693 78.2305 210.693 80.9675C210.693 83.7046 212.911 85.9234 215.647 85.9234Z" fill="url(#paint2_linear_802_1280)"/>
<path d="M111.838 271.072C111.838 272.334 111.879 273.595 111.968 274.846C112.061 276.341 112.222 277.826 112.44 279.301C113.172 284.265 114.572 289.107 116.602 293.697C116.706 293.925 116.809 294.153 116.913 294.382L117.069 294.725C117.121 294.839 117.178 294.953 117.23 295.062C117.302 295.213 117.37 295.358 117.442 295.503C117.531 295.685 117.619 295.867 117.712 296.048C117.723 296.069 117.733 296.095 117.749 296.121C117.827 296.277 117.899 296.427 117.982 296.583C117.997 296.617 118.015 296.65 118.034 296.682C118.122 296.858 118.216 297.04 118.309 297.216C118.413 297.403 118.512 297.595 118.615 297.782C118.864 298.244 119.124 298.701 119.389 299.158C119.466 299.293 119.544 299.428 119.627 299.563C119.7 299.688 119.773 299.812 119.85 299.937C119.902 300.02 119.954 300.108 120.006 300.191C120.089 300.331 120.172 300.466 120.26 300.606C120.452 300.913 120.65 301.219 120.842 301.525H120.847C120.935 301.666 121.028 301.806 121.122 301.941V301.946C121.397 302.361 121.682 302.777 121.968 303.187L121.97 303.187L121.971 303.188L121.972 303.19L121.973 303.192C122.201 303.524 122.44 303.846 122.673 304.168V304.173C122.829 304.375 122.98 304.583 123.135 304.786C123.26 304.952 123.39 305.123 123.519 305.289C123.545 305.326 123.576 305.357 123.602 305.393V305.398C123.639 305.445 123.675 305.486 123.711 305.533C124.261 306.239 124.829 306.93 125.413 307.605L125.507 307.714C125.538 307.75 125.574 307.786 125.605 307.828C125.657 307.885 125.704 307.942 125.756 307.999C125.803 308.056 125.855 308.113 125.906 308.17C128.954 311.605 132.41 314.654 136.197 317.25C136.7 317.598 137.214 317.936 137.728 318.263C137.858 318.346 137.987 318.429 138.117 318.507C138.153 318.533 138.195 318.559 138.231 318.585C138.304 318.626 138.371 318.668 138.444 318.714C138.511 318.756 138.579 318.797 138.652 318.839C138.927 319.01 139.207 319.176 139.487 319.343C139.555 319.384 139.627 319.426 139.7 319.467C139.767 319.504 139.84 319.545 139.913 319.587C139.913 319.592 139.913 319.592 139.918 319.592H139.923V319.597H139.928C140.276 319.799 140.629 319.997 140.987 320.189C141.179 320.293 141.376 320.402 141.573 320.5C142.019 320.744 142.471 320.978 142.922 321.201C143.083 321.279 143.249 321.357 143.41 321.44C143.545 321.502 143.68 321.57 143.815 321.632C143.857 321.653 143.893 321.668 143.929 321.689C144.043 321.741 144.152 321.793 144.267 321.845C144.391 321.902 144.516 321.959 144.635 322.016C144.775 322.079 144.91 322.141 145.05 322.198C145.569 322.432 146.093 322.655 146.617 322.868C148.496 323.638 150.415 324.303 152.367 324.861C152.455 324.887 152.549 324.913 152.642 324.939C153.478 325.173 154.318 325.385 155.164 325.578C156.643 325.92 158.136 326.201 159.643 326.419H159.653C159.835 326.445 160.011 326.471 160.193 326.496C160.208 326.496 160.224 326.502 160.245 326.502C160.245 326.507 160.245 326.507 160.25 326.502C160.447 326.528 160.649 326.554 160.847 326.58C160.86 326.584 160.874 326.585 160.888 326.585C161.075 326.611 161.267 326.631 161.454 326.652C161.656 326.673 161.859 326.694 162.061 326.715C162.217 326.73 162.372 326.746 162.528 326.761C162.541 326.766 162.556 326.768 162.57 326.766C162.71 326.777 162.85 326.792 162.99 326.803H163.011C163.13 326.813 163.255 326.824 163.374 326.834C164.822 326.948 166.275 327 167.749 327C169.342 327 170.924 326.938 172.486 326.803H172.502C172.839 326.772 173.172 326.74 173.504 326.709C173.592 326.699 173.675 326.694 173.763 326.683C173.779 326.683 173.799 326.678 173.815 326.678C173.841 326.673 173.867 326.673 173.898 326.668C173.912 326.668 173.926 326.667 173.94 326.663C174.054 326.652 174.168 326.637 174.287 326.626L174.676 326.58C174.806 326.564 174.936 326.543 175.066 326.528C175.097 326.522 175.123 326.522 175.154 326.517C175.247 326.507 175.341 326.491 175.434 326.476C175.481 326.471 175.527 326.465 175.569 326.46C175.662 326.445 175.751 326.434 175.844 326.419H175.849C178.697 326.009 181.508 325.375 184.256 324.524C184.401 324.477 184.547 324.435 184.692 324.389C184.697 324.389 184.702 324.384 184.708 324.384C184.749 324.368 184.796 324.358 184.837 324.342C185.226 324.217 185.611 324.088 185.995 323.953C186.524 323.776 187.048 323.584 187.572 323.387C187.712 323.33 187.852 323.278 187.992 323.221C188.278 323.112 188.558 322.997 188.838 322.883C189.316 322.691 189.793 322.489 190.265 322.281C190.706 322.084 191.142 321.886 191.578 321.679C191.589 321.674 191.604 321.674 191.615 321.663C191.713 321.616 191.812 321.57 191.905 321.523H191.91C194.3 320.376 196.605 319.059 198.807 317.583C199.513 317.11 200.208 316.622 200.893 316.119C201.443 315.709 201.983 315.293 202.523 314.868C205.185 312.749 207.65 310.393 209.887 307.828V307.823C210.047 307.646 210.198 307.464 210.354 307.283C210.38 307.257 210.4 307.231 210.421 307.21C210.52 307.091 210.613 306.976 210.712 306.862V306.857C210.841 306.706 210.971 306.551 211.096 306.395C211.127 306.359 211.153 306.328 211.179 306.296V306.291C211.282 306.167 211.381 306.042 211.485 305.912C211.537 305.85 211.583 305.788 211.635 305.725V305.72C211.942 305.336 212.237 304.952 212.533 304.557C212.611 304.453 212.689 304.344 212.772 304.235C213.145 303.732 213.509 303.218 213.862 302.704V302.699C213.997 302.507 214.126 302.309 214.261 302.117C214.391 301.92 214.521 301.723 214.65 301.525C214.78 301.318 214.915 301.115 215.045 300.908L215.06 300.876C215.19 300.679 215.32 300.472 215.444 300.269C215.543 300.103 215.642 299.942 215.74 299.781C215.802 299.672 215.87 299.563 215.932 299.449C215.957 299.414 215.979 299.377 216 299.34C216.145 299.085 216.29 298.831 216.436 298.577C216.607 298.281 216.773 297.98 216.939 297.679C217.001 297.554 217.069 297.429 217.136 297.305C217.162 297.263 217.183 297.222 217.204 297.18C217.281 297.035 217.359 296.884 217.432 296.734C217.51 296.588 217.588 296.438 217.665 296.287C217.738 296.142 217.816 295.991 217.889 295.841C217.946 295.727 217.998 295.612 218.055 295.498C218.059 295.489 218.064 295.48 218.07 295.472C218.096 295.415 218.122 295.363 218.143 295.311C218.149 295.303 218.154 295.295 218.158 295.285C218.216 295.171 218.267 295.052 218.324 294.937C218.397 294.787 218.465 294.631 218.537 294.481C218.584 294.377 218.636 294.268 218.683 294.159C218.75 294.008 218.823 293.858 218.885 293.702C218.958 293.546 219.025 293.39 219.093 293.229C219.112 293.191 219.129 293.151 219.144 293.11C219.181 293.037 219.207 292.965 219.238 292.892C219.321 292.7 219.404 292.503 219.482 292.311C219.575 292.092 219.663 291.869 219.746 291.651C219.829 291.449 219.907 291.241 219.985 291.033L220.016 290.961C221.225 287.775 222.142 284.485 222.756 281.133V281.128C223.102 279.214 223.35 277.284 223.498 275.345C223.503 275.236 223.514 275.132 223.519 275.028C223.612 273.715 223.654 272.396 223.654 271.072C223.654 270.485 223.644 269.904 223.628 269.323C223.266 257.162 218.931 245.455 211.288 235.993C211.122 235.785 210.956 235.578 210.784 235.37C210.613 235.162 210.437 234.96 210.265 234.758C204.577 228.093 197.402 222.858 189.32 219.477C181.238 216.095 172.475 214.66 163.737 215.288C154.999 215.916 146.531 218.589 139.015 223.092C131.499 227.594 125.146 233.801 120.468 241.211C120.214 241.616 119.959 242.026 119.715 242.436C119.466 242.851 119.228 243.266 118.989 243.687C114.288 252.047 111.824 261.48 111.838 271.072Z" fill="#F2F2F2"/>
<path d="M165.526 234.489C174.719 236.849 184.141 238.209 193.626 238.546C195.06 238.625 196.498 238.615 197.931 238.517C201.08 238.252 203.778 237.262 206.783 236.721C208.227 236.461 209.836 236.272 211.29 235.991C210.954 235.574 210.612 235.162 210.264 234.756C207.128 235.021 203.944 235.888 200.771 236.291C195.377 236.977 189.333 236.212 185.244 234.323C183.26 233.407 181.74 232.263 179.763 231.343C179.495 231.205 179.203 231.115 178.903 231.079C178.333 231.062 177.77 231.208 177.28 231.5C173.964 233.175 169.148 234.537 164.678 233.788C164.345 234.048 164.978 234.345 165.526 234.489Z" fill="white"/>
<path d="M145.748 240.384C145.707 240.377 145.666 240.371 145.625 240.364C145.797 240.258 145.958 240.136 146.108 240L145.748 240.384Z" fill="white"/>
<path d="M118.99 243.689C120.857 243.838 122.734 243.949 124.62 244.022C126.054 244.1 127.492 244.09 128.925 243.993C132.075 243.727 134.772 242.738 137.777 242.196C140.53 241.701 143.876 241.463 145.625 240.364C141.106 239.581 136.424 241.174 131.765 241.767C127.996 242.23 124.176 242.042 120.471 241.209C119.955 242.021 119.461 242.847 118.99 243.689Z" fill="white"/>
<path d="M141.572 320.5C142.019 320.744 142.47 320.978 142.922 321.201C143.082 321.279 143.248 321.357 143.409 321.44C143.544 321.502 143.679 321.57 143.814 321.632C143.856 321.653 143.892 321.668 143.928 321.689C144.042 321.741 144.151 321.793 144.266 321.845C144.39 321.902 144.515 321.959 144.634 322.016C144.774 322.078 144.909 322.141 145.049 322.198C145.568 322.431 146.092 322.655 146.616 322.867C148.495 323.638 150.414 324.303 152.366 324.861C152.454 324.887 152.548 324.913 152.641 324.939C153.477 325.172 154.317 325.385 155.163 325.577C156.642 325.92 158.135 326.2 159.642 326.418H159.652C159.834 326.444 160.01 326.47 160.192 326.496C160.207 326.496 160.223 326.502 160.244 326.502C160.244 326.507 160.244 326.507 160.249 326.502C160.446 326.527 160.649 326.553 160.846 326.579C160.859 326.583 160.873 326.585 160.887 326.585C161.074 326.611 161.266 326.631 161.453 326.652C161.655 326.673 161.858 326.694 162.06 326.714C162.216 326.73 162.371 326.746 162.527 326.761C162.54 326.766 162.555 326.767 162.569 326.766C162.709 326.777 162.849 326.792 162.989 326.803H163.01C163.129 326.813 163.254 326.823 163.373 326.834C164.821 326.948 166.274 327 167.748 327C169.341 327 170.924 326.938 172.486 326.803H172.501C172.838 326.771 173.171 326.74 173.503 326.709C173.591 326.699 173.674 326.694 173.762 326.683C173.778 326.683 173.798 326.678 173.814 326.678C173.84 326.673 173.866 326.673 173.897 326.668C173.911 326.668 173.925 326.666 173.939 326.662C174.053 326.652 174.167 326.636 174.286 326.626L174.675 326.579C174.805 326.564 174.935 326.543 175.065 326.527C175.096 326.522 175.122 326.522 175.153 326.517C175.246 326.507 175.34 326.491 175.433 326.476C175.48 326.47 175.527 326.465 175.568 326.46C175.661 326.444 175.75 326.434 175.843 326.418H175.848C178.696 326.008 181.507 325.375 184.255 324.524C184.4 324.477 184.546 324.435 184.691 324.389C184.021 321.262 182.642 318.332 180.659 315.824C178.677 313.317 176.145 311.298 173.259 309.925C173.973 309.245 174.466 308.366 174.675 307.402C174.81 306.781 174.821 306.139 174.707 305.513C174.593 304.888 174.356 304.291 174.011 303.758C173.338 302.723 172.281 301.999 171.074 301.743L163.383 300.134C162.145 299.892 160.862 300.15 159.813 300.85C158.763 301.55 158.032 302.636 157.779 303.872C157.7 304.251 157.666 304.637 157.675 305.024C150.27 309.956 144.94 315.07 141.572 320.5Z" fill="#6D55F7"/>
<path d="M164.28 297.095C173.129 297.095 180.303 289.919 180.303 281.066C180.303 272.214 173.129 265.037 164.28 265.037C155.431 265.037 148.258 272.214 148.258 281.066C148.258 289.919 155.431 297.095 164.28 297.095Z" fill="#FFB8B8"/>
<path d="M154.295 294.886C152.586 293.718 150.841 291.474 149.676 289.793C148.133 287.582 147.071 285.072 146.559 282.425C146.047 279.777 146.097 277.052 146.706 274.425C146.9 273.375 147.377 272.398 148.085 271.598C148.839 270.851 150.072 270.497 150.993 271.025C150.742 270.352 150.631 269.634 150.668 268.916C150.704 268.199 150.888 267.496 151.207 266.852C151.854 265.565 152.792 264.448 153.946 263.587C156.154 261.887 158.78 260.816 161.547 260.488C164.314 260.16 167.118 260.588 169.662 261.726C170.662 262.19 169.019 258.607 170.066 258.952C171.107 259.355 172.264 259.335 173.29 258.896C174.275 258.399 177.541 261.347 177.163 260.311C177.911 260.65 178.56 261.174 179.051 261.832C179.542 262.491 179.859 263.263 179.971 264.076C180.084 264.89 179.989 265.719 179.695 266.486C179.401 267.253 178.917 267.933 178.29 268.463C177.463 269.161 176.43 269.564 175.525 270.156C173.939 271.273 172.816 272.932 172.368 274.82C171.921 276.708 172.18 278.695 173.097 280.405C172.144 279.792 171.099 279.338 170.002 279.059C169.451 278.925 168.876 278.924 168.325 279.056C167.774 279.189 167.263 279.451 166.834 279.821C166.475 280.232 166.204 280.712 166.037 281.231C165.871 281.75 165.812 282.298 165.865 282.841C165.901 283.928 166.159 285 166.188 286.088C166.273 289.28 167.982 295.35 165.508 297.046C163.556 298.385 156.628 296.48 154.295 294.886Z" fill="#2F2E41"/>
<path d="M198.073 210.89C197.736 210.889 197.402 210.821 197.091 210.691C196.626 210.504 196.229 210.182 195.951 209.765C195.673 209.349 195.527 208.858 195.532 208.357V205.82C195.531 205.288 195.32 204.778 194.944 204.401C194.567 204.025 194.057 203.813 193.526 203.813C192.856 203.812 192.214 203.546 191.741 203.072C191.267 202.598 191.001 201.956 191 201.286V166.527C191.001 165.857 191.267 165.215 191.74 164.741C192.214 164.267 192.856 164.001 193.525 164H225.64C226.31 164.001 226.952 164.267 227.425 164.741C227.898 165.214 228.165 165.857 228.166 166.527V201.286C228.165 201.956 227.898 202.598 227.425 203.072C226.952 203.546 226.31 203.812 225.64 203.813H207.003C206.739 203.812 206.478 203.864 206.234 203.965C205.991 204.066 205.77 204.214 205.584 204.401L199.843 210.144C199.612 210.379 199.337 210.566 199.033 210.694C198.729 210.822 198.403 210.889 198.073 210.89Z" fill="white"/>
<path d="M197.592 211.928C197.187 211.928 196.785 211.847 196.411 211.69C195.851 211.465 195.372 211.076 195.037 210.574C194.702 210.072 194.526 209.48 194.532 208.877V206.34C194.532 205.945 194.375 205.567 194.096 205.288C193.817 205.009 193.439 204.852 193.044 204.851C192.237 204.85 191.463 204.529 190.893 203.958C190.322 203.387 190.001 202.613 190 201.805V167.046C190.001 166.238 190.322 165.464 190.893 164.893C191.463 164.322 192.237 164.001 193.044 164H226.159C226.966 164.001 227.74 164.322 228.311 164.893C228.881 165.464 229.203 166.238 229.203 167.046V201.805C229.203 202.613 228.882 203.387 228.311 203.958C227.74 204.529 226.966 204.85 226.159 204.851H206.522C206.326 204.851 206.133 204.889 205.952 204.964C205.771 205.038 205.607 205.148 205.47 205.287L199.729 211.03C199.45 211.313 199.118 211.539 198.751 211.693C198.384 211.847 197.99 211.927 197.592 211.928ZM193.044 165.038C192.512 165.039 192.002 165.251 191.626 165.627C191.25 166.003 191.038 166.514 191.038 167.046V201.805C191.038 202.337 191.25 202.848 191.626 203.224C192.002 203.601 192.512 203.812 193.044 203.813C193.714 203.814 194.356 204.08 194.829 204.554C195.303 205.028 195.569 205.67 195.57 206.34V208.877C195.57 209.274 195.688 209.662 195.908 209.992C196.129 210.322 196.442 210.579 196.809 210.731C197.175 210.883 197.579 210.922 197.968 210.845C198.357 210.767 198.714 210.576 198.995 210.296L204.736 204.553C204.97 204.318 205.248 204.131 205.555 204.004C205.861 203.877 206.19 203.812 206.522 203.813H226.159C226.691 203.812 227.201 203.601 227.577 203.224C227.954 202.848 228.165 202.337 228.166 201.805V167.046C228.165 166.513 227.953 166.003 227.577 165.627C227.201 165.251 226.691 165.039 226.159 165.038L193.044 165.038Z" fill="#E6E6E6"/>
<path d="M422.974 148.553C422.974 149.814 422.933 151.076 422.845 152.327C422.751 153.822 422.59 155.307 422.372 156.781C421.64 161.745 420.24 166.588 418.21 171.177C418.107 171.405 418.003 171.634 417.899 171.862L417.743 172.205C417.691 172.319 417.634 172.433 417.583 172.542C417.51 172.693 417.442 172.838 417.37 172.984C417.282 173.165 417.193 173.347 417.1 173.529C417.09 173.55 417.079 173.576 417.064 173.601C416.986 173.757 416.913 173.908 416.83 174.064C416.815 174.097 416.797 174.13 416.778 174.162C416.69 174.339 416.597 174.52 416.503 174.697C416.399 174.884 416.301 175.076 416.197 175.263C415.948 175.725 415.688 176.182 415.424 176.639C415.346 176.774 415.268 176.908 415.185 177.043C415.112 177.168 415.04 177.293 414.962 177.417C414.91 177.5 414.858 177.589 414.806 177.672C414.723 177.812 414.64 177.947 414.552 178.087C414.36 178.393 414.163 178.7 413.971 179.006H413.965C413.877 179.146 413.784 179.286 413.69 179.421V179.426C413.415 179.842 413.13 180.257 412.845 180.667C412.844 180.667 412.843 180.667 412.843 180.667C412.842 180.668 412.841 180.668 412.841 180.669C412.84 180.669 412.84 180.67 412.84 180.67C412.839 180.671 412.839 180.672 412.839 180.672C412.611 181.005 412.372 181.326 412.139 181.648V181.653C411.983 181.856 411.833 182.064 411.677 182.266C411.552 182.432 411.423 182.604 411.293 182.77C411.267 182.806 411.236 182.837 411.21 182.873V182.879C411.174 182.925 411.137 182.967 411.101 183.014C410.551 183.72 409.983 184.41 409.399 185.085L409.305 185.194C409.274 185.23 409.238 185.267 409.207 185.308C409.155 185.365 409.108 185.423 409.056 185.48C409.01 185.537 408.958 185.594 408.906 185.651C405.858 189.086 402.402 192.135 398.615 194.731C398.112 195.079 397.598 195.416 397.084 195.743C396.955 195.826 396.825 195.909 396.695 195.987C396.659 196.013 396.617 196.039 396.581 196.065C396.508 196.107 396.441 196.148 396.368 196.195C396.301 196.236 396.233 196.278 396.161 196.319C395.886 196.491 395.605 196.657 395.325 196.823C395.258 196.865 395.185 196.906 395.112 196.948C395.045 196.984 394.972 197.026 394.9 197.067C394.9 197.072 394.9 197.072 394.894 197.072H394.889V197.077H394.884C394.536 197.28 394.183 197.477 393.825 197.669C393.633 197.773 393.436 197.882 393.239 197.981C392.793 198.225 392.341 198.458 391.89 198.682C391.729 198.759 391.563 198.837 391.402 198.92C391.267 198.983 391.132 199.05 390.997 199.113C390.956 199.133 390.919 199.149 390.883 199.17C390.769 199.222 390.66 199.273 390.546 199.325C390.421 199.382 390.297 199.44 390.177 199.497C390.037 199.559 389.902 199.621 389.762 199.678C389.243 199.912 388.719 200.135 388.195 200.348C386.317 201.118 384.397 201.784 382.445 202.342C382.357 202.368 382.263 202.394 382.17 202.419C381.334 202.653 380.494 202.866 379.648 203.058C378.169 203.401 376.676 203.681 375.169 203.899H375.159C374.977 203.925 374.801 203.951 374.619 203.977C374.604 203.977 374.588 203.982 374.568 203.982C374.568 203.987 374.568 203.987 374.562 203.982C374.365 204.008 374.163 204.034 373.966 204.06C373.952 204.064 373.938 204.066 373.924 204.065C373.737 204.091 373.545 204.112 373.358 204.133C373.156 204.153 372.954 204.174 372.751 204.195C372.596 204.211 372.44 204.226 372.284 204.242C372.271 204.246 372.257 204.248 372.243 204.247C372.103 204.257 371.962 204.273 371.822 204.283H371.802C371.682 204.294 371.558 204.304 371.438 204.314C369.99 204.429 368.537 204.481 367.064 204.481C365.47 204.481 363.888 204.418 362.326 204.283H362.31C361.973 204.252 361.641 204.221 361.309 204.19C361.22 204.179 361.137 204.174 361.049 204.164C361.034 204.164 361.013 204.159 360.997 204.159C360.971 204.153 360.945 204.153 360.914 204.148C360.9 204.149 360.886 204.147 360.873 204.143C360.759 204.133 360.644 204.117 360.525 204.107L360.136 204.06C360.006 204.044 359.876 204.024 359.747 204.008C359.715 204.003 359.69 204.003 359.658 203.998C359.565 203.987 359.472 203.972 359.378 203.956C359.331 203.951 359.285 203.946 359.243 203.941C359.15 203.925 359.062 203.915 358.968 203.899H358.963C356.115 203.489 353.304 202.855 350.556 202.004C350.411 201.957 350.266 201.916 350.12 201.869C350.115 201.869 350.11 201.864 350.105 201.864C350.063 201.848 350.016 201.838 349.975 201.822C349.586 201.698 349.202 201.568 348.818 201.433C348.288 201.257 347.764 201.065 347.24 200.867C347.1 200.81 346.96 200.758 346.82 200.701C346.534 200.592 346.254 200.478 345.974 200.364C345.496 200.172 345.019 199.969 344.547 199.761C344.106 199.564 343.67 199.367 343.234 199.159C343.224 199.154 343.208 199.154 343.198 199.144C343.099 199.097 343 199.05 342.907 199.004H342.902C340.512 197.856 338.207 196.539 336.005 195.063C335.299 194.591 334.604 194.103 333.919 193.599C333.369 193.189 332.829 192.774 332.289 192.348C329.627 190.229 327.162 187.873 324.926 185.308V185.303C324.765 185.127 324.614 184.945 324.459 184.763C324.433 184.737 324.412 184.711 324.391 184.691C324.293 184.571 324.199 184.457 324.101 184.343V184.338C323.971 184.187 323.841 184.031 323.717 183.875C323.685 183.839 323.659 183.808 323.634 183.777V183.772C323.53 183.647 323.431 183.522 323.327 183.393C323.275 183.33 323.229 183.268 323.177 183.206V183.201C322.871 182.816 322.575 182.432 322.279 182.038C322.201 181.934 322.123 181.825 322.04 181.716C321.667 181.212 321.303 180.698 320.951 180.184V180.179C320.816 179.987 320.686 179.79 320.551 179.598C320.421 179.4 320.292 179.203 320.162 179.006C320.032 178.798 319.897 178.596 319.767 178.388L319.752 178.357C319.622 178.16 319.492 177.952 319.368 177.75C319.269 177.583 319.171 177.422 319.072 177.262C319.01 177.152 318.942 177.043 318.88 176.929C318.856 176.894 318.833 176.858 318.813 176.82C318.667 176.566 318.522 176.311 318.377 176.057C318.205 175.761 318.039 175.46 317.873 175.159C317.811 175.034 317.744 174.91 317.676 174.785C317.65 174.744 317.629 174.702 317.609 174.661C317.531 174.515 317.453 174.365 317.38 174.214C317.302 174.069 317.225 173.918 317.147 173.768C317.074 173.622 316.996 173.472 316.924 173.321C316.867 173.207 316.815 173.093 316.758 172.979C316.754 172.969 316.748 172.961 316.742 172.953C316.716 172.895 316.69 172.844 316.669 172.792C316.663 172.784 316.658 172.775 316.654 172.766C316.597 172.651 316.545 172.532 316.488 172.418C316.415 172.267 316.348 172.112 316.275 171.961C316.228 171.857 316.176 171.748 316.13 171.639C316.062 171.489 315.99 171.338 315.927 171.182C315.855 171.027 315.787 170.871 315.72 170.71C315.7 170.671 315.683 170.631 315.668 170.59C315.631 170.518 315.606 170.445 315.574 170.372C315.491 170.18 315.408 169.983 315.33 169.791C315.237 169.573 315.149 169.35 315.066 169.132C314.983 168.929 314.905 168.722 314.827 168.514L314.796 168.441C313.587 165.255 312.67 161.966 312.056 158.614V158.608C311.71 156.695 311.462 154.764 311.314 152.825C311.309 152.716 311.298 152.612 311.293 152.508C311.2 151.195 311.158 149.876 311.158 148.553C311.158 147.966 311.169 147.384 311.184 146.803C311.546 134.643 315.881 122.936 323.525 113.474C323.691 113.266 323.857 113.058 324.028 112.851C324.199 112.643 324.376 112.44 324.547 112.238C330.236 105.573 337.41 100.339 345.492 96.957C353.574 93.5752 362.337 92.1404 371.075 92.7683C379.813 93.3962 388.281 96.0693 395.797 100.572C403.313 105.075 409.666 111.281 414.344 118.691C414.599 119.096 414.853 119.506 415.097 119.916C415.346 120.332 415.585 120.747 415.823 121.167C420.525 129.527 422.988 138.96 422.974 148.553Z" fill="#F2F2F2"/>
<path d="M369.285 111.97C360.092 114.33 350.671 115.69 341.186 116.027C339.751 116.105 338.314 116.096 336.881 115.998C333.731 115.733 331.033 114.743 328.029 114.201C326.584 113.942 324.976 113.752 323.521 113.472C323.857 113.055 324.2 112.643 324.548 112.236C327.683 112.501 330.867 113.369 334.041 113.772C339.435 114.458 345.478 113.692 349.568 111.804C351.551 110.888 353.071 109.744 355.048 108.823C355.317 108.685 355.608 108.596 355.908 108.56C356.478 108.543 357.041 108.689 357.531 108.981C360.848 110.656 365.663 112.017 370.133 111.268C370.466 111.529 369.833 111.826 369.285 111.97Z" fill="white"/>
<path d="M389.064 117.865C389.104 117.857 389.145 117.852 389.186 117.845C389.014 117.738 388.853 117.616 388.703 117.48L389.064 117.865Z" fill="white"/>
<path d="M415.822 121.17C413.955 121.319 412.079 121.43 410.192 121.503C408.758 121.58 407.32 121.571 405.887 121.474C402.738 121.207 400.04 120.218 397.035 119.677C394.282 119.182 390.936 118.944 389.188 117.844C393.706 117.062 398.388 118.655 403.047 119.248C406.816 119.711 410.636 119.522 414.341 118.69C414.857 119.501 415.351 120.328 415.822 121.17Z" fill="white"/>
<path d="M360.761 173.026C370.035 173.026 377.553 165.337 377.553 155.853C377.553 146.368 370.035 138.679 360.761 138.679C351.487 138.679 343.969 146.368 343.969 155.853C343.969 165.337 351.487 173.026 360.761 173.026Z" fill="#FFB6B6"/>
<path d="M393.238 197.981C392.792 198.225 392.34 198.458 391.889 198.682C391.728 198.76 391.562 198.837 391.401 198.921C391.266 198.983 391.131 199.05 390.996 199.113C390.955 199.133 390.918 199.149 390.882 199.17C390.768 199.222 390.659 199.274 390.545 199.325C390.42 199.383 390.296 199.44 390.176 199.497C390.036 199.559 389.901 199.621 389.761 199.678C389.242 199.912 388.718 200.135 388.194 200.348C386.315 201.118 384.396 201.784 382.444 202.342C382.356 202.368 382.262 202.394 382.169 202.42C381.333 202.653 380.493 202.866 379.647 203.058C378.168 203.401 376.675 203.681 375.168 203.899H375.158C374.976 203.925 374.8 203.951 374.618 203.977C374.603 203.977 374.587 203.982 374.566 203.982C374.566 203.987 374.566 203.987 374.561 203.982C374.364 204.008 374.162 204.034 373.964 204.06C373.951 204.064 373.937 204.066 373.923 204.065C373.736 204.091 373.544 204.112 373.357 204.133C373.155 204.154 372.953 204.174 372.75 204.195C372.594 204.211 372.439 204.226 372.283 204.242C372.27 204.246 372.256 204.248 372.242 204.247C372.101 204.257 371.961 204.273 371.821 204.283H371.8C371.681 204.294 371.557 204.304 371.437 204.315C369.989 204.429 368.536 204.481 367.063 204.481C365.469 204.481 363.887 204.418 362.325 204.283H362.309C361.972 204.252 361.64 204.221 361.307 204.19C361.219 204.18 361.136 204.174 361.048 204.164C361.032 204.164 361.012 204.159 360.996 204.159C360.97 204.154 360.944 204.154 360.913 204.148C360.899 204.149 360.885 204.147 360.872 204.143C360.757 204.133 360.643 204.117 360.524 204.107L360.135 204.06C360.005 204.045 359.875 204.024 359.745 204.008C359.714 204.003 359.688 204.003 359.657 203.998C359.564 203.987 359.47 203.972 359.377 203.956C359.33 203.951 359.284 203.946 359.242 203.941C359.149 203.925 359.06 203.915 358.967 203.899H358.962C356.114 203.489 353.303 202.855 350.555 202.004C350.41 201.958 350.264 201.916 350.119 201.869C350.789 198.743 352.169 195.813 354.151 193.305C356.133 190.797 358.665 188.779 361.551 187.406C360.838 186.725 360.344 185.847 360.135 184.883C360 184.261 359.989 183.62 360.103 182.994C360.217 182.369 360.454 181.772 360.799 181.238C361.472 180.204 362.529 179.479 363.736 179.224L371.427 177.615C372.665 177.373 373.948 177.63 374.998 178.33C376.047 179.03 376.778 180.116 377.031 181.353C377.11 181.731 377.145 182.118 377.135 182.505C384.54 187.437 389.87 192.551 393.238 197.981Z" fill="#6D55F7"/>
<path d="M405.694 148.405C402.839 145.075 401.482 140.657 399.2 136.875C396.919 133.094 392.948 129.71 388.753 130.59C385.861 131.196 383.626 133.749 382.495 136.595C381.364 139.441 381.152 142.58 380.953 145.654C381.024 139.336 376.862 133.21 371.13 131.194C365.398 129.178 358.538 131.427 354.937 136.503C353.365 135.046 351.313 134.216 349.17 134.171C347.028 134.126 344.943 134.869 343.311 136.259C340.09 139.14 339.377 144.622 341.746 148.297C344.115 151.971 349.247 153.34 353.012 151.302L354.343 152.527C353.594 155.149 355.047 158.246 357.49 159.233C359.47 160.033 362.267 159.9 363.008 161.979C363.526 163.432 362.558 164.983 361.528 166.1C360.498 167.216 359.276 168.369 359.152 169.914C358.965 172.245 361.373 173.878 363.562 174.37C368.841 175.556 374.697 173.111 377.74 168.451C377.798 168.361 377.862 168.271 377.931 168.181C379.638 165.997 380.882 163.488 381.587 160.808C382.291 158.127 382.443 155.33 382.031 152.589C381.86 151.512 382.032 150.711 382.774 150.456C385.983 149.353 394.972 151.667 397.692 153.758C400.413 155.85 402.591 158.617 405.212 160.844C407.832 163.07 411.171 164.787 414.499 164.181C417.163 163.696 419.43 161.76 420.955 159.426C422.48 157.091 423.357 154.37 424.143 151.666C418.251 155.071 410.186 153.646 405.694 148.405Z" fill="#2F2E41"/>
<path d="M60.9805 113.77C60.9805 115.031 61.022 116.293 61.1103 117.544C61.2037 119.039 61.3645 120.524 61.5825 121.998C62.315 126.962 63.715 131.805 65.7444 136.394C65.8482 136.623 65.9519 136.851 66.0558 137.079L66.2114 137.422C66.2633 137.536 66.3204 137.65 66.3723 137.759C66.445 137.91 66.5124 138.055 66.5851 138.201C66.6733 138.382 66.7615 138.564 66.8549 138.746C66.8653 138.767 66.8757 138.793 66.8912 138.819C66.9691 138.974 67.0417 139.125 67.1248 139.281C67.14 139.314 67.1574 139.347 67.1767 139.379C67.2649 139.556 67.3583 139.737 67.4517 139.914C67.5555 140.101 67.6541 140.293 67.7579 140.48C68.007 140.942 68.2664 141.399 68.5311 141.856C68.6089 141.991 68.6868 142.126 68.7698 142.26C68.8425 142.385 68.9151 142.51 68.993 142.634C69.0449 142.717 69.0967 142.806 69.1486 142.889C69.2317 143.029 69.3147 143.164 69.4029 143.304C69.5949 143.61 69.7921 143.917 69.9841 144.223H69.9893C70.0775 144.363 70.1709 144.503 70.2644 144.638V144.643C70.5394 145.059 70.8248 145.474 71.1102 145.884C71.1109 145.884 71.1116 145.884 71.1122 145.885C71.1129 145.885 71.1135 145.885 71.1139 145.886C71.1144 145.886 71.1148 145.887 71.1151 145.887C71.1153 145.888 71.1154 145.889 71.1154 145.889C71.3438 146.222 71.5825 146.543 71.816 146.865V146.871C71.9717 147.073 72.1222 147.281 72.2778 147.483C72.4024 147.649 72.5321 147.821 72.6619 147.987C72.6878 148.023 72.7189 148.054 72.7449 148.091V148.096C72.7812 148.142 72.8175 148.184 72.8539 148.231C73.4039 148.937 73.9713 149.627 74.556 150.302L74.6494 150.411C74.6805 150.447 74.7169 150.484 74.748 150.525C74.7999 150.582 74.8466 150.64 74.8985 150.697C74.9452 150.754 74.9971 150.811 75.049 150.868C78.0968 154.303 81.5526 157.352 85.3396 159.948C85.8429 160.296 86.3567 160.633 86.8704 160.96C87.0002 161.043 87.1299 161.126 87.2596 161.204C87.296 161.23 87.3375 161.256 87.3738 161.282C87.4465 161.324 87.5139 161.365 87.5866 161.412C87.654 161.453 87.7215 161.495 87.7942 161.537C88.0692 161.708 88.3494 161.874 88.6297 162.04C88.6971 162.082 88.7698 162.123 88.8424 162.165C88.9099 162.201 88.9825 162.243 89.0552 162.284C89.0552 162.289 89.0552 162.289 89.0604 162.289H89.0656V162.294H89.0707C89.4185 162.497 89.7713 162.694 90.1294 162.886C90.3214 162.99 90.5186 163.099 90.7158 163.198C91.1621 163.442 91.6136 163.675 92.065 163.899C92.2259 163.977 92.392 164.054 92.5528 164.137C92.6878 164.2 92.8227 164.267 92.9576 164.33C92.9991 164.35 93.0355 164.366 93.0718 164.387C93.1859 164.439 93.2949 164.49 93.4091 164.542C93.5336 164.6 93.6582 164.657 93.7775 164.714C93.9176 164.776 94.0526 164.838 94.1927 164.895C94.7116 165.129 95.2358 165.352 95.7599 165.565C97.6382 166.335 99.5578 167.001 101.51 167.559C101.598 167.585 101.691 167.611 101.785 167.637C102.62 167.87 103.461 168.083 104.307 168.275C105.786 168.618 107.279 168.898 108.785 169.116H108.796C108.977 169.142 109.154 169.168 109.335 169.194C109.351 169.194 109.367 169.199 109.387 169.199C109.387 169.204 109.387 169.204 109.392 169.199C109.59 169.225 109.792 169.251 109.989 169.277C110.003 169.281 110.017 169.283 110.031 169.282C110.218 169.308 110.41 169.329 110.596 169.35C110.799 169.37 111.001 169.391 111.204 169.412C111.359 169.428 111.515 169.443 111.671 169.459C111.684 169.463 111.698 169.465 111.712 169.464C111.852 169.474 111.992 169.49 112.132 169.5H112.153C112.273 169.511 112.397 169.521 112.516 169.531C113.964 169.646 115.417 169.698 116.891 169.698C118.484 169.698 120.067 169.635 121.629 169.5H121.645C121.982 169.469 122.314 169.438 122.646 169.407C122.734 169.396 122.817 169.391 122.906 169.381C122.921 169.381 122.942 169.376 122.958 169.376C122.984 169.37 123.009 169.37 123.041 169.365C123.055 169.366 123.069 169.364 123.082 169.36C123.196 169.35 123.31 169.334 123.43 169.324L123.819 169.277C123.949 169.261 124.078 169.241 124.208 169.225C124.239 169.22 124.265 169.22 124.296 169.215C124.39 169.204 124.483 169.189 124.577 169.173C124.623 169.168 124.67 169.163 124.712 169.158C124.805 169.142 124.893 169.132 124.987 169.116H124.992C127.839 168.706 130.65 168.072 133.399 167.221C133.544 167.175 133.689 167.133 133.835 167.086C133.84 167.086 133.845 167.081 133.85 167.081C133.892 167.065 133.938 167.055 133.98 167.04C134.369 166.915 134.753 166.785 135.137 166.65C135.666 166.474 136.191 166.282 136.715 166.084C136.855 166.027 136.995 165.975 137.135 165.918C137.42 165.809 137.701 165.695 137.981 165.581C138.458 165.389 138.936 165.186 139.408 164.979C139.849 164.781 140.285 164.584 140.721 164.376C140.731 164.371 140.747 164.371 140.757 164.361C140.856 164.314 140.954 164.267 141.048 164.221H141.053C143.443 163.073 145.748 161.756 147.95 160.28C148.655 159.808 149.351 159.32 150.036 158.816C150.586 158.406 151.126 157.991 151.665 157.565C154.328 155.446 156.793 153.09 159.029 150.525V150.52C159.19 150.344 159.34 150.162 159.496 149.98C159.522 149.954 159.543 149.928 159.564 149.908C159.662 149.788 159.756 149.674 159.854 149.56V149.555C159.984 149.404 160.114 149.248 160.238 149.093C160.269 149.056 160.295 149.025 160.321 148.994V148.989C160.425 148.864 160.524 148.739 160.627 148.61C160.679 148.547 160.726 148.485 160.778 148.423V148.418C161.084 148.033 161.38 147.649 161.676 147.255C161.754 147.151 161.831 147.042 161.914 146.933C162.288 146.429 162.651 145.915 163.004 145.401V145.396C163.139 145.204 163.269 145.007 163.404 144.815C163.533 144.617 163.663 144.42 163.793 144.223C163.923 144.015 164.058 143.813 164.187 143.605L164.203 143.574C164.333 143.377 164.462 143.169 164.587 142.967C164.686 142.8 164.784 142.639 164.883 142.479C164.945 142.37 165.012 142.261 165.075 142.146C165.099 142.111 165.122 142.075 165.142 142.037C165.288 141.783 165.433 141.529 165.578 141.274C165.749 140.978 165.915 140.677 166.081 140.376C166.144 140.251 166.211 140.127 166.279 140.002C166.305 139.961 166.325 139.919 166.346 139.878C166.424 139.732 166.502 139.582 166.574 139.431C166.652 139.286 166.73 139.135 166.808 138.985C166.881 138.839 166.959 138.689 167.031 138.538C167.088 138.424 167.14 138.31 167.197 138.196C167.201 138.186 167.206 138.178 167.213 138.17C167.239 138.113 167.265 138.061 167.285 138.009C167.292 138.001 167.297 137.992 167.301 137.983C167.358 137.869 167.41 137.749 167.467 137.635C167.54 137.484 167.607 137.329 167.68 137.178C167.727 137.074 167.778 136.965 167.825 136.856C167.893 136.706 167.965 136.555 168.028 136.399C168.1 136.244 168.168 136.088 168.235 135.927C168.255 135.888 168.272 135.848 168.287 135.807C168.323 135.735 168.349 135.662 168.38 135.589C168.463 135.397 168.546 135.2 168.624 135.008C168.718 134.79 168.806 134.567 168.889 134.349C168.972 134.146 169.05 133.939 169.128 133.731L169.159 133.658C170.368 130.472 171.285 127.183 171.899 123.831V123.826C172.245 121.912 172.493 119.981 172.641 118.042C172.646 117.933 172.656 117.829 172.662 117.725C172.755 116.412 172.797 115.093 172.797 113.77C172.797 113.183 172.786 112.601 172.771 112.02C172.408 99.8597 168.074 88.1528 160.43 78.6906C160.264 78.4829 160.098 78.2753 159.927 78.0676C159.756 77.8599 159.579 77.6575 159.408 77.455C153.719 70.7902 146.545 65.5559 138.463 62.1741C130.381 58.7922 121.617 57.3574 112.88 57.9853C104.142 58.6133 95.6734 61.2863 88.1576 65.7891C80.6418 70.2919 74.2887 76.4983 69.6105 83.908C69.3562 84.313 69.102 84.7231 68.8581 85.1333C68.609 85.5486 68.3702 85.9639 68.1315 86.3844C63.4303 94.7444 60.9671 104.177 60.9805 113.77Z" fill="#F2F2F2"/>
<path d="M114.671 77.1869C123.864 79.5468 133.285 80.9071 142.77 81.2442C144.205 81.3224 145.642 81.3126 147.076 81.2149C150.225 80.9499 152.923 79.9596 155.927 79.4185C157.372 79.1591 158.98 78.9694 160.435 78.689C160.099 78.272 159.757 77.8601 159.408 77.4533C156.273 77.7183 153.089 78.5858 149.916 78.9889C144.521 79.6751 138.478 78.9094 134.389 77.0209C132.405 76.1046 130.885 74.9609 128.908 74.0403C128.639 73.9022 128.348 73.813 128.048 73.7767C127.478 73.7596 126.915 73.9058 126.425 74.1979C123.108 75.873 118.293 77.2343 113.823 76.4853C113.49 76.7461 114.123 77.0432 114.671 77.1869Z" fill="white"/>
<path d="M94.8902 83.0817C94.8494 83.0742 94.8084 83.0684 94.7676 83.0613C94.9393 82.9549 95.101 82.833 95.2506 82.6973L94.8902 83.0817Z" fill="white"/>
<path d="M68.1328 86.3866C69.9996 86.5358 71.8762 86.6469 73.7625 86.7199C75.1969 86.7974 76.6346 86.7876 78.0677 86.6906C81.2172 86.4242 83.9149 85.4354 86.9194 84.8942C89.6729 84.3991 93.0189 84.1606 94.7672 83.0615C90.2487 82.2791 85.567 83.8719 80.9077 84.4646C77.1388 84.9282 73.3183 84.7395 69.6134 83.9067C69.0976 84.7185 68.604 85.5451 68.1328 86.3866Z" fill="white"/>
<path d="M90.7168 163.198C91.1631 163.442 91.6146 163.676 92.066 163.899C92.2269 163.977 92.393 164.054 92.5538 164.138C92.6888 164.2 92.8237 164.267 92.9586 164.33C93.0001 164.35 93.0365 164.366 93.0728 164.387C93.187 164.439 93.2959 164.491 93.4101 164.542C93.5346 164.6 93.6592 164.657 93.7786 164.714C93.9187 164.776 94.0536 164.838 94.1937 164.896C94.7126 165.129 95.2368 165.352 95.7609 165.565C97.6392 166.335 99.5588 167.001 101.511 167.559C101.599 167.585 101.692 167.611 101.786 167.637C102.621 167.87 103.462 168.083 104.308 168.275C105.787 168.618 107.28 168.898 108.786 169.116H108.797C108.978 169.142 109.155 169.168 109.336 169.194C109.352 169.194 109.368 169.199 109.388 169.199C109.388 169.204 109.388 169.204 109.393 169.199C109.591 169.225 109.793 169.251 109.99 169.277C110.004 169.281 110.018 169.283 110.032 169.282C110.219 169.308 110.411 169.329 110.597 169.35C110.8 169.371 111.002 169.391 111.205 169.412C111.36 169.428 111.516 169.443 111.672 169.459C111.685 169.463 111.699 169.465 111.713 169.464C111.853 169.474 111.993 169.49 112.133 169.5H112.154C112.274 169.511 112.398 169.521 112.518 169.532C113.965 169.646 115.418 169.698 116.892 169.698C118.485 169.698 120.068 169.635 121.63 169.5H121.646C121.983 169.469 122.315 169.438 122.647 169.407C122.735 169.397 122.818 169.391 122.907 169.381C122.922 169.381 122.943 169.376 122.959 169.376C122.985 169.371 123.01 169.371 123.042 169.365C123.056 169.366 123.07 169.364 123.083 169.36C123.197 169.35 123.311 169.334 123.431 169.324L123.82 169.277C123.95 169.262 124.079 169.241 124.209 169.225C124.24 169.22 124.266 169.22 124.297 169.215C124.391 169.204 124.484 169.189 124.578 169.173C124.624 169.168 124.671 169.163 124.713 169.158C124.806 169.142 124.894 169.132 124.988 169.116H124.993C127.84 168.706 130.651 168.073 133.4 167.221C133.545 167.175 133.69 167.133 133.836 167.086C133.166 163.96 131.786 161.03 129.804 158.522C127.822 156.014 125.289 153.996 122.403 152.623C123.117 151.943 123.611 151.064 123.82 150.1C123.955 149.478 123.965 148.837 123.851 148.211C123.737 147.586 123.501 146.989 123.156 146.455C122.482 145.421 121.426 144.696 120.219 144.441L112.528 142.832C111.29 142.59 110.007 142.847 108.957 143.547C107.908 144.247 107.177 145.333 106.923 146.57C106.845 146.948 106.81 147.335 106.82 147.722C99.4142 152.654 94.0847 157.768 90.7168 163.198Z" fill="#6D55F7"/>
<path d="M121.142 137.638C131.48 137.638 139.861 129.254 139.861 118.911C139.861 108.568 131.48 100.183 121.142 100.183C110.803 100.183 102.422 108.568 102.422 118.911C102.422 129.254 110.803 137.638 121.142 137.638Z" fill="#9E616A"/>
<path d="M118.482 136.637C113.796 137.903 108.629 136.22 104.972 133.027C101.314 129.833 99.0265 125.308 97.7083 120.635C96.7428 117.212 96.2851 113.412 97.8086 110.198C99.3321 106.985 103.432 104.816 106.596 106.44C104.644 104.165 105.619 100.403 107.898 98.4574C110.178 96.5116 113.307 95.9538 116.288 95.6488C120.614 95.2063 125.082 95.1567 129.199 96.5587C133.315 97.9607 137.055 101.026 138.343 105.181C139.659 105.794 141.141 105.953 142.557 105.633C143.973 105.313 145.242 104.533 146.167 103.414C146.406 104.699 146.214 106.027 145.622 107.192C145.03 108.357 144.071 109.295 142.893 109.86L149.2 107.814C150.285 110.111 148.384 112.954 145.953 113.69C143.523 114.425 140.899 113.621 138.593 112.558C136.286 111.496 134.051 110.152 131.546 109.738C129.041 109.323 126.098 110.129 124.939 112.389C124.332 113.573 124.301 114.96 123.948 116.242C123.596 117.525 122.703 118.856 121.377 118.961C120.54 119.027 119.72 118.581 118.884 118.672C118.372 118.773 117.9 119.021 117.526 119.386C117.152 119.752 116.893 120.218 116.78 120.728C116.572 121.753 116.57 122.808 116.773 123.833L118.375 136.084L118.482 136.637Z" fill="#2F2E41"/>
<path d="M209.775 192.053C214.194 192.053 217.775 188.472 217.775 184.053C217.775 179.635 214.194 176.053 209.775 176.053C205.357 176.053 201.775 179.635 201.775 184.053C201.775 188.472 205.357 192.053 209.775 192.053Z" fill="url(#paint3_linear_802_1280)"/>
<defs>
<linearGradient id="paint0_linear_802_1280" x1="286.891" y1="299.099" x2="293.263" y2="305.67" gradientUnits="userSpaceOnUse">
<stop stop-color="#4FA53E"/>
<stop offset="1" stop-color="#77DF81"/>
</linearGradient>
<linearGradient id="paint1_linear_802_1280" x1="303.829" y1="215.029" x2="311.02" y2="221.16" gradientUnits="userSpaceOnUse">
<stop stop-color="#F19102"/>
<stop offset="1" stop-color="#FFB74D"/>
</linearGradient>
<linearGradient id="paint2_linear_802_1280" x1="211.961" y1="78.1874" x2="218.372" y2="83.5749" gradientUnits="userSpaceOnUse">
<stop stop-color="#C94215"/>
<stop offset="1" stop-color="#F3693D"/>
</linearGradient>
<linearGradient id="paint3_linear_802_1280" x1="204.306" y1="178.013" x2="214.592" y2="188.625" gradientUnits="userSpaceOnUse">
<stop stop-color="#4FA53E"/>
<stop offset="1" stop-color="#77DF81"/>
</linearGradient>
</defs>
</svg>
