<svg viewBox="0 0 382 383" fill="none" xmlns="http://www.w3.org/2000/svg">
<path d="M19.604 107.831C12.7957 125.669 5.87061 183.972 12.9097 225.107C21.9399 277.885 53.8813 318.059 83.9606 339.935C183.774 412.531 355.33 352.007 374.187 277.112C377.608 263.523 375.687 250.723 373.323 234.965C365.803 184.86 340.645 171.287 321.219 118.747C303.541 70.9268 317.884 64.6043 302.732 43.7669C269.862 -1.4332 185.694 5.61761 124.137 23.3965C99.2775 30.575 44.5224 42.5496 19.604 107.831Z" fill="url(#paint0_linear_802_1427)"/>
<path d="M363.167 323.256L373.645 319.929C374.951 314.299 374.865 308.435 373.393 302.846C369.183 312.217 356.832 314.513 349.795 321.992C347.618 324.341 345.997 327.151 345.052 330.213C344.108 333.275 343.863 336.511 344.337 339.68L342.133 347.167C347.282 346.726 352.274 345.174 356.766 342.616C361.258 340.058 365.142 336.555 368.152 332.35C369.817 329.974 371.176 327.397 372.198 324.681C367.729 324.234 363.167 323.256 363.167 323.256Z" fill="#F2F2F2"/>
<path d="M351.97 309.412L359.866 301.756C358.527 296.134 355.837 290.924 352.03 286.579C352.437 296.845 342.405 304.414 339.438 314.25C338.536 317.325 338.337 320.564 338.856 323.726C339.374 326.889 340.597 329.894 342.433 332.519L343.795 340.204C348.208 337.511 351.984 333.892 354.865 329.597C357.746 325.303 359.663 320.433 360.483 315.326C360.915 312.456 360.983 309.543 360.688 306.655C356.489 308.25 351.97 309.412 351.97 309.412Z" fill="#F2F2F2"/>
<path d="M84.5092 80.037C89.2087 80.037 93.0184 76.2231 93.0184 71.5185C93.0184 66.8139 89.2087 63 84.5092 63C79.8097 63 76 66.8139 76 71.5185C76 76.2231 79.8097 80.037 84.5092 80.037Z" fill="url(#paint1_linear_802_1427)"/>
<path d="M224.7 90.5552H78.0381C77.5955 90.5552 77.171 90.288 76.858 89.8123C76.545 89.3365 76.3691 88.6913 76.3691 88.0186C76.3691 87.3458 76.545 86.7006 76.858 86.2249C77.171 85.7492 77.5955 85.4819 78.0381 85.4819H224.7C225.143 85.4819 225.567 85.7492 225.88 86.2249C226.193 86.7006 226.369 87.3458 226.369 88.0186C226.369 88.6913 226.193 89.3365 225.88 89.8123C225.567 90.288 225.143 90.5552 224.7 90.5552Z" fill="#F2F2F2"/>
<path d="M243.169 100.578H78.9031C78.2311 100.578 77.5866 100.311 77.1113 99.8354C76.6361 99.3597 76.3691 98.7144 76.3691 98.0416C76.3691 97.3688 76.6361 96.7236 77.1113 96.2479C77.5866 95.7721 78.2311 95.5049 78.9031 95.5049H243.169C243.841 95.5049 244.486 95.7721 244.961 96.2479C245.436 96.7236 245.703 97.3688 245.703 98.0416C245.703 98.7144 245.436 99.3597 244.961 99.8354C244.486 100.311 243.841 100.578 243.169 100.578Z" fill="#F2F2F2"/>
<path d="M39.8784 213.171C44.5779 213.171 48.3876 209.357 48.3876 204.652C48.3876 199.948 44.5779 196.134 39.8784 196.134C35.1788 196.134 31.3691 199.948 31.3691 204.652C31.3691 209.357 35.1788 213.171 39.8784 213.171Z" fill="url(#paint2_linear_802_1427)"/>
<path d="M256.567 223.515H33.9032C33.5701 223.516 33.2401 223.45 32.9322 223.323C32.6243 223.196 32.3445 223.009 32.1088 222.774C31.8731 222.538 31.6861 222.258 31.5585 221.95C31.4309 221.642 31.3652 221.312 31.3652 220.979C31.3652 220.645 31.4309 220.315 31.5585 220.007C31.6861 219.699 31.8731 219.419 32.1088 219.183C32.3445 218.948 32.6243 218.761 32.9322 218.634C33.2401 218.507 33.5701 218.441 33.9032 218.442H256.567C257.273 218.481 257.938 218.783 258.433 219.289C258.928 219.794 259.216 220.467 259.241 221.174C259.22 221.504 259.135 221.827 258.989 222.123C258.843 222.42 258.64 222.685 258.391 222.902C258.142 223.12 257.853 223.286 257.54 223.391C257.227 223.496 256.896 223.539 256.567 223.515Z" fill="#F2F2F2"/>
<path d="M198.169 233.539H33.9031C33.2311 233.539 32.5866 233.272 32.1113 232.796C31.6361 232.32 31.3691 231.675 31.3691 231.002C31.3691 230.329 31.6361 229.684 32.1113 229.208C32.5866 228.733 33.2311 228.465 33.9031 228.465H198.169C198.841 228.465 199.486 228.733 199.961 229.208C200.436 229.684 200.703 230.329 200.703 231.002C200.703 231.675 200.436 232.32 199.961 232.796C199.486 233.272 198.841 233.539 198.169 233.539Z" fill="#F2F2F2"/>
<path d="M37.8784 141.679C42.5779 141.679 46.3876 137.865 46.3876 133.161C46.3876 128.456 42.5779 124.642 37.8784 124.642C33.1788 124.642 29.3691 128.456 29.3691 133.161C29.3691 137.865 33.1788 141.679 37.8784 141.679Z" fill="url(#paint3_linear_802_1427)"/>
<path d="M207.366 152.023H31.3719C30.8407 152.023 30.3313 151.756 29.9557 151.28C29.5801 150.805 29.3691 150.16 29.3691 149.487C29.3691 148.814 29.5801 148.169 29.9557 147.693C30.3313 147.217 30.8407 146.95 31.3719 146.95H207.366C207.898 146.95 208.407 147.217 208.783 147.693C209.158 148.169 209.369 148.814 209.369 149.487C209.369 150.16 209.158 150.805 208.783 151.28C208.407 151.756 207.898 152.023 207.366 152.023Z" fill="#F2F2F2"/>
<path d="M223.559 162.047H31.9031C31.2311 162.047 30.5866 161.779 30.1113 161.304C29.6361 160.828 29.3691 160.183 29.3691 159.51C29.3691 158.837 29.6361 158.192 30.1113 157.716C30.5866 157.24 31.2311 156.973 31.9031 156.973H223.559C224.231 156.973 224.876 157.24 225.351 157.716C225.826 158.192 226.093 158.837 226.093 159.51C226.093 160.183 225.826 160.828 225.351 161.304C224.876 161.779 224.231 162.047 223.559 162.047Z" fill="#F2F2F2"/>
<path d="M210.551 172.071H31.9031C31.2311 172.071 30.5866 171.803 30.1113 171.328C29.6361 170.852 29.3691 170.207 29.3691 169.534C29.3691 168.861 29.6361 168.216 30.1113 167.74C30.5866 167.264 31.2311 166.997 31.9031 166.997H210.551C211.223 166.997 211.868 167.264 212.343 167.74C212.818 168.216 213.085 168.861 213.085 169.534C213.085 170.207 212.818 170.852 212.343 171.328C211.868 171.803 211.223 172.071 210.551 172.071Z" fill="#F2F2F2"/>
<path d="M202.248 284.215C237.05 284.215 265.263 255.971 265.263 221.131C265.263 186.291 237.05 158.047 202.248 158.047C167.445 158.047 139.232 186.291 139.232 221.131C139.232 255.971 167.445 284.215 202.248 284.215Z" fill="white"/>
<path fill-rule="evenodd" clip-rule="evenodd" d="M202.248 282.215C235.943 282.215 263.263 254.869 263.263 221.131C263.263 187.393 235.943 160.047 202.248 160.047C168.552 160.047 141.232 187.393 141.232 221.131C141.232 254.869 168.552 282.215 202.248 282.215ZM265.263 221.131C265.263 255.971 237.05 284.215 202.248 284.215C167.445 284.215 139.232 255.971 139.232 221.131C139.232 186.291 167.445 158.047 202.248 158.047C237.05 158.047 265.263 186.291 265.263 221.131Z" fill="#F2F2F2"/>
<path d="M173 229C173 220.716 179.716 214 188 214H216C224.284 214 231 220.716 231 229V240C231 248.284 224.284 255 216 255H188C179.716 255 173 248.284 173 240V229Z" fill="#6D55F7"/>
<path d="M202.16 243.141C207.132 243.141 211.163 239.106 211.163 234.129C211.163 229.152 207.132 225.117 202.16 225.117C197.189 225.117 193.158 229.152 193.158 234.129C193.158 239.106 197.189 243.141 202.16 243.141Z" fill="#3F3D56"/>
<path d="M202.161 238.288C204.455 238.288 206.316 236.426 206.316 234.129C206.316 231.832 204.455 229.97 202.161 229.97C199.866 229.97 198.006 231.832 198.006 234.129C198.006 236.426 199.866 238.288 202.161 238.288Z" fill="#6D55F7"/>
<path d="M218.873 254.19H185.625C182.333 254.186 179.176 252.875 176.848 250.545C174.52 248.215 173.211 245.055 173.207 241.759V226.499C173.211 223.203 174.52 220.043 176.848 217.713C179.176 215.382 182.332 214.071 185.625 214.067H218.873C222.165 214.071 225.321 215.382 227.649 217.713C229.977 220.043 231.286 223.203 231.29 226.499V241.759C231.286 245.055 229.977 248.214 227.649 250.545C225.321 252.875 222.165 254.186 218.873 254.19ZM185.625 215.369C182.677 215.372 179.851 216.546 177.767 218.632C175.683 220.719 174.511 223.548 174.507 226.499V241.759C174.511 244.71 175.683 247.539 177.767 249.625C179.851 251.711 182.677 252.885 185.625 252.888H218.873C221.82 252.885 224.646 251.711 226.73 249.625C228.814 247.539 229.986 244.71 229.99 241.759V226.499C229.986 223.548 228.814 220.719 226.73 218.633C224.646 216.546 221.82 215.372 218.873 215.369L185.625 215.369Z" fill="#6D55F7"/>
<path d="M183.655 245.906H213.166C214.698 245.906 216.215 245.604 217.63 245.017C219.045 244.431 220.331 243.57 221.414 242.486C222.497 241.402 223.356 240.115 223.943 238.698C224.529 237.281 224.831 235.763 224.831 234.229V221.458C224.828 220.042 224.568 218.638 224.061 217.316C225.501 218.401 226.669 219.806 227.474 221.421C228.278 223.035 228.697 224.815 228.697 226.619V239.39C228.697 240.923 228.395 242.442 227.809 243.859C227.223 245.275 226.364 246.563 225.281 247.647C224.197 248.731 222.912 249.591 221.496 250.178C220.081 250.765 218.564 251.067 217.033 251.067H187.522C185.157 251.066 182.848 250.344 180.902 248.998C178.956 247.653 177.465 245.746 176.627 243.532C178.647 245.073 181.116 245.907 183.655 245.906Z" fill="#3F3D56"/>
<path d="M274.027 339.654L266.776 339.654L263.326 311.652L274.029 311.653L274.027 339.654Z" fill="#A0616A"/>
<path d="M274.282 347.227L251.982 347.227V346.944C251.983 344.64 252.897 342.43 254.525 340.8C256.153 339.171 258.36 338.255 260.662 338.255L264.736 335.162L272.336 338.256L274.283 338.256L274.282 347.227Z" fill="#2F2E41"/>
<path d="M325.337 339.654L332.589 339.654L336.039 311.652L325.336 311.653L325.337 339.654Z" fill="#A0616A"/>
<path d="M325.082 347.227L347.382 347.227V346.944C347.382 344.64 346.468 342.43 344.84 340.8C343.212 339.171 341.004 338.255 338.703 338.255L334.629 335.162L327.029 338.256L325.082 338.256L325.082 347.227Z" fill="#2F2E41"/>
<path d="M263.006 291.075C263.113 289.478 263.965 280.641 263.965 280.641L266.004 261.902L269.599 212.228L269.834 208.977L288.665 205.357L301.535 199.181L316.833 204.076L328.744 208.548C328.744 208.548 328.765 210.462 328.856 212.775C328.979 215.802 329.193 219.513 329.703 220.477C330.554 222.182 330.34 231.335 330.34 231.335C330.34 231.335 331.187 249.957 332.252 251.999C333.318 254.041 333.532 258.293 333.211 259.146C332.89 259.998 334.277 282.362 334.277 282.362C334.277 282.362 337.837 321.937 335.603 327.905C333.37 333.872 324.93 329.963 324.93 329.963C324.93 329.963 325.338 328.37 322.89 327.62C320.443 326.87 312.988 270.754 312.988 270.754C312.988 270.754 311.601 259.248 310.326 255.95C309.051 252.652 307.879 243.387 307.879 243.387C307.879 243.387 300.005 228.053 299.904 224.643C299.904 224.643 298.873 221.452 297.9 224.964C296.926 228.477 294.055 236.889 294.055 236.889L291.255 247.221L287.961 262.658L285.83 275.654C285.83 275.654 282.638 292.903 282.128 293.648C281.618 294.394 282.128 310.152 282.128 310.152C282.128 310.152 279.66 323.572 276.172 325.915C272.684 328.258 263.444 325.952 263.444 325.952C263.444 325.952 262.899 292.673 263.006 291.075Z" fill="#2F2E41"/>
<path d="M271.041 163.672L275.227 176.296L270.061 182.452L272.336 184.795L270.658 188.108L266.283 222.83L290.269 231.937L298.347 221.799L304.716 231.937L332.47 225.148L325.392 180.87V177.975L323.394 172.385V160.553L328.671 125.33L312.92 119.807L305.388 113.84L302.951 122.232L292.575 120.384L292.304 114.079L284.365 121.589L277.679 123.498L269.674 125.33L268.654 127.883L270.693 127.372L270.362 160.579L271.041 163.672Z" fill="#2F2E41"/>
<path d="M263.871 209.861L267.9 170.826L268.963 154.76L257.687 152.719C257.687 152.719 258.134 164.206 256.657 170.688C255.199 177.083 256.464 209.004 256.554 209.858C255.726 210.599 255.142 211.575 254.88 212.655C254.617 213.736 254.689 214.871 255.085 215.91C255.481 216.949 256.183 217.843 257.098 218.474C258.013 219.105 259.097 219.443 260.208 219.444C261.319 219.444 262.404 219.107 263.319 218.477C264.234 217.847 264.937 216.953 265.334 215.915C265.731 214.876 265.804 213.741 265.543 212.66C265.281 211.58 264.699 210.604 263.871 209.861Z" fill="#A0616A"/>
<path d="M252.872 178.915L256.007 179.563L266.767 181.794L267.363 181.916L268.633 176.863L270.107 175.29L272.911 160.579L273.059 159.813L277.296 150.747L280.228 123.498L269.326 125.458C269.27 125.514 269.219 125.576 269.168 125.637C267.603 127.413 266.486 129.884 264.66 132.37C258.72 140.461 254.162 160.119 254.34 170.89C254.345 171.064 254.167 171.252 253.953 171.447C252.942 172.377 252.282 173.628 252.085 174.988C251.888 176.349 252.166 177.735 252.872 178.915Z" fill="#2F2E41"/>
<path d="M333.965 209.861L329.936 170.826L328.873 154.76L340.149 152.719C340.149 152.719 339.702 164.206 341.179 170.688C342.637 177.083 341.372 209.004 341.282 209.858C342.11 210.599 342.694 211.575 342.956 212.655C343.219 213.736 343.147 214.871 342.751 215.91C342.355 216.949 341.653 217.843 340.738 218.474C339.823 219.105 338.739 219.443 337.628 219.444C336.517 219.444 335.432 219.107 334.517 218.477C333.602 217.847 332.899 216.953 332.502 215.915C332.105 214.876 332.032 213.741 332.293 212.66C332.555 211.58 333.137 210.604 333.965 209.861Z" fill="#A0616A"/>
<path d="M344.962 178.915L341.826 179.563L331.067 181.794L330.47 181.916L329.201 176.863L327.727 175.29L324.922 160.579L324.774 159.813L320.537 150.747L321.506 123.498L328.507 125.458C328.563 125.514 328.614 125.576 328.665 125.637C330.231 127.413 331.348 129.884 333.173 132.37C339.114 140.461 343.672 160.119 343.493 170.89C343.488 171.064 343.667 171.252 343.881 171.447C344.892 172.377 345.551 173.628 345.748 174.988C345.945 176.349 345.668 177.735 344.962 178.915Z" fill="#2F2E41"/>
<path d="M287.182 127.53L292.304 114.08L305.389 113.84L309.731 127.53L325.336 214.803C325.336 214.803 277.527 228.132 278.011 212.11C278.521 195.265 280.822 172.888 280.822 172.888L287.182 127.53Z" fill="#6D55F7"/>
<path d="M298.554 110.318C307.067 110.318 313.968 103.409 313.968 94.8873C313.968 86.3654 307.067 79.457 298.554 79.457C290.042 79.457 283.141 86.3654 283.141 94.8873C283.141 103.409 290.042 110.318 298.554 110.318Z" fill="#A0616A"/>
<path d="M182 206.524C182 195.741 190.741 187 201.524 187V187C213.385 187 223 196.615 223 208.476V215H182V206.524Z" fill="#6D55F7"/>
<path d="M189 203.857C189 196.756 194.756 191 201.857 191V191C209.668 191 216 197.332 216 205.143V207.077C216 208.691 214.691 210 213.077 210H192.167C190.418 210 189 208.582 189 206.833V203.857Z" fill="white"/>
<path d="M282.23 83.6935C284.74 80.9592 287.878 75.9542 297.385 73.8525C309.132 71.2555 314.683 81.8791 311.721 82.0533C320.383 84.6793 314.819 102.625 312.335 101.12C312.314 101.105 312.294 101.089 312.274 101.072C310.938 100.088 309.817 98.8407 308.979 97.4077C308.141 95.9747 307.604 94.3857 307.4 92.7378L306.929 88.4911C306.861 91.9463 303.334 92.4034 299.73 91.1309C299.943 90.3733 300.349 89.6845 300.91 89.1323C301.47 88.5801 302.164 88.1837 302.924 87.9822C300.412 90.2623 297.22 91.6524 293.841 91.9384C294.018 91.0733 294.378 90.2561 294.897 89.5417C295.416 88.8274 296.081 88.2324 296.848 87.7967L296.706 87.6567C295.298 88.8449 293.683 89.7609 291.941 90.3578C289.954 90.9279 287.574 90.6195 286.212 89.0626C285.846 88.633 285.569 88.1342 285.398 87.5957C285.693 90.3321 283.859 93.4557 282.435 92.9194C281.25 92.6889 280.56 85.5137 282.23 83.6935Z" fill="#2F2E41"/>
<path d="M202.76 186.926C196.596 186.926 191.179 189.72 188.111 193.912C191.391 191.523 195.35 190.251 199.405 190.285C208.949 190.285 216.714 196.978 216.714 205.204V212.043H220.069V201.846C220.069 193.619 212.304 186.926 202.76 186.926Z" fill="#3F3D56"/>
<path d="M222.373 215.543H182.121V203.687C182.121 194.121 191.15 186.339 202.247 186.339C213.345 186.339 222.373 194.121 222.373 203.687V215.543ZM183.421 214.241H221.073V203.687C221.073 194.839 212.628 187.64 202.247 187.64C191.866 187.64 183.421 194.839 183.421 203.687V214.241Z" fill="#6D55F7"/>
<path d="M212.557 211.016H191.94C191.012 211.015 190.123 210.646 189.467 209.989C188.811 209.333 188.442 208.442 188.441 207.514V202.796C188.441 196.217 194.635 190.865 202.248 190.865C209.862 190.865 216.055 196.217 216.055 202.796V207.514C216.054 208.442 215.686 209.333 215.03 209.989C214.374 210.646 213.485 211.015 212.557 211.016ZM202.248 192.167C195.352 192.167 189.742 196.935 189.742 202.796V207.514C189.742 208.097 189.974 208.657 190.386 209.069C190.798 209.482 191.357 209.714 191.94 209.715H212.557C213.14 209.714 213.699 209.482 214.111 209.069C214.523 208.657 214.755 208.097 214.755 207.514V202.796C214.755 196.935 209.145 192.167 202.248 192.167Z" fill="#6D55F7"/>
<defs>
<linearGradient id="paint0_linear_802_1427" x1="180.57" y1="11.1763" x2="201.43" y2="372.575" gradientUnits="userSpaceOnUse">
<stop stop-color="#D2DBE8"/>
<stop offset="1" stop-color="#6D55F7"/>
</linearGradient>
<linearGradient id="paint1_linear_802_1427" x1="78.6917" y1="65.0862" x2="89.6444" y2="76.3743" gradientUnits="userSpaceOnUse">
<stop stop-color="#4FA53E"/>
<stop offset="1" stop-color="#77DF81"/>
</linearGradient>
<linearGradient id="paint2_linear_802_1427" x1="33.0113" y1="198.802" x2="45.3707" y2="209.332" gradientUnits="userSpaceOnUse">
<stop stop-color="#F19102"/>
<stop offset="1" stop-color="#FFB74D"/>
</linearGradient>
<linearGradient id="paint3_linear_802_1427" x1="32.0608" y1="126.728" x2="43.0135" y2="138.016" gradientUnits="userSpaceOnUse">
<stop stop-color="#4FA53E"/>
<stop offset="1" stop-color="#77DF81"/>
</linearGradient>
</defs>
</svg>
